<svg id="Group_121" data-name="Group 121" xmlns="http://www.w3.org/2000/svg" xmlns:xlink="http://www.w3.org/1999/xlink" width="323.059" height="241.927" viewBox="0 0 323.059 241.927">
  <defs>
    <clipPath id="clip-path">
      <rect id="Rectangle_12" data-name="Rectangle 12" width="323.059" height="241.927" fill="none"/>
    </clipPath>
  </defs>
  <g id="Group_17" data-name="Group 17" clip-path="url(#clip-path)">
    <path id="Path_43" data-name="Path 43" d="M390.236,167.656h53.832l4.341-16.494s-24.892-6.63-50.8,13.12a21.97,21.97,0,0,0-3.355,3.374" transform="translate(-225.883 -86.879)" fill="#ffb614"/>
    <path id="Path_44" data-name="Path 44" d="M390.236,167.656h53.832l4.341-16.494s-24.892-6.63-50.8,13.12a21.97,21.97,0,0,0-3.355,3.374" transform="translate(-225.883 -86.879)" fill="none" stroke="#161615" stroke-miterlimit="10" stroke-width="1"/>
    <path id="Path_45" data-name="Path 45" d="M185.566,70.77,225.4,2.989A5.046,5.046,0,0,1,229.746.5h58.606a5.045,5.045,0,0,1,4.4,2.584l25.467,45.573a5.046,5.046,0,0,0,6.454,2.149,5.046,5.046,0,0,1,6.929,5.9l-11.443,43.482a5.046,5.046,0,0,1-5.948,3.647l-45.522-9.858a5.046,5.046,0,0,1-2.2-8.779l1.806-1.532a5.046,5.046,0,0,0,1.22-6.16l-6.71-13.014a5.046,5.046,0,0,0-8.79-.318l-22.157,36.257a5.046,5.046,0,0,1-7.056,1.6L187.167,77.557A5.046,5.046,0,0,1,185.566,70.77Z" transform="translate(-107.01 -0.289)" fill="none" stroke="#171716" stroke-miterlimit="10" stroke-width="1"/>
    <line id="Line_1" data-name="Line 1" x2="146.62" transform="translate(18.185 54.617)" fill="none" stroke="#171716" stroke-miterlimit="10" stroke-width="1"/>
    <path id="Path_46" data-name="Path 46" d="M62.376,89.028s25.47-30.09,39.541-29.555c0,0,13-1.982,43.46,29.555Z" transform="translate(-36.106 -34.41)" fill="#ffb614"/>
    <path id="Path_47" data-name="Path 47" d="M62.376,89.028s25.47-30.09,39.541-29.555c0,0,13-1.982,43.46,29.555Z" transform="translate(-36.106 -34.41)" fill="none" stroke="#161615" stroke-miterlimit="10" stroke-width="1"/>
    <path id="Path_48" data-name="Path 48" d="M106.988,73.981a2.634,2.634,0,0,0,1.883-.1,19.352,19.352,0,0,0,4.588-3.037c1.482-1.094,3.284-2.022,5.1-1.688l-2.035,3.953a7.547,7.547,0,0,0-1,2.821,2.572,2.572,0,0,0,1.256,2.542c1.571.743,3.2-.846,4.216-2.255l3.96-5.488a2.238,2.238,0,0,1,1.28-1.055,1.648,1.648,0,0,1,1.66,1.308,14.017,14.017,0,0,1,.222,2.3,4.9,4.9,0,0,0,2.31,3.554,2.03,2.03,0,0,0,1.141.35c.935-.058,1.488-1.063,1.761-1.96a12.893,12.893,0,0,0,.353-6.007,1.372,1.372,0,0,1,.038-.92,1,1,0,0,1,.484-.388c1.845-.812,4.588.919,5.745-.732.73-1.041-.024-2.47-.891-3.4-4.067-4.355-10.745-5.592-16.531-4.164a29.605,29.605,0,0,0-12.172,6.848c-1.278,1.114-7.206,5.927-3.36,7.519" transform="translate(-61.188 -34.179)" fill="#fff"/>
    <path id="Path_49" data-name="Path 49" d="M106.988,73.981a2.634,2.634,0,0,0,1.883-.1,19.352,19.352,0,0,0,4.588-3.037c1.482-1.094,3.284-2.022,5.1-1.688l-2.035,3.953a7.547,7.547,0,0,0-1,2.821,2.572,2.572,0,0,0,1.256,2.542c1.571.743,3.2-.846,4.216-2.255l3.96-5.488a2.238,2.238,0,0,1,1.28-1.055,1.648,1.648,0,0,1,1.66,1.308,14.017,14.017,0,0,1,.222,2.3,4.9,4.9,0,0,0,2.31,3.554,2.03,2.03,0,0,0,1.141.35c.935-.058,1.488-1.063,1.761-1.96a12.893,12.893,0,0,0,.353-6.007,1.372,1.372,0,0,1,.038-.92,1,1,0,0,1,.484-.388c1.845-.812,4.588.919,5.745-.732.73-1.041-.024-2.47-.891-3.4-4.067-4.355-10.745-5.592-16.531-4.164a29.605,29.605,0,0,0-12.172,6.848C109.071,67.576,103.142,72.389,106.988,73.981Z" transform="translate(-61.188 -34.179)" fill="none" stroke="#161615" stroke-miterlimit="10" stroke-width="1"/>
    <path id="Path_50" data-name="Path 50" d="M183.328,88.164,205.592,62.7s8.727-10.687,19.414,0l31.526,25.459Z" transform="translate(-106.117 -33.547)" fill="#ffb614"/>
    <path id="Path_51" data-name="Path 51" d="M183.328,88.164,205.592,62.7s8.727-10.687,19.414,0l31.526,25.459Z" transform="translate(-106.117 -33.547)" fill="none" stroke="#161615" stroke-miterlimit="10" stroke-width="1"/>
    <path id="Path_52" data-name="Path 52" d="M234,72.781c.553,1.062,2.144,1.148,3.152.5a7.332,7.332,0,0,0,2.165-2.818,2.219,2.219,0,0,1,1.036-1.115c.81-.3,1.695.454,1.879,1.3a4.953,4.953,0,0,1-.375,2.529,4,4,0,0,0-.212,2.532c.551,1.543,2.821,1.844,4.144.878a5.914,5.914,0,0,0,2-4.329,29.039,29.039,0,0,1,.471-4.884,1.183,1.183,0,0,1,.455-.752c.52-.3,1.146.246,1.367.806s.306,1.231.786,1.6a1.623,1.623,0,0,0,1.854-.153,3.9,3.9,0,0,0,1.158-4.338,8.9,8.9,0,0,0-2.85-3.795,13.652,13.652,0,0,0-5-2.96c-4.4-1.289-9.327.869-11.991,4.461-.717.966-2.031,2.861-1.748,4.167a1.614,1.614,0,0,0,3.016.469c.766,2.073-2.367,3.874-1.307,5.908" transform="translate(-134.434 -33.226)" fill="#fff"/>
    <path id="Path_53" data-name="Path 53" d="M234,72.781c.553,1.062,2.144,1.148,3.152.5a7.332,7.332,0,0,0,2.165-2.818,2.219,2.219,0,0,1,1.036-1.115c.81-.3,1.695.454,1.879,1.3a4.953,4.953,0,0,1-.375,2.529,4,4,0,0,0-.212,2.532c.551,1.543,2.821,1.844,4.144.878a5.914,5.914,0,0,0,2-4.329,29.039,29.039,0,0,1,.471-4.884,1.183,1.183,0,0,1,.455-.752c.52-.3,1.146.246,1.367.806s.306,1.231.786,1.6a1.623,1.623,0,0,0,1.854-.153,3.9,3.9,0,0,0,1.158-4.338,8.9,8.9,0,0,0-2.85-3.795,13.652,13.652,0,0,0-5-2.96c-4.4-1.289-9.327.869-11.991,4.461-.717.966-2.031,2.861-1.748,4.167a1.614,1.614,0,0,0,3.016.469C236.069,68.947,232.937,70.747,234,72.781Z" transform="translate(-134.434 -33.226)" fill="none" stroke="#161615" stroke-miterlimit="10" stroke-width="1"/>
    <path id="Path_54" data-name="Path 54" d="M311.723,115.1c-.3-2.63.176-6.164,1.819-8.239s4.763-3.092,7.067-1.79a7.958,7.958,0,0,1,3.116,4.255,3.8,3.8,0,0,1,7.152,1.831c.995-1.736,3.567-2.026,5.3-1.03a9.477,9.477,0,0,1,3.863,4.973Z" transform="translate(-180.389 -60.484)" fill="#ffb614"/>
    <path id="Path_55" data-name="Path 55" d="M311.723,115.1c-.3-2.63.176-6.164,1.819-8.239s4.763-3.092,7.067-1.79a7.958,7.958,0,0,1,3.116,4.255,3.8,3.8,0,0,1,7.152,1.831c.995-1.736,3.567-2.026,5.3-1.03a9.477,9.477,0,0,1,3.863,4.973Z" transform="translate(-180.389 -60.484)" fill="none" stroke="#161615" stroke-miterlimit="10" stroke-width="1"/>
    <path id="Path_56" data-name="Path 56" d="M421.571,93.234c0,9.629-3.247,17.436-7.252,17.436s-7.252-7.807-7.252-17.436S410.314,75.8,414.319,75.8s7.252,7.807,7.252,17.436" transform="translate(-235.626 -43.875)" fill="#ffb614"/>
    <path id="Path_57" data-name="Path 57" d="M421.571,93.234c0,9.629-3.247,17.436-7.252,17.436s-7.252-7.807-7.252-17.436S410.314,75.8,414.319,75.8,421.571,83.6,421.571,93.234Z" transform="translate(-235.626 -43.875)" fill="none" stroke="#161615" stroke-miterlimit="10" stroke-width="1"/>
    <line id="Line_2" data-name="Line 2" y2="24.997" transform="translate(178.693 56.611)" fill="none" stroke="#171716" stroke-miterlimit="10" stroke-width="1"/>
    <path id="Path_58" data-name="Path 58" d="M450.418,248.634l39.469,67.991a5.045,5.045,0,0,1,.031,5.012l-28.792,51.045a5.046,5.046,0,0,1-4.415,2.567l-52.205-.207a5.046,5.046,0,0,0-5.043,4.566,5.046,5.046,0,0,1-8.539,3.139l-32.252-31.329a5.046,5.046,0,0,1-.255-6.972l30.95-34.806a5.046,5.046,0,0,1,8.726,2.4l.448,2.326a5.046,5.046,0,0,0,4.766,4.089L417.94,319a5.046,5.046,0,0,0,4.6-7.5l-20.7-37.112a5.046,5.046,0,0,1,2.073-6.931l39.806-20.767A5.045,5.045,0,0,1,450.418,248.634Z" transform="translate(-206.728 -142.464)" fill="none" stroke="#171716" stroke-miterlimit="10" stroke-width="1"/>
    <path id="Path_59" data-name="Path 59" d="M496,379.475s3.207-29.388,29.414-16.217c0,0,5.16-10.88,16.023-3.539,0,0,11.134-20.359,27.428-.535,0,0,17.517-.271,10.184,19.961Z" transform="translate(-287.106 -202.888)" fill="#fff"/>
    <path id="Path_60" data-name="Path 60" d="M496,379.475s3.207-29.388,29.414-16.217c0,0,5.16-10.88,16.023-3.539,0,0,11.134-20.359,27.428-.535,0,0,17.517-.271,10.184,19.961Z" transform="translate(-287.106 -202.888)" fill="none" stroke="#161615" stroke-miterlimit="10" stroke-width="1"/>
    <line id="Line_3" data-name="Line 3" x2="42.679" transform="translate(280.38 176.301)" fill="none" stroke="#161615" stroke-miterlimit="10" stroke-width="1"/>
    <path id="Path_61" data-name="Path 61" d="M158.237,371.715l-78.616.255a5.047,5.047,0,0,1-4.358-2.476l-29.855-50.43a5.046,5.046,0,0,1-.02-5.107l26.242-45.13a5.046,5.046,0,0,0-1.438-6.649,5.046,5.046,0,0,1,1.543-8.966l43.246-12.3a5.046,5.046,0,0,1,6.168,3.26l14.707,44.194a5.046,5.046,0,0,1-6.435,6.362l-2.238-.773a5.045,5.045,0,0,0-5.922,2.088l-7.78,12.4a5.046,5.046,0,0,0,4.2,7.727l42.487.6a5.046,5.046,0,0,1,4.971,5.257l-1.879,44.858A5.046,5.046,0,0,1,158.237,371.715Z" transform="translate(-25.876 -139.334)" fill="none" stroke="#171716" stroke-miterlimit="10" stroke-width="1"/>
    <path id="Path_62" data-name="Path 62" d="M76.882,469.977s32.464-21.536,44.038,16.721c0,0,17.361-12.378,24.916,9.805,0,0,9.966-8.491,14.628,4.676H98.616a6.47,6.47,0,0,1-5.6-3.237Z" transform="translate(-44.502 -268.544)" fill="#ffb614"/>
    <path id="Path_63" data-name="Path 63" d="M76.882,469.977s32.464-21.536,44.038,16.721c0,0,17.361-12.378,24.916,9.805,0,0,9.966-8.491,14.628,4.676H98.616a6.47,6.47,0,0,1-5.6-3.237Z" transform="translate(-44.502 -268.544)" fill="none" stroke="#161615" stroke-miterlimit="10" stroke-width="1"/>
    <path id="Path_64" data-name="Path 64" d="M16.406,318.688c1.723,1.178,2.6,3.583,2.764,5.664a6.271,6.271,0,0,0,.473,2.741c.668,1.142,2.14,1.468,3.231,2.215a5.376,5.376,0,0,1,2.182,4.373,7.923,7.923,0,0,1-1.671,4.7c-.842,1.134-1.982,2.289-1.84,3.694.273,2.72,4.926,3.374,4.992,6.108.044,1.855-2.1,2.889-3.9,3.333a42.523,42.523,0,0,1-15.18.958,10.129,10.129,0,0,1-5.2-1.762c-1.451-1.158-2.266-3.3-1.386-4.937.888-1.649,3.215-2.431,3.471-4.287.311-2.25-2.742-3.855-2.581-6.12.182-2.555,3.951-3.09,5.216-5.317.939-1.653.239-3.713.3-5.612a7.071,7.071,0,0,1,6.342-6.592,4.887,4.887,0,0,1,2.794.838" transform="translate(-0.289 -183.98)" fill="#ffb614"/>
    <path id="Path_65" data-name="Path 65" d="M16.406,318.688c1.723,1.178,2.6,3.583,2.764,5.664a6.271,6.271,0,0,0,.473,2.741c.668,1.142,2.14,1.468,3.231,2.215a5.376,5.376,0,0,1,2.182,4.373,7.923,7.923,0,0,1-1.671,4.7c-.842,1.134-1.982,2.289-1.84,3.694.273,2.72,4.926,3.374,4.992,6.108.044,1.855-2.1,2.889-3.9,3.333a42.523,42.523,0,0,1-15.18.958,10.129,10.129,0,0,1-5.2-1.762c-1.451-1.158-2.266-3.3-1.386-4.937.888-1.649,3.215-2.431,3.471-4.287.311-2.25-2.742-3.855-2.581-6.12.182-2.555,3.951-3.09,5.216-5.317.939-1.653.239-3.713.3-5.612a7.071,7.071,0,0,1,6.342-6.592A4.887,4.887,0,0,1,16.406,318.688Z" transform="translate(-0.289 -183.98)" fill="none" stroke="#161615" stroke-miterlimit="10" stroke-width="1"/>
    <line id="Line_4" data-name="Line 4" y2="29.577" transform="translate(13.972 147.258)" fill="none" stroke="#171716" stroke-miterlimit="10" stroke-width="1"/>
    <path id="Path_66" data-name="Path 66" d="M144.393,318.688c1.723,1.178,2.6,3.583,2.764,5.664a6.271,6.271,0,0,0,.473,2.741c.668,1.142,2.139,1.468,3.231,2.215a5.376,5.376,0,0,1,2.182,4.373,7.923,7.923,0,0,1-1.671,4.7c-.842,1.134-1.982,2.289-1.84,3.694.273,2.72,4.926,3.374,4.992,6.108.044,1.855-2.1,2.889-3.9,3.333a42.523,42.523,0,0,1-15.18.958,10.129,10.129,0,0,1-5.2-1.762c-1.451-1.158-2.266-3.3-1.386-4.937.888-1.649,3.215-2.431,3.471-4.287.311-2.25-2.742-3.855-2.581-6.12.182-2.555,3.951-3.09,5.216-5.317.939-1.653.239-3.713.3-5.612a7.071,7.071,0,0,1,6.342-6.592,4.887,4.887,0,0,1,2.794.838" transform="translate(-74.373 -183.98)" fill="#ffb614"/>
    <path id="Path_67" data-name="Path 67" d="M144.393,318.688c1.723,1.178,2.6,3.583,2.764,5.664a6.271,6.271,0,0,0,.473,2.741c.668,1.142,2.139,1.468,3.231,2.215a5.376,5.376,0,0,1,2.182,4.373,7.923,7.923,0,0,1-1.671,4.7c-.842,1.134-1.982,2.289-1.84,3.694.273,2.72,4.926,3.374,4.992,6.108.044,1.855-2.1,2.889-3.9,3.333a42.523,42.523,0,0,1-15.18.958,10.129,10.129,0,0,1-5.2-1.762c-1.451-1.158-2.266-3.3-1.386-4.937.888-1.649,3.215-2.431,3.471-4.287.311-2.25-2.742-3.855-2.581-6.12.182-2.555,3.951-3.09,5.216-5.317.939-1.653.239-3.713.3-5.612a7.071,7.071,0,0,1,6.342-6.592A4.887,4.887,0,0,1,144.393,318.688Z" transform="translate(-74.373 -183.98)" fill="none" stroke="#161615" stroke-miterlimit="10" stroke-width="1"/>
    <line id="Line_5" data-name="Line 5" y2="29.577" transform="translate(67.875 147.258)" fill="none" stroke="#171716" stroke-miterlimit="10" stroke-width="1"/>
    <path id="Path_68" data-name="Path 68" d="M238.7,494.978S234.43,473,252.927,463.937C252.927,463.937,257.907,492.4,238.7,494.978Z" transform="translate(-137.922 -268.544)" fill="none" stroke="#171716" stroke-miterlimit="10" stroke-width="1"/>
    <path id="Path_69" data-name="Path 69" d="M250.541,490.979c-.711.534-6.891,4.474-9.937,21.178" transform="translate(-139.271 -284.197)" fill="none" stroke="#171716" stroke-miterlimit="10" stroke-width="1"/>
    <path id="Path_70" data-name="Path 70" d="M277.917,491.182c-.178.534-.889,8.359-19.208,12.272,0,0,12.272-6.581,13.161-21.342" transform="translate(-149.751 -279.064)" fill="none" stroke="#171716" stroke-miterlimit="10" stroke-width="1"/>
    <path id="Path_71" data-name="Path 71" d="M289.738,471.444a2.846,2.846,0,1,1-2.846-2.846,2.846,2.846,0,0,1,2.846,2.846" transform="translate(-164.417 -271.242)" fill="#ffb614"/>
    <path id="Path_72" data-name="Path 72" d="M289.738,471.444a2.846,2.846,0,1,1-2.846-2.846A2.846,2.846,0,0,1,289.738,471.444Z" transform="translate(-164.417 -271.242)" fill="none" stroke="#161615" stroke-miterlimit="10" stroke-width="1"/>
    <path id="Path_73" data-name="Path 73" d="M305.156,493.78a2.8,2.8,0,1,1-2.8-2.8,2.8,2.8,0,0,1,2.8,2.8" transform="translate(-173.393 -284.197)" fill="#ffb614"/>
    <circle id="Ellipse_2" data-name="Ellipse 2" cx="2.801" cy="2.801" r="2.801" transform="translate(126.161 206.782)" fill="none" stroke="#161615" stroke-miterlimit="10" stroke-width="1"/>
    <line id="Line_6" data-name="Line 6" x1="91.596" transform="translate(0.211 176.835)" fill="none" stroke="#161615" stroke-miterlimit="10" stroke-width="1"/>
    <path id="Path_74" data-name="Path 74" d="M534.125,491.293h0a17.907,17.907,0,0,1-17.907-17.907V454.248a5.317,5.317,0,0,1,5.317-5.317H547.18a5.317,5.317,0,0,1,5.317,5.317v18.673A18.372,18.372,0,0,1,534.125,491.293Z" transform="translate(-298.806 -259.858)" fill="none" stroke="#161615" stroke-miterlimit="10" stroke-width="1"/>
    <path id="Path_75" data-name="Path 75" d="M552.294,446.092H520.4a1.033,1.033,0,1,1,0-2.065h31.891a1.033,1.033,0,0,1,0,2.065Z" transform="translate(-300.631 -257.02)" fill="none" stroke="#161615" stroke-miterlimit="10" stroke-width="1"/>
    <path id="Path_76" data-name="Path 76" d="M552.313,441.241H520.384a1.014,1.014,0,1,1,0-2.027h31.929a1.014,1.014,0,0,1,0,2.027Z" transform="translate(-300.631 -254.234)" fill="none" stroke="#161615" stroke-miterlimit="10" stroke-width="1"/>
    <path id="Path_77" data-name="Path 77" d="M551.114,433.133H521.582a2.212,2.212,0,1,1,0-4.424h29.532a2.212,2.212,0,0,1,0,4.424Z" transform="translate(-300.631 -248.153)" fill="none" stroke="#161615" stroke-miterlimit="10" stroke-width="1"/>
    <path id="Path_78" data-name="Path 78" d="M548.059,425.491a5.312,5.312,0,0,1,1.732-3.237,4.427,4.427,0,0,1,4.939-.908c1.564.866,2.038,3.408.6,4.474a3.03,3.03,0,0,1-3.779-.55,7.216,7.216,0,0,1-1.7-3.734c-1.214-5.789-.408-11.783.277-17.658.978-8.392,1.7-16.914.422-25.266-.682-4.462-2.107-9.116-5.566-12.016" transform="translate(-315.459 -212.2)" fill="none" stroke="#161615" stroke-miterlimit="10" stroke-width="1"/>
    <path id="Path_79" data-name="Path 79" d="M520.548,344.381a60.515,60.515,0,0,0,6.339-4.821.678.678,0,0,1,.966-.008l.574.574a.678.678,0,0,1,.136.763.677.677,0,0,0,.179.8l1.09.916a.678.678,0,0,1,.242.519v3.122a.675.675,0,0,0,.135.406l1.493,1.991a.675.675,0,0,1,.065.706,4.171,4.171,0,0,1-1.984,2.019.67.67,0,0,1-.761-.191l-1.607-1.875a.68.68,0,0,0-.443-.233l-2.12-.223a.681.681,0,0,1-.408-.195l-2.3-2.3a.679.679,0,0,0-.383-.192l-.5-.071a.677.677,0,0,1-.411-.22l-.429-.483a.676.676,0,0,1,.122-1.007" transform="translate(-301.143 -196.43)" fill="#ffb614"/>
    <path id="Path_80" data-name="Path 80" d="M520.548,344.381a60.515,60.515,0,0,0,6.339-4.821.678.678,0,0,1,.966-.008l.574.574a.678.678,0,0,1,.136.763.677.677,0,0,0,.179.8l1.09.916a.678.678,0,0,1,.242.519v3.122a.675.675,0,0,0,.135.406l1.493,1.991a.675.675,0,0,1,.065.706,4.171,4.171,0,0,1-1.984,2.019.67.67,0,0,1-.761-.191l-1.607-1.875a.68.68,0,0,0-.443-.233l-2.12-.223a.681.681,0,0,1-.408-.195l-2.3-2.3a.679.679,0,0,0-.383-.192l-.5-.071a.677.677,0,0,1-.411-.22l-.429-.483A.676.676,0,0,1,520.548,344.381Z" transform="translate(-301.143 -196.43)" fill="none" stroke="#161615" stroke-miterlimit="10" stroke-width="1"/>
    <path id="Path_81" data-name="Path 81" d="M518.816,342.741l1-.71-3.343-4.091a.587.587,0,0,0-.68-.186c-.216.095-.372.337-.129.924,0,0,2.495,3.84,3.148,4.063" transform="translate(-298.417 -195.479)" fill="#ffb614"/>
    <path id="Path_82" data-name="Path 82" d="M518.816,342.741l1-.71-3.343-4.091a.587.587,0,0,0-.68-.186c-.216.095-.372.337-.129.924C515.668,338.678,518.163,342.518,518.816,342.741Z" transform="translate(-298.417 -195.479)" fill="none" stroke="#161615" stroke-miterlimit="10" stroke-width="1"/>
    <path id="Path_83" data-name="Path 83" d="M528.946,335.035l.681-.594s-3.158-5.246-4.062-4.279c0,0-.489.484.755,1.728Z" transform="translate(-304.162 -191.041)" fill="#ffb614"/>
    <path id="Path_84" data-name="Path 84" d="M528.946,335.035l.681-.594s-3.158-5.246-4.062-4.279c0,0-.489.484.755,1.728Z" transform="translate(-304.162 -191.041)" fill="none" stroke="#161615" stroke-miterlimit="10" stroke-width="1"/>
    <path id="Path_85" data-name="Path 85" d="M557.229,377.255a10.52,10.52,0,0,1,.214-2.458,3.538,3.538,0,0,1,1.281-2.055,2.919,2.919,0,0,1,3.769.53,3.389,3.389,0,0,1,.217,3.9,5.453,5.453,0,0,1-1.648,1.578,5.334,5.334,0,0,1-1.541.752c-.505.136-1.82.492-2.2.038-.361-.425-.091-1.768-.087-2.283" transform="translate(-322.487 -215.486)" fill="#ffb614"/>
    <path id="Path_86" data-name="Path 86" d="M557.229,377.255a10.52,10.52,0,0,1,.214-2.458,3.538,3.538,0,0,1,1.281-2.055,2.919,2.919,0,0,1,3.769.53,3.389,3.389,0,0,1,.217,3.9,5.453,5.453,0,0,1-1.648,1.578,5.334,5.334,0,0,1-1.541.752c-.505.136-1.82.492-2.2.038C556.954,379.113,557.225,377.77,557.229,377.255Z" transform="translate(-322.487 -215.486)" fill="none" stroke="#161615" stroke-miterlimit="10" stroke-width="1"/>
    <path id="Path_87" data-name="Path 87" d="M542.267,381.557a4.637,4.637,0,0,0-3.312-.157,3.046,3.046,0,0,0-2.015,2.5,2.9,2.9,0,0,0,1.407,2.6,3.8,3.8,0,0,0,3,.34,5.56,5.56,0,0,0,2.561-1.69,5.211,5.211,0,0,0,.844-1.16c.275-.584.293-.506-.142-.964a6.987,6.987,0,0,0-2.345-1.47" transform="translate(-310.797 -220.632)" fill="#ffb614"/>
    <path id="Path_88" data-name="Path 88" d="M542.267,381.557a4.637,4.637,0,0,0-3.312-.157,3.046,3.046,0,0,0-2.015,2.5,2.9,2.9,0,0,0,1.407,2.6,3.8,3.8,0,0,0,3,.34,5.56,5.56,0,0,0,2.561-1.69,5.211,5.211,0,0,0,.844-1.16c.275-.584.293-.506-.142-.964A6.987,6.987,0,0,0,542.267,381.557Z" transform="translate(-310.797 -220.632)" fill="none" stroke="#161615" stroke-miterlimit="10" stroke-width="1"/>
  </g>
</svg>
