<svg id="Group_142" data-name="Group 142" xmlns="http://www.w3.org/2000/svg" xmlns:xlink="http://www.w3.org/1999/xlink" width="250.882" height="246.382" viewBox="0 0 250.882 246.382">
  <defs>
    <clipPath id="clip-path">
      <rect id="Rectangle_19" data-name="Rectangle 19" width="250.882" height="246.382" fill="none"/>
    </clipPath>
  </defs>
  <g id="Group_29" data-name="Group 29">
    <g id="Group_28" data-name="Group 28" clip-path="url(#clip-path)">
      <path id="Path_105" data-name="Path 105" d="M64.216,167.809c-4.31-3.216-8.848-6.894-10.143-12.114,9.032-.81,18.355-.648,26.867,2.482,6.262,2.3,20.228,10.173,10.578,17.2-8.41,6.126-20.584-2.556-27.3-7.57" transform="translate(-36.851 -105.826)" fill="#ffb614"/>
      <path id="Path_106" data-name="Path 106" d="M64.216,167.809c-4.31-3.216-8.848-6.894-10.143-12.114,9.032-.81,18.355-.648,26.867,2.482,6.262,2.3,20.228,10.173,10.578,17.2C83.108,181.5,70.934,172.822,64.216,167.809Z" transform="translate(-36.851 -105.826)" fill="none" stroke="#161615" stroke-miterlimit="10" stroke-width="1"/>
      <path id="Path_107" data-name="Path 107" d="M216.176,27.326a63.238,63.238,0,0,1,9.66-9.285c1.793,5.446,3.6,10.932,4.335,16.618s.354,11.65-2.077,16.842c-2.01,4.293-5.843,8.982-10.162,11.151-5.007,2.514-6.265-3.7-7.3-7.907a32.487,32.487,0,0,1,5.546-27.419" transform="translate(-142.898 -12.295)" fill="#ffb614"/>
      <path id="Path_108" data-name="Path 108" d="M216.176,27.326a63.238,63.238,0,0,1,9.66-9.285c1.793,5.446,3.6,10.932,4.335,16.618s.354,11.65-2.077,16.842c-2.01,4.293-5.843,8.982-10.162,11.151-5.007,2.514-6.265-3.7-7.3-7.907A32.487,32.487,0,0,1,216.176,27.326Z" transform="translate(-142.898 -12.295)" fill="none" stroke="#161615" stroke-miterlimit="10" stroke-width="1"/>
      <path id="Path_109" data-name="Path 109" d="M135.516,84.57a19.746,19.746,0,0,1-5.978-5.213c-3.3-4.73-2.832-11.026-2.234-16.76q1.081-10.363,2.161-20.726c.137-1.311.491-2.9,1.754-3.275a3.041,3.041,0,0,1,2.114.37c4.367,2.067,7.356,6.17,10.154,10.109l7.572,10.66c2.636,3.711,5.335,7.564,6.25,12.024.989,4.821-.256,14.6-5.283,17.2-4.678,2.422-12.7-2.022-16.508-4.389" transform="translate(-86.469 -26.253)" fill="#ffb614"/>
      <path id="Path_110" data-name="Path 110" d="M135.516,84.57a19.746,19.746,0,0,1-5.978-5.213c-3.3-4.73-2.832-11.026-2.234-16.76q1.081-10.363,2.161-20.726c.137-1.311.491-2.9,1.754-3.275a3.041,3.041,0,0,1,2.114.37c4.367,2.067,7.356,6.17,10.154,10.109l7.572,10.66c2.636,3.711,5.335,7.564,6.25,12.024.989,4.821-.256,14.6-5.283,17.2C147.346,91.381,139.323,86.938,135.516,84.57Z" transform="translate(-86.469 -26.253)" fill="none" stroke="#161615" stroke-miterlimit="10" stroke-width="1"/>
      <path id="Path_111" data-name="Path 111" d="M432.391.724c7.817-1.312,16.531,3.251,18.952,10.8.583,1.819.831,3.781,1.828,5.41s3.12,2.82,4.828,1.965c4.2-2.1,10.547-.124,11.168,4.533.306,2.3-.8,4.567-.772,6.885.028,2.721,1.576,5.152,2.584,7.679s1.345,5.77-.615,7.656a5.874,5.874,0,0,1-5.676.992,24.246,24.246,0,0,1-5.351-2.758c-11.425-6.755-25.043-7.419-37.6-10.782-4.028-1.078-13.953-3.329-14.118-9-.1-3.391,2.677-2.986,4.916-4.222,3.024-1.67,3.124-4.53,4.654-7.472,3.039-5.841,8.606-10.573,15.206-11.681" transform="translate(-277.794 -0.341)" fill="#ffb614"/>
      <path id="Path_112" data-name="Path 112" d="M432.391.724c7.817-1.312,16.531,3.251,18.952,10.8.583,1.819.831,3.781,1.828,5.41s3.12,2.82,4.828,1.965c4.2-2.1,10.547-.124,11.168,4.533.306,2.3-.8,4.567-.772,6.885.028,2.721,1.576,5.152,2.584,7.679s1.345,5.77-.615,7.656a5.874,5.874,0,0,1-5.676.992,24.246,24.246,0,0,1-5.351-2.758c-11.425-6.755-25.043-7.419-37.6-10.782-4.028-1.078-13.953-3.329-14.118-9-.1-3.391,2.677-2.986,4.916-4.222,3.024-1.67,3.124-4.53,4.654-7.472C420.225,6.565,425.792,1.833,432.391.724Z" transform="translate(-277.794 -0.341)" fill="none" stroke="#161615" stroke-miterlimit="10" stroke-width="1"/>
      <path id="Path_113" data-name="Path 113" d="M70.035,497.347c-3.5-1.267-7.2-2.39-10.882-1.9s-7.343,3.035-7.992,6.7c-.507,2.861.872,5.736,2.644,8.038,4.6,5.973,11.9,9.415,19.322,10.716,6.488,1.137,13.108.781,19.624.1,3.808-.4,13.541-.013,9.4-5.92-3.043-4.341-10.472-7.535-15.025-10.022a123.313,123.313,0,0,0-17.091-7.713" transform="translate(-34.794 -337.576)" fill="#ffb614"/>
      <path id="Path_114" data-name="Path 114" d="M70.035,497.347c-3.5-1.267-7.2-2.39-10.882-1.9s-7.343,3.035-7.992,6.7c-.507,2.861.872,5.736,2.644,8.038,4.6,5.973,11.9,9.415,19.322,10.716,6.488,1.137,13.108.781,19.624.1,3.808-.4,13.541-.013,9.4-5.92-3.043-4.341-10.472-7.535-15.025-10.022A123.313,123.313,0,0,0,70.035,497.347Z" transform="translate(-34.794 -337.576)" fill="none" stroke="#161615" stroke-miterlimit="10" stroke-width="1"/>
      <path id="Path_115" data-name="Path 115" d="M72.266,524.532a84.97,84.97,0,0,0,32.821,10.156c3.941.379,7.945.487,11.755,1.563" transform="translate(-49.25 -357.475)" fill="none" stroke="#040506" stroke-miterlimit="10" stroke-width="1"/>
      <path id="Path_116" data-name="Path 116" d="M89.845,164.192a77.442,77.442,0,0,0,26.027,12.141" transform="translate(-61.231 -111.899)" fill="none" stroke="#040506" stroke-miterlimit="10" stroke-width="1"/>
      <path id="Path_117" data-name="Path 117" d="M75.825,175a18.438,18.438,0,0,1,6.166.9,21.379,21.379,0,0,0,2.971,1.125,24.57,24.57,0,0,0,3.915.125c.139.007.256.25.123.209" transform="translate(-51.676 -119.263)" fill="none" stroke="#040506" stroke-miterlimit="10" stroke-width="1"/>
      <path id="Path_118" data-name="Path 118" d="M132.118,176.8a14.22,14.22,0,0,1-4.51-3.794c-.4-.592-.717-1.238-1.078-1.856a13.775,13.775,0,0,0-2.174-2.8" transform="translate(-84.75 -114.73)" fill="none" stroke="#040506" stroke-miterlimit="10" stroke-width="1"/>
      <path id="Path_119" data-name="Path 119" d="M150.783,71.9A41.662,41.662,0,0,1,160.85,88.059a93.077,93.077,0,0,1,4.228,18.7" transform="translate(-102.761 -49.001)" fill="none" stroke="#040506" stroke-miterlimit="10" stroke-width="1"/>
      <path id="Path_120" data-name="Path 120" d="M157.745,97.528a36.5,36.5,0,0,0-6.06-7.612c-1.039-.9-2.149-1.706-3.258-2.515l-2.2-1.606" transform="translate(-99.655 -58.471)" fill="none" stroke="#040506" stroke-miterlimit="10" stroke-width="1"/>
      <path id="Path_121" data-name="Path 121" d="M164.314,132.781c-3.65-3.284-9.42-6.783-12.611-10.514" transform="translate(-103.388 -83.327)" fill="none" stroke="#040506" stroke-miterlimit="10" stroke-width="1"/>
      <path id="Path_122" data-name="Path 122" d="M234.548,77.172c-.628-7.235.024-14.74,3.138-21.3,1.333-2.809,3.107-5.43,4.017-8.4" transform="translate(-159.7 -32.351)" fill="none" stroke="#040506" stroke-miterlimit="10" stroke-width="1"/>
      <path id="Path_123" data-name="Path 123" d="M232.4,80.176a19.855,19.855,0,0,1-1.586-11.414" transform="translate(-157.136 -46.862)" fill="none" stroke="#040506" stroke-miterlimit="10" stroke-width="1"/>
      <path id="Path_124" data-name="Path 124" d="M234.31,101.79q3.465-5.18,6.6-10.572" transform="translate(-159.685 -62.166)" fill="none" stroke="#040506" stroke-miterlimit="10" stroke-width="1"/>
      <path id="Path_125" data-name="Path 125" d="M268.6,42.617A109.008,109.008,0,0,1,311.318,6.669" transform="translate(-183.057 -4.545)" fill="none" stroke="#040506" stroke-miterlimit="10" stroke-width="1"/>
      <path id="Path_126" data-name="Path 126" d="M312.062,26.537a4.889,4.889,0,0,1,1.895-1.906,2.52,2.52,0,0,1,2.584.114,2.658,2.658,0,0,1,.9,2.409,7.168,7.168,0,0,1-.91,2.513,55.087,55.087,0,0,1-2.9,4.92c-.484.732-2.1,3.983-3.02,2.161-.629-1.247-.254-3.84-.113-5.2a11.931,11.931,0,0,1,1.571-5.01" transform="translate(-211.44 -16.582)" fill="#040506"/>
      <path id="Path_127" data-name="Path 127" d="M324.085,60.265a7.316,7.316,0,0,1,2.349.137,3.026,3.026,0,0,1,1.88,1.329,1.776,1.776,0,0,1,.251.849,1.964,1.964,0,0,1-.5,1.254,5.035,5.035,0,0,1-3.592,1.46c-2.7.2-6.684-.355-8.782-2.275-.785-.719-.05-.778.8-1.1a26.463,26.463,0,0,1,2.534-.818,26.111,26.111,0,0,1,5.06-.834" transform="translate(-214.917 -41.049)" fill="#040506"/>
      <path id="Path_128" data-name="Path 128" d="M351.557,7.816a14.325,14.325,0,0,1,.4-3.849A6.112,6.112,0,0,1,353.991.736a2.541,2.541,0,0,1,1.92-.615,2.182,2.182,0,0,1,1.565,1.387,4.37,4.37,0,0,1,.182,2.154,10.029,10.029,0,0,1-2.935,5.767c-.445.446-1.81,1.935-2.506,1.677-.83-.307-.659-2.609-.659-3.291" transform="translate(-239.581 -0.066)" fill="#040506"/>
      <path id="Path_129" data-name="Path 129" d="M350.733,33.815a5.857,5.857,0,0,1,2.95.291,2.547,2.547,0,0,1,1.619,2.306,2.54,2.54,0,0,1-1.554,2.049,5.912,5.912,0,0,1-2.65.4c-1.367-.039-6.022-.462-6.179-2.372-.17-2.074,4.518-2.541,5.814-2.672" transform="translate(-235.063 -23.005)" fill="#040506"/>
      <path id="Path_130" data-name="Path 130" d="M396.678,4.144A2.374,2.374,0,1,1,394.3,1.77a2.374,2.374,0,0,1,2.374,2.374" transform="translate(-267.105 -1.206)" fill="#040506"/>
      <path id="Path_131" data-name="Path 131" d="M49.846,224.447a109.008,109.008,0,0,1-45.956,31.7" transform="translate(-2.651 -152.964)" fill="none" stroke="#040506" stroke-miterlimit="10" stroke-width="1"/>
      <path id="Path_132" data-name="Path 132" d="M81.166,285.038a4.891,4.891,0,0,1-2.068,1.716,2.52,2.52,0,0,1-2.561-.361,2.659,2.659,0,0,1-.661-2.484,7.169,7.169,0,0,1,1.146-2.414,55.066,55.066,0,0,1,3.359-4.62c.552-.682,2.473-3.764,3.213-1.862.506,1.3-.114,3.847-.385,5.188a11.932,11.932,0,0,1-2.043,4.837" transform="translate(-51.665 -187.009)" fill="#040506"/>
      <path id="Path_133" data-name="Path 133" d="M59.619,265.491a7.316,7.316,0,0,1-2.325-.361,3.027,3.027,0,0,1-1.744-1.5,1.781,1.781,0,0,1-.169-.87,1.965,1.965,0,0,1,.622-1.2,5.035,5.035,0,0,1,3.715-1.11c2.7.063,6.62.993,8.524,3.1.712.79-.025.779-.906,1.02a26.466,26.466,0,0,1-2.6.572,26.138,26.138,0,0,1-5.117.346" transform="translate(-37.74 -177.497)" fill="#040506"/>
      <path id="Path_134" data-name="Path 134" d="M42.31,304.029a14.33,14.33,0,0,1-.771,3.792,6.113,6.113,0,0,1-2.329,3.023,2.54,2.54,0,0,1-1.97.428,2.181,2.181,0,0,1-1.425-1.53,4.371,4.371,0,0,1,.025-2.162,10.031,10.031,0,0,1,3.473-5.461c.486-.4,1.986-1.753,2.655-1.43.8.385.407,2.66.342,3.339" transform="translate(-24.323 -204.891)" fill="#040506"/>
      <path id="Path_135" data-name="Path 135" d="M36.608,289.608a5.857,5.857,0,0,1-2.908-.572,2.287,2.287,0,0,1,.352-4.342,5.915,5.915,0,0,1,2.676-.143c1.357.169,5.95,1.035,5.924,2.952-.029,2.081-4.74,2.1-6.043,2.1" transform="translate(-22.004 -193.868)" fill="#040506"/>
      <path id="Path_136" data-name="Path 136" d="M.011,316.442a2.374,2.374,0,1,1,2.136,2.59,2.374,2.374,0,0,1-2.136-2.59" transform="translate(0 -214.196)" fill="#040506"/>
      <path id="Path_137" data-name="Path 137" d="M617.427,600.312c3.7,3.906,7.539,8.306,7.922,13.67-9.038-.747-18.2-2.5-26.047-7.039-5.776-3.34-18.191-13.481-7.482-18.756,9.333-4.6,19.844,6.037,25.606,12.126" transform="translate(-400.464 -400.093)" fill="#ffb614"/>
      <path id="Path_138" data-name="Path 138" d="M617.427,600.312c3.7,3.906,7.539,8.306,7.922,13.67-9.038-.747-18.2-2.5-26.047-7.039-5.776-3.34-18.191-13.481-7.482-18.756C601.154,583.589,611.664,594.224,617.427,600.312Z" transform="translate(-400.464 -400.093)" fill="none" stroke="#161615" stroke-miterlimit="10" stroke-width="1"/>
      <path id="Path_139" data-name="Path 139" d="M487.073,673.589a63.2,63.2,0,0,1-11.105,7.5c-.836-5.672-1.674-11.385-1.43-17.114s1.643-11.539,4.926-16.239c2.714-3.886,7.293-7.851,11.919-9.249,5.363-1.621,5.539,4.72,5.842,9.039a32.486,32.486,0,0,1-10.152,26.067" transform="translate(-323.374 -434.958)" fill="#ffb614"/>
      <path id="Path_140" data-name="Path 140" d="M487.073,673.589a63.2,63.2,0,0,1-11.105,7.5c-.836-5.672-1.674-11.385-1.43-17.114s1.643-11.539,4.926-16.239c2.714-3.886,7.293-7.851,11.919-9.249,5.363-1.621,5.539,4.72,5.842,9.039A32.486,32.486,0,0,1,487.073,673.589Z" transform="translate(-323.374 -434.958)" fill="none" stroke="#161615" stroke-miterlimit="10" stroke-width="1"/>
      <path id="Path_141" data-name="Path 141" d="M561.543,612.484a19.746,19.746,0,0,1,5,6.158c2.439,5.224.906,11.348-.664,16.9l-5.672,20.051c-.359,1.268-.979,2.772-2.288,2.927a3.041,3.041,0,0,1-2.02-.726c-3.95-2.784-6.192-7.337-8.276-11.7l-5.638-11.8c-1.963-4.107-3.964-8.365-4.1-12.915-.15-4.919,2.748-14.339,8.146-16.044,5.024-1.586,12.168,4.164,15.515,7.147" transform="translate(-366.569 -412.36)" fill="#ffb614"/>
      <path id="Path_142" data-name="Path 142" d="M561.543,612.484a19.746,19.746,0,0,1,5,6.158c2.439,5.224.906,11.348-.664,16.9l-5.672,20.051c-.359,1.268-.979,2.772-2.288,2.927a3.041,3.041,0,0,1-2.02-.726c-3.95-2.784-6.192-7.337-8.276-11.7l-5.638-11.8c-1.963-4.107-3.964-8.365-4.1-12.915-.15-4.919,2.748-14.339,8.146-16.044C551.051,603.75,558.2,609.5,561.543,612.484Z" transform="translate(-366.569 -412.36)" fill="none" stroke="#161615" stroke-miterlimit="10" stroke-width="1"/>
      <path id="Path_143" data-name="Path 143" d="M621.73,622.843a77.443,77.443,0,0,0-23.568-16.412" transform="translate(-407.655 -413.291)" fill="none" stroke="#040506" stroke-miterlimit="10" stroke-width="1"/>
      <path id="Path_144" data-name="Path 144" d="M660.771,639.909a18.44,18.44,0,0,1-5.922-1.937,21.408,21.408,0,0,0-2.736-1.616,24.594,24.594,0,0,0-3.836-.793c-.135-.03-.209-.29-.085-.226" transform="translate(-441.708 -432.984)" fill="none" stroke="#040506" stroke-miterlimit="10" stroke-width="1"/>
      <path id="Path_145" data-name="Path 145" d="M619.394,617.653a14.218,14.218,0,0,1,3.794,4.51c.3.652.494,1.342.745,2.012a13.756,13.756,0,0,0,1.662,3.134" transform="translate(-422.125 -420.939)" fill="none" stroke="#040506" stroke-miterlimit="10" stroke-width="1"/>
      <path id="Path_146" data-name="Path 146" d="M578.759,659.749a41.662,41.662,0,0,1-7.157-17.641,93.045,93.045,0,0,1-.969-19.151" transform="translate(-388.832 -424.553)" fill="none" stroke="#040506" stroke-miterlimit="10" stroke-width="1"/>
      <path id="Path_147" data-name="Path 147" d="M573.87,683.087a36.517,36.517,0,0,0,4.669,8.535c.87,1.061,1.826,2.049,2.78,3.035l1.894,1.958" transform="translate(-391.1 -465.533)" fill="none" stroke="#040506" stroke-miterlimit="10" stroke-width="1"/>
      <path id="Path_148" data-name="Path 148" d="M570.677,649.4c3.035,3.859,8.122,8.294,10.628,12.516" transform="translate(-388.924 -442.573)" fill="none" stroke="#040506" stroke-miterlimit="10" stroke-width="1"/>
      <path id="Path_149" data-name="Path 149" d="M499.172,656.261c-.618,7.235-2.543,14.518-6.733,20.45-1.794,2.539-3.989,4.819-5.394,7.592" transform="translate(-331.928 -447.251)" fill="none" stroke="#040506" stroke-miterlimit="10" stroke-width="1"/>
      <path id="Path_150" data-name="Path 150" d="M516.83,691.638a19.855,19.855,0,0,1-.389,11.517" transform="translate(-351.961 -471.36)" fill="none" stroke="#040506" stroke-miterlimit="10" stroke-width="1"/>
      <path id="Path_151" data-name="Path 151" d="M505.246,672.459q-4.3,4.511-8.307,9.288" transform="translate(-338.67 -458.29)" fill="none" stroke="#040506" stroke-miterlimit="10" stroke-width="1"/>
      <path id="Path_152" data-name="Path 152" d="M385.192,671.4a109.011,109.011,0,0,1-48.231,28.116" transform="translate(-229.643 -457.567)" fill="none" stroke="#040506" stroke-miterlimit="10" stroke-width="1"/>
      <path id="Path_153" data-name="Path 153" d="M415.3,727.877a4.886,4.886,0,0,1-2.192,1.554,2.521,2.521,0,0,1-2.527-.554,2.658,2.658,0,0,1-.471-2.527,7.168,7.168,0,0,1,1.326-2.32,55.137,55.137,0,0,1,3.7-4.352c.6-.638,2.752-3.565,3.345-1.612.406,1.335-.406,3.827-.778,5.143a11.926,11.926,0,0,1-2.4,4.668" transform="translate(-279.413 -488.92)" fill="#040506"/>
      <path id="Path_154" data-name="Path 154" d="M396.567,706.205a7.32,7.32,0,0,1-2.291-.536,3.027,3.027,0,0,1-1.625-1.631,1.782,1.782,0,0,1-.1-.88,1.965,1.965,0,0,1,.711-1.149,5.033,5.033,0,0,1,3.789-.825c2.691.268,6.526,1.493,8.264,3.743.65.842-.084.775-.981.948a26.468,26.468,0,0,1-2.636.373,26.153,26.153,0,0,1-5.129-.043" transform="translate(-267.515 -477.834)" fill="#040506"/>
      <path id="Path_155" data-name="Path 155" d="M375.436,743.686a14.331,14.331,0,0,1-1.057,3.723,6.113,6.113,0,0,1-2.551,2.837,2.539,2.539,0,0,1-2,.277,2.182,2.182,0,0,1-1.3-1.634,4.377,4.377,0,0,1,.189-2.154,10.029,10.029,0,0,1,3.878-5.181c.515-.363,2.114-1.6,2.756-1.224.765.444.2,2.683.087,3.355" transform="translate(-251.11 -504.498)" fill="#040506"/>
      <path id="Path_156" data-name="Path 156" d="M371.795,728.388a5.856,5.856,0,0,1-2.856-.791,2.287,2.287,0,0,1,.68-4.3,5.91,5.91,0,0,1,2.679.061c1.341.272,5.854,1.484,5.682,3.393-.187,2.073-4.886,1.731-6.186,1.639" transform="translate(-250.586 -492.846)" fill="#040506"/>
      <path id="Path_157" data-name="Path 157" d="M333.265,752.244a2.374,2.374,0,1,1,1.933,2.745,2.374,2.374,0,0,1-1.933-2.745" transform="translate(-227.101 -511.322)" fill="#040506"/>
      <path id="Path_158" data-name="Path 158" d="M624.982,538.6a109.007,109.007,0,0,1,50.7-23.375" transform="translate(-425.933 -351.135)" fill="none" stroke="#040506" stroke-miterlimit="10" stroke-width="1"/>
      <path id="Path_159" data-name="Path 159" d="M685.088,513.019a4.889,4.889,0,0,1,2.331-1.337,2.521,2.521,0,0,1,2.462.793,2.659,2.659,0,0,1,.227,2.56,7.156,7.156,0,0,1-1.542,2.183,55.072,55.072,0,0,1-4.1,3.978c-.66.577-3.08,3.286-3.484,1.285-.276-1.369.77-3.771,1.266-5.046a11.932,11.932,0,0,1,2.84-4.417" transform="translate(-464.067 -348.681)" fill="#040506"/>
      <path id="Path_160" data-name="Path 160" d="M692.843,549.991a7.321,7.321,0,0,1,2.229.753,3.026,3.026,0,0,1,1.462,1.778,1.784,1.784,0,0,1,.018.886,1.964,1.964,0,0,1-.818,1.076,5.033,5.033,0,0,1-3.85.459c-2.653-.525-6.352-2.11-7.868-4.516-.567-.9.157-.763,1.067-.85a26.468,26.468,0,0,1,2.66-.119,26.116,26.116,0,0,1,5.1.533" transform="translate(-466.029 -374.463)" fill="#040506"/>
      <path id="Path_161" data-name="Path 161" d="M729.038,504.96a14.318,14.318,0,0,1,1.408-3.6,6.115,6.115,0,0,1,2.811-2.58,2.54,2.54,0,0,1,2.015-.085,2.183,2.183,0,0,1,1.143,1.751,4.376,4.376,0,0,1-.394,2.126,10.03,10.03,0,0,1-4.356,4.786c-.547.312-2.257,1.387-2.86.955-.719-.516.054-2.69.234-3.348" transform="translate(-496.485 -339.746)" fill="#040506"/>
      <path id="Path_162" data-name="Path 162" d="M725.274,530.369a5.86,5.86,0,0,1,2.768,1.06,2.287,2.287,0,0,1-1.089,4.218,5.91,5.91,0,0,1-2.661-.317c-1.309-.4-5.686-2.037-5.332-3.922.384-2.045,5.029-1.256,6.314-1.04" transform="translate(-489.967 -361.228)" fill="#040506"/>
      <path id="Path_163" data-name="Path 163" d="M777.483,512.357a2.374,2.374,0,1,1-1.662-2.917,2.374,2.374,0,0,1,1.662,2.917" transform="translate(-526.686 -347.132)" fill="#040506"/>
      <path id="Path_164" data-name="Path 164" d="M309.891,172.532A93.394,93.394,0,1,1,216.5,79.138a93.394,93.394,0,0,1,93.394,93.394" transform="translate(-83.896 -53.934)" fill="#fff"/>
      <circle id="Ellipse_4" data-name="Ellipse 4" cx="93.394" cy="93.394" r="93.394" transform="translate(39.207 25.204)" fill="none" stroke="#161615" stroke-miterlimit="10" stroke-width="1"/>
      <path id="Path_165" data-name="Path 165" d="M156.358,126.347c-4.118,6.826,5.694,12.985,11.979,17.888s13.465,9.755,15.86,17.359c1.31,4.158,1.143,9.034,4.058,12.276,1.45,1.612,3.5,2.591,4.946,4.207,4.7,5.247,1.141,14.385,5.323,20.053,1.744,2.364,4.538,3.672,6.818,5.526a24.831,24.831,0,0,1,5.38,6.491,41.658,41.658,0,0,1,4.821,12.095l2.861,12.2a57.034,57.034,0,0,1,1.781,10.5c.148,3.428-.322,6.892.218,10.281a10.662,10.662,0,0,0,3.676,6.344,1.273,1.273,0,0,0,2.059-1.2,25.69,25.69,0,0,1,1.281-12.644c2.236-6.062,6.684-11.058,9.367-16.936,2.1-4.61,3.082-9.674,5.21-14.273,3.651-7.891,10.638-14.358,12.081-22.933a4.116,4.116,0,0,0-.376-3.075c-.674-.948-1.939-1.238-2.869-1.936-2.939-2.207-1.443-7.145-3.5-10.192-1.486-2.2-4.439-2.84-7.1-2.874s-5.406.338-7.9-.569c-1.649-.6-3.058-1.716-4.645-2.464-5.234-2.469-11.386-.626-16.863,1.243l-7.262,2.477a7.543,7.543,0,0,1-3.5.6c-2.493-.377-3.89-3-4.9-5.312l-1.674-3.833-5.415-12.4a12.619,12.619,0,0,1-1.12-5.951c.654-8.816,10.451-6.291,13.88-11.4,2.427-3.618.077-8.636,1.343-12.805,1.608-5.292,8.251-7.332,11.014-12.123,1.231-2.134,1.588-4.647,2.44-6.959s2.484-4.629,4.908-5.07c1.615-.294,3.238.3,4.835.683a18.632,18.632,0,0,0,15.006-2.987c2.137-1.545,3.974-3.57,6.4-4.615,4.425-1.91,9.7-.118,14.268-1.655a10.432,10.432,0,0,0,6.9-8.773c.037-.424.485-.452.071-.548s-.119-.075-.582.045c0,0-68.058-28.046-111.072,43.252" transform="translate(-105.893 -52.924)" fill="#ffb614"/>
      <path id="Path_166" data-name="Path 166" d="M156.358,126.347c-4.118,6.826,5.694,12.985,11.979,17.888s13.465,9.755,15.86,17.359c1.31,4.158,1.143,9.034,4.058,12.276,1.45,1.612,3.5,2.591,4.946,4.207,4.7,5.247,1.141,14.385,5.323,20.053,1.744,2.364,4.538,3.672,6.818,5.526a24.831,24.831,0,0,1,5.38,6.491,41.658,41.658,0,0,1,4.821,12.095l2.861,12.2a57.034,57.034,0,0,1,1.781,10.5c.148,3.428-.322,6.892.218,10.281a10.662,10.662,0,0,0,3.676,6.344,1.273,1.273,0,0,0,2.059-1.2,25.69,25.69,0,0,1,1.281-12.644c2.236-6.062,6.684-11.058,9.367-16.936,2.1-4.61,3.082-9.674,5.21-14.273,3.651-7.891,10.638-14.358,12.081-22.933a4.116,4.116,0,0,0-.376-3.075c-.674-.948-1.939-1.238-2.869-1.936-2.939-2.207-1.443-7.145-3.5-10.192-1.486-2.2-4.439-2.84-7.1-2.874s-5.406.338-7.9-.569c-1.649-.6-3.058-1.716-4.645-2.464-5.234-2.469-11.386-.626-16.863,1.243l-7.262,2.477a7.543,7.543,0,0,1-3.5.6c-2.493-.377-3.89-3-4.9-5.312l-1.674-3.833-5.415-12.4a12.619,12.619,0,0,1-1.12-5.951c.654-8.816,10.451-6.291,13.88-11.4,2.427-3.618.077-8.636,1.343-12.805,1.608-5.292,8.251-7.332,11.014-12.123,1.231-2.134,1.588-4.647,2.44-6.959s2.484-4.629,4.908-5.07c1.615-.294,3.238.3,4.835.683a18.632,18.632,0,0,0,15.006-2.987c2.137-1.545,3.974-3.57,6.4-4.615,4.425-1.91,9.7-.118,14.268-1.655a10.432,10.432,0,0,0,6.9-8.773c.037-.424.485-.452.071-.548s-.119-.075-.582.045C267.43,83.094,199.371,55.048,156.358,126.347Z" transform="translate(-105.893 -52.924)" fill="none" stroke="#161615" stroke-miterlimit="10" stroke-width="1"/>
      <path id="Path_167" data-name="Path 167" d="M581.1,312.758c-2.21,2.17,1.517-5.894-.691-8.067s-5.263-3.557-6.812-6.239c-1.538-2.662-1.359-6.254-3.536-8.424-2.033-2.027-5.257-1.987-8.124-2.139-4.211-.224-8.507-1.21-11.913-3.7s-5.76-6.681-5.229-10.864a8.164,8.164,0,0,0,.15-3.44c-.484-1.543-2.111-2.36-3.285-3.472-3.841-3.638-2.808-10.52-6.628-14.179-.949-.909-2.287-1.962-1.857-3.2.194-.561.9-.756,1.205-1.266,3.1-5.224,7.873-7.613,15.581-10.6,3.15-1.222,6.1-3.892,9.337-2.925,2.34.7,4.056,2.83,6.412,3.47,4.709,1.279,10.536-3.622,14.1-.286,0,0,9.37,13.82,9.491,40.044,0,0-.037,27.278-8.2,35.292" transform="translate(-363.309 -159.496)" fill="#ffb614"/>
      <path id="Path_168" data-name="Path 168" d="M581.1,312.758c-2.21,2.17,1.517-5.894-.691-8.067s-5.263-3.557-6.812-6.239c-1.538-2.662-1.359-6.254-3.536-8.424-2.033-2.027-5.257-1.987-8.124-2.139-4.211-.224-8.507-1.21-11.913-3.7s-5.76-6.681-5.229-10.864a8.164,8.164,0,0,0,.15-3.44c-.484-1.543-2.111-2.36-3.285-3.472-3.841-3.638-2.808-10.52-6.628-14.179-.949-.909-2.287-1.962-1.857-3.2.194-.561.9-.756,1.205-1.266,3.1-5.224,7.873-7.613,15.581-10.6,3.15-1.222,6.1-3.892,9.337-2.925,2.34.7,4.056,2.83,6.412,3.47,4.709,1.279,10.536-3.622,14.1-.286,0,0,9.37,13.82,9.491,40.044C589.3,277.466,589.263,304.744,581.1,312.758Z" transform="translate(-363.309 -159.496)" fill="none" stroke="#161615" stroke-miterlimit="10" stroke-width="1"/>
      <path id="Path_169" data-name="Path 169" d="M535.089,123.952c-1.4-.859-2.453,3.306-2.733,4.924a47.359,47.359,0,0,1-.624,4.882c-1.122,3.965-5.219,6.139-8.665,8.4a2.563,2.563,0,0,0-1.137,1.185c-.459,1.341,1.258,2.34,1.892,3.608.846,1.691-.391,3.7-1.843,4.912s-3.247,2.18-4.043,3.9c-1.171,2.523.517,5.682,3.02,6.9s5.486.9,8.15.1c3.7-1.111,7.357-3.371,8.718-6.983.641-1.7.73-3.6,1.556-5.217a6.489,6.489,0,0,1,7.2-3.228,31.465,31.465,0,0,1,3.561,1.506,4.572,4.572,0,0,0,3.749.123c1.144-.6,1.728-2.293.845-3.235a11.743,11.743,0,0,0-1.514-1c-1.969-1.534-.433-4.723-1.041-7.145a101.293,101.293,0,0,0-17.092-13.62" transform="translate(-352.722 -84.396)" fill="#ffb614"/>
      <path id="Path_170" data-name="Path 170" d="M535.089,123.952c-1.4-.859-2.453,3.306-2.733,4.924a47.359,47.359,0,0,1-.624,4.882c-1.122,3.965-5.219,6.139-8.665,8.4a2.563,2.563,0,0,0-1.137,1.185c-.459,1.341,1.258,2.34,1.892,3.608.846,1.691-.391,3.7-1.843,4.912s-3.247,2.18-4.043,3.9c-1.171,2.523.517,5.682,3.02,6.9s5.486.9,8.15.1c3.7-1.111,7.357-3.371,8.718-6.983.641-1.7.73-3.6,1.556-5.217a6.489,6.489,0,0,1,7.2-3.228,31.465,31.465,0,0,1,3.561,1.506,4.572,4.572,0,0,0,3.749.123c1.144-.6,1.728-2.293.845-3.235a11.743,11.743,0,0,0-1.514-1c-1.969-1.534-.433-4.723-1.041-7.145A101.293,101.293,0,0,0,535.089,123.952Z" transform="translate(-352.722 -84.396)" fill="none" stroke="#161615" stroke-miterlimit="10" stroke-width="1"/>
    </g>
  </g>
  <path id="Path_171" data-name="Path 171" d="M519.276,548.711V578.5l-4.4,1.787V548.581" transform="translate(-350.891 -373.865)" fill="#fff"/>
  <path id="Path_172" data-name="Path 172" d="M519.276,548.711V578.5l-4.4,1.787V548.581" transform="translate(-350.891 -373.865)" fill="none" stroke="#161615" stroke-miterlimit="10" stroke-width="1"/>
  <path id="Path_173" data-name="Path 173" d="M509.1,447.469H496.727l-.122-8.5-2.293-5.194V413.383h16.676l-.007,20.812-1.881,4.933Z" transform="translate(-336.88 -281.726)" fill="#fff"/>
  <path id="Path_174" data-name="Path 174" d="M509.1,447.469H496.727l-.122-8.5-2.293-5.194V413.383h16.676l-.007,20.812-1.881,4.933Z" transform="translate(-336.88 -281.726)" fill="none" stroke="#161615" stroke-miterlimit="10" stroke-width="1"/>
  <path id="Path_175" data-name="Path 175" d="M514.871,526.68v-1.588h4.4v2.18" transform="translate(-350.891 -357.858)" fill="#fff"/>
  <path id="Path_176" data-name="Path 176" d="M514.871,526.68v-1.588h4.4v2.18" transform="translate(-350.891 -357.858)" fill="none" stroke="#161615" stroke-miterlimit="10" stroke-width="1"/>
  <g id="Group_31" data-name="Group 31">
    <g id="Group_30" data-name="Group 30" clip-path="url(#clip-path)">
      <path id="Path_177" data-name="Path 177" d="M510.044,440.787h-17.22a.216.216,0,0,1,0-.432h17.22a.216.216,0,1,1,0,.432" transform="translate(-335.719 -300.108)" fill="#161615"/>
      <path id="Path_178" data-name="Path 178" d="M510.044,444.158h-17.22a.216.216,0,0,1,0-.432h17.22a.216.216,0,1,1,0,.432" transform="translate(-335.719 -302.405)" fill="#161615"/>
      <path id="Path_179" data-name="Path 179" d="M510.044,448.373h-17.22a.216.216,0,0,1,0-.432h17.22a.216.216,0,1,1,0,.432" transform="translate(-335.719 -305.278)" fill="#161615"/>
      <path id="Path_180" data-name="Path 180" d="M510.044,452.227h-17.22a.216.216,0,0,1,0-.432h17.22a.216.216,0,1,1,0,.432" transform="translate(-335.719 -307.904)" fill="#161615"/>
      <path id="Path_181" data-name="Path 181" d="M510.044,455.719h-17.22a.216.216,0,0,1,0-.432h17.22a.216.216,0,1,1,0,.432" transform="translate(-335.719 -310.284)" fill="#161615"/>
      <path id="Path_182" data-name="Path 182" d="M510.044,459.693h-17.22a.216.216,0,0,1,0-.432h17.22a.216.216,0,1,1,0,.432" transform="translate(-335.719 -312.992)" fill="#161615"/>
      <path id="Path_183" data-name="Path 183" d="M513.145,375.573H500.766V357.587h2.748v7.03l2.964-1.543v1.479l3.334-1.79v1.849l3.334-1.852Z" transform="translate(-341.279 -243.7)" fill="#fff"/>
      <path id="Path_184" data-name="Path 184" d="M513.145,375.573H500.766V357.587h2.748v7.03l2.964-1.543v1.479l3.334-1.79v1.849l3.334-1.852Z" transform="translate(-341.279 -243.7)" fill="none" stroke="#161615" stroke-miterlimit="10" stroke-width="1"/>
      <rect id="Rectangle_20" data-name="Rectangle 20" width="2.933" height="2.192" transform="translate(161.216 124.506)" fill="#161615"/>
      <rect id="Rectangle_21" data-name="Rectangle 21" width="2.933" height="2.192" transform="translate(167.391 124.506)" fill="#161615"/>
      <path id="Path_185" data-name="Path 185" d="M422.078,254.87c-.022,0-.044,0-.066,0-.233-.02-.661-.173-.895-.973a3.211,3.211,0,0,1-.07-1.351c.084-.6-.158-1.543-.817-1.669-.05-.009-.1-.014-.152-.019a.988.988,0,0,1-.329-.07c-.327-.147-.447-.533-.352-1.118l-3.252-1.236a2.189,2.189,0,0,1-.9-.526,2.464,2.464,0,0,1-.262-.384c-.14-.235-.272-.457-.5-.517a.979.979,0,0,0-.494.053c-.063.017-.126.035-.189.048a1.722,1.722,0,0,1-1.9-1c-.025-.061-.047-.124-.069-.187a.72.72,0,0,0-.727-.62,2.554,2.554,0,0,1-.294-.068c-1.009-.32-1.179-1.691-1.228-2.286a7.093,7.093,0,0,1-3.068-.011,2.91,2.91,0,0,1-1.716-1.346,1.926,1.926,0,0,1-.163-1.5.863.863,0,0,0-.034-.639c-.215-.425-.5-.369-.854-.3-.339.066-.724.14-1.006-.285a1.147,1.147,0,0,1-.188-.608c-.034-1.285-1.3-1.585-2.531-1.874-.17-.04-.337-.079-.5-.121-2.818-.729-4.245-3.367-3.8-5.324a3.049,3.049,0,0,0-.515-.185,1.891,1.891,0,0,1-1.433-1.623,4.029,4.029,0,0,1-4.839-3.8,5.306,5.306,0,0,1-4.256-.262,2.351,2.351,0,0,1-1.117-2.155c.1-1.126,1.036-1.637,1.941-2.132.808-.441,1.571-.858,1.613-1.677a2.746,2.746,0,0,0-.9-1.741c-.571-.676-1.161-1.375-.772-2.239a1.687,1.687,0,0,1,.781-.788,8.656,8.656,0,0,1,3.465-.932,3.134,3.134,0,0,0,.411-1.893,3.931,3.931,0,0,1,.333-1.87,3.1,3.1,0,0,1,3.172-1.161c.443.061.886.169,1.313.272a8.248,8.248,0,0,0,2.076.318,2.782,2.782,0,0,0,1.955-.85,4.253,4.253,0,0,1,3.639-1.547,6.559,6.559,0,0,1,4.854,2.914,2.5,2.5,0,0,0,1.537-.384,5.245,5.245,0,0,1,.948-.38c1.524-.387,3.034.808,3.681,2.13a11.1,11.1,0,0,1,.835,3.223c.057.372.117.756.188,1.129a1.526,1.526,0,0,0,.478,1,1.591,1.591,0,0,0,.7.216c.1.015.2.03.3.051a3.189,3.189,0,0,1,2.229,3.155,7.911,7.911,0,0,1-1.275,3.831,2.158,2.158,0,0,0-.415,1.844,2.118,2.118,0,0,0,.844.806,1.611,1.611,0,0,1,.947,2.023,1.392,1.392,0,0,0,1,1.835c.151.083.307.169.451.263a3.014,3.014,0,0,1,1.06,3.631c-.021.047-.044.095-.067.142a1.175,1.175,0,0,0-.176.645c.051.355.413.523.8.7a1.749,1.749,0,0,1,.922.7,1.673,1.673,0,0,1-.22,1.447c-.215.465-.418.9-.186,1.266a1.328,1.328,0,0,0,.367.335c.063.044.125.089.184.136a2.314,2.314,0,0,1,.57,2.566,4.027,4.027,0,0,1-1.715,1.921,2.913,2.913,0,0,1-.009,3.453l-.066.083c-.194.24-.362.448-.173.785a.965.965,0,0,0,.708.473,1.926,1.926,0,0,1,1.573,1.481,2.158,2.158,0,0,1-.531,2.176,1.669,1.669,0,0,1,.2,1.815,1.278,1.278,0,0,1-1.052.789" transform="translate(-261.395 -140.834)" fill="#fff"/>
      <path id="Path_186" data-name="Path 186" d="M422.078,254.87c-.022,0-.044,0-.066,0-.233-.02-.661-.173-.895-.973a3.211,3.211,0,0,1-.07-1.351c.084-.6-.158-1.543-.817-1.669-.05-.009-.1-.014-.152-.019a.988.988,0,0,1-.329-.07c-.327-.147-.447-.533-.352-1.118l-3.252-1.236a2.189,2.189,0,0,1-.9-.526,2.464,2.464,0,0,1-.262-.384c-.14-.235-.272-.457-.5-.517a.979.979,0,0,0-.494.053c-.063.017-.126.035-.189.048a1.722,1.722,0,0,1-1.9-1c-.025-.061-.047-.124-.069-.187a.72.72,0,0,0-.727-.62,2.554,2.554,0,0,1-.294-.068c-1.009-.32-1.179-1.691-1.228-2.286a7.093,7.093,0,0,1-3.068-.011,2.91,2.91,0,0,1-1.716-1.346,1.926,1.926,0,0,1-.163-1.5.863.863,0,0,0-.034-.639c-.215-.425-.5-.369-.854-.3-.339.066-.724.14-1.006-.285a1.147,1.147,0,0,1-.188-.608c-.034-1.285-1.3-1.585-2.531-1.874-.17-.04-.337-.079-.5-.121-2.818-.729-4.245-3.367-3.8-5.324a3.049,3.049,0,0,0-.515-.185,1.891,1.891,0,0,1-1.433-1.623,4.029,4.029,0,0,1-4.839-3.8,5.306,5.306,0,0,1-4.256-.262,2.351,2.351,0,0,1-1.117-2.155c.1-1.126,1.036-1.637,1.941-2.132.808-.441,1.571-.858,1.613-1.677a2.746,2.746,0,0,0-.9-1.741c-.571-.676-1.161-1.375-.772-2.239a1.687,1.687,0,0,1,.781-.788,8.656,8.656,0,0,1,3.465-.932,3.134,3.134,0,0,0,.411-1.893,3.931,3.931,0,0,1,.333-1.87,3.1,3.1,0,0,1,3.172-1.161c.443.061.886.169,1.313.272a8.248,8.248,0,0,0,2.076.318,2.782,2.782,0,0,0,1.955-.85,4.253,4.253,0,0,1,3.639-1.547,6.559,6.559,0,0,1,4.854,2.914,2.5,2.5,0,0,0,1.537-.384,5.245,5.245,0,0,1,.948-.38c1.524-.387,3.034.808,3.681,2.13a11.1,11.1,0,0,1,.835,3.223c.057.372.117.756.188,1.129a1.526,1.526,0,0,0,.478,1,1.591,1.591,0,0,0,.7.216c.1.015.2.03.3.051a3.189,3.189,0,0,1,2.229,3.155,7.911,7.911,0,0,1-1.275,3.831,2.158,2.158,0,0,0-.415,1.844,2.118,2.118,0,0,0,.844.806,1.611,1.611,0,0,1,.947,2.023,1.392,1.392,0,0,0,1,1.835c.151.083.307.169.451.263a3.014,3.014,0,0,1,1.06,3.631c-.021.047-.044.095-.067.142a1.175,1.175,0,0,0-.176.645c.051.355.413.523.8.7a1.749,1.749,0,0,1,.922.7,1.673,1.673,0,0,1-.22,1.447c-.215.465-.418.9-.186,1.266a1.328,1.328,0,0,0,.367.335c.063.044.125.089.184.136a2.314,2.314,0,0,1,.57,2.566,4.027,4.027,0,0,1-1.715,1.921,2.913,2.913,0,0,1-.009,3.453l-.066.083c-.194.24-.362.448-.173.785a.965.965,0,0,0,.708.473,1.926,1.926,0,0,1,1.573,1.481,2.158,2.158,0,0,1-.531,2.176,1.669,1.669,0,0,1,.2,1.815A1.278,1.278,0,0,1,422.078,254.87Z" transform="translate(-261.395 -140.834)" fill="none" stroke="#161615" stroke-miterlimit="10" stroke-width="1"/>
      <rect id="Rectangle_22" data-name="Rectangle 22" width="8.147" height="1.665" transform="translate(162.109 165.57)" fill="#fff"/>
      <rect id="Rectangle_23" data-name="Rectangle 23" width="8.147" height="1.665" transform="translate(162.109 165.57)" fill="none" stroke="#161615" stroke-miterlimit="10" stroke-width="1"/>
      <path id="Path_187" data-name="Path 187" d="M515.428,528.712h1.945v3.557h-7.744v-3.557h1.942" transform="translate(-347.319 -360.324)" fill="#fff"/>
      <path id="Path_188" data-name="Path 188" d="M515.428,528.712h1.945v3.557h-7.744v-3.557h1.942" transform="translate(-347.319 -360.324)" fill="none" stroke="#161615" stroke-miterlimit="10" stroke-width="1"/>
      <rect id="Rectangle_24" data-name="Rectangle 24" width="7.745" height="1.907" transform="translate(162.31 172.977)" fill="#fff"/>
      <rect id="Rectangle_25" data-name="Rectangle 25" width="7.745" height="1.907" transform="translate(162.31 172.977)" fill="none" stroke="#161615" stroke-miterlimit="10" stroke-width="1"/>
      <line id="Line_7" data-name="Line 7" y1="1.032" transform="translate(163.98 172.123)" fill="#fff"/>
      <line id="Line_8" data-name="Line 8" y1="1.032" transform="translate(163.98 172.123)" fill="none" stroke="#161615" stroke-miterlimit="10" stroke-width="1"/>
      <line id="Line_9" data-name="Line 9" y1="1.032" transform="translate(168.385 171.945)" fill="#fff"/>
      <line id="Line_10" data-name="Line 10" y1="1.032" transform="translate(168.385 171.945)" fill="none" stroke="#161615" stroke-miterlimit="10" stroke-width="1"/>
    </g>
  </g>
</svg>
