<svg xmlns="http://www.w3.org/2000/svg" width="137.288" height="137.288" viewBox="0 0 137.288 137.288">
  <g id="Group_139" data-name="Group 139" transform="translate(-3941.477 -1815.619)">
    <path id="Path_191" data-name="Path 191" d="M132.788,66.644A66.144,66.144,0,1,1,66.644.5a66.144,66.144,0,0,1,66.144,66.144" transform="translate(3943.477 1817.619)" fill="none" stroke="#fff" stroke-width="5"/>
    <circle id="Ellipse_5" data-name="Ellipse 5" cx="66.144" cy="66.144" r="66.144" transform="translate(3943.977 1818.119)" fill="none" stroke="#fff" stroke-miterlimit="10" stroke-width="1"/>
    <path id="Path_192" data-name="Path 192" d="M77.576,80.421l-.315-.157L66.674,93.5l10.578,13.183.348-.137v-4.871h1.734c4.906,0,9.812-.027,14.717.011a6.565,6.565,0,0,0,6.251-3.557c2.43-4.308,4.929-8.577,7.4-12.864.4-.7.79-1.4,1.185-2.106-1.638,1.859-3.712,2.168-6.006,2.152-7.884-.057-15.768-.022-23.652-.022h-1.65ZM50,72.817c-.213-.667-.288-.955-.4-1.231-1.778-4.565-3.594-9.116-5.317-13.7-.381-1.011-.909-1.17-1.866-1.008-2.846.481-5.707.881-8.56,1.325-2.3.357-4.592.732-7.173,1.145l4.558,2.7c-2.805,4.872-5.5,9.625-8.273,14.337a6.481,6.481,0,0,0-.033,7.065c2.716,4.647,5.387,9.32,8.082,13.979a9.157,9.157,0,0,0,.541.752,6.927,6.927,0,0,1,.743-5.244Q38.576,82.157,44.8,71.347c.209-.361.451-.7.7-1.089L50,72.817M87.1,55.256,93.39,39.092l-4.612,2.617c-.284-.445-.528-.8-.742-1.165-2.518-4.354-5.073-8.688-7.531-13.077a6.534,6.534,0,0,0-6.191-3.634c-5.384.032-10.768,0-16.151.011a10.085,10.085,0,0,0-1.035.107,6.431,6.431,0,0,1,4.329,3.273Q66.78,36.5,72.147,45.751c.783,1.357,1.56,2.717,2.393,4.169l-4.589,2.724L87.1,55.256m-33.438.157a4.925,4.925,0,0,0,.394-.488c3.373-5.832,6.753-11.659,10.083-17.516a1.679,1.679,0,0,0-.074-1.384c-1.261-2.3-2.578-4.572-3.912-6.833-2.444-4.144-7.7-4.144-10.122.008q-4.686,8.052-9.327,16.134c-.355.615-.7,1.236-1.131,2,3.21-.479,6.2-.868,9.168-1.4.973-.176,1.3.136,1.607.959,1.054,2.815,2.174,5.6,3.314,8.518m43.638.848c-1.2,3.071-2.323,5.869-3.384,8.689-.288.764-.571,1.082-1.5.918-3.006-.531-6.036-.926-9.154-1.387a4.665,4.665,0,0,0,.227.575c3.339,5.8,6.668,11.6,10.053,17.365a1.83,1.83,0,0,0,1.331.726c2.711.066,5.426.088,8.136.016a5.64,5.64,0,0,0,4.831-8.647c-1.365-2.392-2.754-4.771-4.132-7.156L97.3,56.261M60.7,85.484c-7.163,0-13.995-.015-20.826.035a1.832,1.832,0,0,0-1.278.806c-1.35,2.2-2.631,4.444-3.9,6.693-2.4,4.256.249,8.783,5.15,8.791q9.723.015,19.446,0c.371,0,.742-.048,1.324-.088L54.19,93.652,60.7,85.484M59.28,66.279c0,1.707-.086,3.32.018,4.921a7.139,7.139,0,0,0,6.586,6.671,7.041,7.041,0,0,0,7.58-5.662,47.664,47.664,0,0,0,.361-5.93Zm4.136-2.921c0-1.778,0-3.433,0-5.087,0-.986-.154-1.941-1.405-1.947s-1.4.914-1.391,1.926c.023,1.691.006,3.383.006,5.172a4.946,4.946,0,0,0-1.606.035,5.682,5.682,0,0,0-1.266,1c.4.353.8,1.007,1.2,1.013q7.543.107,15.087.005c.392-.005.776-.61,1.164-.937a5.089,5.089,0,0,0-1.218-1.074,4.777,4.777,0,0,0-1.643-.039c0-1.962.031-3.747-.012-5.53-.027-1.154-.887-1.938-1.732-1.5a2.242,2.242,0,0,0-1,1.584c-.127,1.768-.046,3.551-.046,5.383Zm1.531,15.165c0,2.374-.034,4.674.017,6.972a1.4,1.4,0,0,0,1.489,1.493,1.365,1.365,0,0,0,1.518-1.438c.034-2.344.011-4.689.011-7.027Z" transform="translate(3943.477 1817.619)" fill="#fff"/>
    <path id="Path_193" data-name="Path 193" d="M77.576,80.421v4.867h1.65c7.884,0,15.769-.035,23.652.022,2.294.016,4.368-.294,6.006-2.152-.4.7-.783,1.408-1.185,2.106-2.468,4.287-4.967,8.556-7.4,12.864a6.567,6.567,0,0,1-6.251,3.557c-4.906-.038-9.812-.011-14.717-.011-.52,0-1.04,0-1.735,0v4.871l-.348.137c-3.508-4.373-7.017-8.746-10.578-13.183L77.262,80.264l.314.157" transform="translate(3943.477 1817.619)" fill="#fff"/>
    <path id="Path_194" data-name="Path 194" d="M50,72.816l-4.5-2.558c-.25.386-.493.728-.7,1.089q-6.243,10.8-12.49,21.59a6.928,6.928,0,0,0-.743,5.244,8.925,8.925,0,0,1-.541-.752C28.326,92.77,25.655,88.1,22.939,83.45a6.479,6.479,0,0,1,.033-7.065c2.769-4.712,5.468-9.465,8.273-14.336l-4.558-2.7c2.58-.413,4.875-.788,7.173-1.146,2.853-.444,5.714-.843,8.56-1.325.957-.162,1.485,0,1.865,1.009,1.724,4.585,3.539,9.136,5.318,13.7.107.276.183.564.4,1.231" transform="translate(3943.477 1817.619)" fill="#fff"/>
    <path id="Path_195" data-name="Path 195" d="M87.1,55.256,69.952,52.644l4.589-2.725c-.833-1.451-1.61-2.812-2.393-4.169Q66.8,36.488,61.457,27.224a6.426,6.426,0,0,0-4.328-3.273,9.794,9.794,0,0,1,1.034-.107c5.384-.006,10.768.02,16.151-.011a6.532,6.532,0,0,1,6.192,3.634c2.458,4.388,5.013,8.722,7.531,13.077.213.369.458.72.742,1.164l4.611-2.617C91.229,44.65,89.188,49.9,87.1,55.256" transform="translate(3943.477 1817.619)" fill="#fff"/>
    <path id="Path_196" data-name="Path 196" d="M53.665,55.413c-1.139-2.913-2.26-5.7-3.313-8.518-.308-.823-.635-1.135-1.607-.96-2.966.535-5.958.923-9.169,1.4.433-.768.777-1.39,1.132-2.005q4.659-8.069,9.327-16.134c2.417-4.151,7.677-4.151,10.122-.007,1.333,2.261,2.651,4.531,3.911,6.833a1.675,1.675,0,0,1,.074,1.384c-3.329,5.857-6.71,11.684-10.083,17.516a4.752,4.752,0,0,1-.394.488" transform="translate(3943.477 1817.619)" fill="#fff"/>
    <path id="Path_197" data-name="Path 197" d="M97.3,56.261l6.408,11.1c1.378,2.385,2.767,4.763,4.132,7.156a5.639,5.639,0,0,1-4.831,8.647c-2.71.071-5.425.05-8.136-.016a1.83,1.83,0,0,1-1.331-.726c-3.385-5.768-6.714-11.569-10.053-17.365a4.9,4.9,0,0,1-.227-.575c3.118.461,6.148.855,9.154,1.387.929.164,1.213-.154,1.5-.918,1.061-2.82,2.182-5.618,3.384-8.689" transform="translate(3943.477 1817.619)" fill="#fff"/>
    <path id="Path_198" data-name="Path 198" d="M60.7,85.484l-6.513,8.169,6.427,8.068c-.582.04-.953.088-1.324.088q-9.723.006-19.447,0c-4.9-.008-7.553-4.535-5.149-8.791,1.27-2.248,2.552-4.492,3.9-6.692a1.834,1.834,0,0,1,1.278-.807c6.831-.05,13.662-.035,20.826-.035" transform="translate(3943.477 1817.619)" fill="#fff"/>
    <path id="Path_199" data-name="Path 199" d="M59.281,66.279H73.825a47.472,47.472,0,0,1-.361,5.93,7.038,7.038,0,0,1-7.579,5.662A7.138,7.138,0,0,1,59.3,71.2c-.1-1.6-.018-3.214-.018-4.921" transform="translate(3943.477 1817.619)" fill="#fff"/>
    <path id="Path_200" data-name="Path 200" d="M63.416,63.359h6.145c0-1.833-.08-3.616.046-5.384a2.244,2.244,0,0,1,1-1.584c.845-.439,1.705.345,1.732,1.5.043,1.783.012,3.568.012,5.53a4.777,4.777,0,0,1,1.643.039,5.07,5.07,0,0,1,1.218,1.074c-.388.327-.772.932-1.164.937q-7.543.1-15.086-.005c-.406,0-.8-.66-1.205-1.013a5.693,5.693,0,0,1,1.267-1,4.938,4.938,0,0,1,1.6-.035c0-1.789.017-3.481-.006-5.172-.014-1.012.137-1.931,1.391-1.926s1.4.961,1.405,1.947c0,1.655,0,3.309,0,5.088m8.467-2.874a19.945,19.945,0,0,0-.042-2.77,1.3,1.3,0,0,0-.886-.875c-.28-.025-.833.5-.877.833a21.4,21.4,0,0,0-.043,2.812Zm-8.959,0a20.244,20.244,0,0,0-.044-2.822,1.25,1.25,0,0,0-.912-.822c-.295,0-.791.535-.839.884a20.8,20.8,0,0,0-.04,2.76Z" transform="translate(3943.477 1817.619)" fill="#fff"/>
    <path id="Path_201" data-name="Path 201" d="M64.947,78.523h3.035c0,2.338.023,4.683-.011,7.027a1.365,1.365,0,0,1-1.518,1.438A1.4,1.4,0,0,1,64.964,85.5c-.051-2.3-.017-4.6-.017-6.972" transform="translate(3943.477 1817.619)" fill="#fff"/>
    <path id="Path_202" data-name="Path 202" d="M71.883,60.485H70.035a21.4,21.4,0,0,1,.043-2.812c.044-.333.6-.859.877-.834a1.3,1.3,0,0,1,.886.876,19.945,19.945,0,0,1,.042,2.77" transform="translate(3943.477 1817.619)" fill="#fff"/>
    <path id="Path_203" data-name="Path 203" d="M62.924,60.486H61.089a20.8,20.8,0,0,1,.04-2.76c.048-.349.544-.882.839-.884a1.25,1.25,0,0,1,.912.822,20.244,20.244,0,0,1,.044,2.822" transform="translate(3943.477 1817.619)" fill="#fff"/>
  </g>
</svg>
