<svg xmlns="http://www.w3.org/2000/svg" width="142.85" height="142.85" viewBox="0 0 142.85 142.85">
  <g id="Group_143" data-name="Group 143" transform="translate(953.853 -4354.912)">
    <path id="Path_355" data-name="Path 355" d="M140.421,70.21a70.21,70.21,0,1,0-70.21,70.21,70.211,70.211,0,0,0,70.21-70.21" transform="matrix(-0.017, 1, -1, -0.017, -811.003, 4357.362)" fill="#ffb614"/>
    <path id="Path_356" data-name="Path 356" d="M54.747,18.492V1.743c2.721.091,5.412-.4,8.025.542,1.8.644,3.511,1.662,4.2,3.415.828,2.108,2.26,2.543,4.255,2.973A15.566,15.566,0,0,1,81.589,31.417c-3.327,6.04-6.869,11.962-10.317,17.937a4.116,4.116,0,0,1-.266.428,1.923,1.923,0,0,1-2.57.588,1.881,1.881,0,0,1-.828-2.4,5.078,5.078,0,0,1,.523-1c3.3-5.72,6.649-11.411,9.888-17.165a11.8,11.8,0,0,0-8.128-17.493c-1.069-.207-1.749-.2-2.267,1.13a7.672,7.672,0,0,1-6.463,5.006,52.735,52.735,0,0,1-6.415.05M67.822,68.168c-1.008,1.723-1.846,3.383-2.895,4.9A8.293,8.293,0,0,1,56.4,76.748a1.274,1.274,0,0,0-1.455.572c-7.064,9.657-20.7,8.941-26.715-1.4C25.058,70.468,21.921,65,18.769,59.533c-1.178-2.042-1.15-3.136.1-3.82,1.229-.676,2.139-.146,3.334,1.924,3.214,5.572,6.388,11.168,9.66,16.706A11.791,11.791,0,0,0,51.31,75.724c.574-.73.739-1.226.033-2.016a7.766,7.766,0,0,1-1.794-4.622c-.343-3.737,2.07-6.342,3.649-9.363l14.624,8.445M3.708,46.314A56.07,56.07,0,0,1,.754,40.943,8.135,8.135,0,0,1,1.9,32.269a1.6,1.6,0,0,0,.2-1.992A14.311,14.311,0,0,1,.771,22.415C1.828,13.816,8.2,8.19,16.9,8.167c6.439-.016,12.879,0,19.318,0a5.5,5.5,0,0,1,1.257.062,1.772,1.772,0,0,1,1.5,1.9A1.766,1.766,0,0,1,37.4,11.976a7.716,7.716,0,0,1-1.385.05c-6.482,0-12.964-.048-19.445.015A11.844,11.844,0,0,0,5.4,28.153c.334.867.656,1.3,1.8,1.117a7.411,7.411,0,0,1,7.026,2.3,60.177,60.177,0,0,1,4.257,6.215L3.708,46.314m25.969-9.3c.763-.068,1.207-.138,1.651-.142,2.649-.028,5.3-.071,7.948-.042,1.1.012,1.395-.334,1.129-1.432-.937-3.88-1.808-7.775-2.666-11.672a5.1,5.1,0,0,1,.076-1.369,4.2,4.2,0,0,1,1.072.833q6.48,10,12.9,20.04a6.671,6.671,0,0,1,.46,1.119,4.972,4.972,0,0,1-1.26.346c-2.565.01-5.129-.038-7.695-.051-1.764-.008-1.84.1-1.436,1.766.916,3.8,1.845,7.593,2.726,11.4a4.19,4.19,0,0,1-.145,1.344,4.607,4.607,0,0,1-.98-.838q-6.539-9.962-13.035-19.954c-.22-.336-.392-.7-.746-1.347m38.381,27.54c.554.34,1.04.649,1.538.938.755.438,1.172,1.044.67,1.867-.458.746-1.157.724-1.871.306-.834-.488-1.675-.966-2.513-1.449Q59.71,62.661,53.538,59.1c-.758-.435-1.376-.981-.865-1.911s1.284-.741,2.056-.28c.454.272.933.5,1.441.776.271-.439.5-.789.706-1.147.867-1.49,1.713-2.991,2.6-4.471a1.541,1.541,0,0,1,2.254-.683,1.574,1.574,0,0,1,.581,2.287,13.835,13.835,0,0,1-.678,1.21c-.852,1.477-1.706,2.953-2.6,4.508l6.165,3.545c1.029-1.783,1.968-3.42,2.916-5.052.824-1.416,1.727-1.848,2.682-1.3s.99,1.492.139,2.984c-.935,1.636-1.88,3.265-2.869,4.985m-49.431-23.1c.229.428.416.794.62,1.152.856,1.495,1.8,2.949,2.53,4.5a2.248,2.248,0,0,1-.126,1.933,2.118,2.118,0,0,1-1.766.443c-.418-.07-.818-.668-1.089-1.115-1.041-1.715-2.027-3.465-3.084-5.288L9.572,46.639l2.818,4.9c.9,1.565.882,2.506-.065,3.091-1,.619-1.847.171-2.8-1.479q-1.4-2.428-2.815-4.855c-.579.328-.986.547-1.381.786-.748.451-1.553.721-2.083-.189-.557-.957.072-1.551.893-2,.992-.548,1.969-1.126,2.952-1.693q5.732-3.309,11.46-6.621c.811-.471,1.67-.922,2.272.161s-.29,1.568-1.077,2.022c-.357.206-.7.436-1.12.7m32.748-27.7V6.63c-.607,0-1.106,0-1.6,0-1.639,0-3.279.024-4.917-.027a1.518,1.518,0,0,1-1.626-1.692,1.494,1.494,0,0,1,1.637-1.541c.463-.013.925-.006,1.387-.006H51.5c0-.822-.024-1.447.006-2.07A1.193,1.193,0,0,1,52.754,0a1.173,1.173,0,0,1,1.194,1.336q0,8.827,0,17.653c0,.782-.336,1.309-1.176,1.332s-1.2-.506-1.268-1.265c-.058-.651-.066-1.3-.1-2.051-2.146,0-4.157.012-6.168,0-1.35-.011-2.053-.62-2.015-1.694.036-1.018.7-1.54,2.019-1.548,2.009-.012,4.019,0,6.135,0" transform="matrix(-0.017, 1, -1, -0.017, -835.009, 4386.8)" fill="#fff"/>
    <path id="Path_357" data-name="Path 357" d="M0,16.8a52.506,52.506,0,0,0,6.413-.05,7.671,7.671,0,0,0,6.464-5c.518-1.328,1.2-1.339,2.266-1.132A11.8,11.8,0,0,1,23.272,28.1c-3.238,5.755-6.589,11.446-9.888,17.166a5.192,5.192,0,0,0-.523,1,1.883,1.883,0,0,0,.828,2.4,1.922,1.922,0,0,0,2.57-.589,4.014,4.014,0,0,0,.267-.428c3.447-5.974,6.989-11.9,10.317-17.937A15.567,15.567,0,0,0,16.479,6.977C14.485,6.548,13.053,6.112,12.224,4c-.689-1.754-2.4-2.77-4.2-3.416C5.411-.348,2.721.138,0,.046Z" transform="matrix(-0.017, 1, -1, -0.017, -837.661, 4441.508)" fill="#161615"/>
    <path id="Path_358" data-name="Path 358" d="M49.915,12.733,35.291,4.288c-1.579,3.021-3.993,5.626-3.649,9.363a7.766,7.766,0,0,0,1.794,4.622c.7.789.541,1.285-.033,2.016a11.791,11.791,0,0,1-19.451-1.381C10.679,13.37,7.505,7.774,4.291,2.2,3.1.13,2.186-.4.957.278-.288.962-.317,2.056.862,4.1,4.013,9.56,7.151,15.031,10.323,20.483c6.018,10.342,19.65,11.058,26.715,1.4a1.274,1.274,0,0,1,1.454-.572A8.293,8.293,0,0,0,47.02,17.63c1.049-1.514,1.886-3.174,2.895-4.9" transform="matrix(-0.017, 1, -1, -0.017, -890.748, 4403.737)" fill="#161615"/>
    <path id="Path_359" data-name="Path 359" d="M3.708,38.153l14.774-8.527a60.061,60.061,0,0,0-4.257-6.215,7.411,7.411,0,0,0-7.026-2.3c-1.141.186-1.464-.248-1.8-1.117A11.844,11.844,0,0,1,16.571,3.88c6.481-.062,12.963-.012,19.444-.015a7.709,7.709,0,0,0,1.385-.05,1.765,1.765,0,0,0,1.568-1.843,1.773,1.773,0,0,0-1.5-1.9A5.5,5.5,0,0,0,36.215.007C29.776,0,23.336-.008,16.9.008,8.2.029,1.827,5.656.77,14.255A14.309,14.309,0,0,0,2.1,22.117a1.605,1.605,0,0,1-.2,1.993A8.132,8.132,0,0,0,.754,32.783a56.054,56.054,0,0,0,2.954,5.37" transform="matrix(-0.017, 1, -1, -0.017, -843.167, 4386.657)" fill="#161615"/>
    <path id="Path_360" data-name="Path 360" d="M0,14.658C.353,15.3.526,15.668.745,16Q7.253,25.99,13.781,35.959a4.627,4.627,0,0,0,.979.838,4.162,4.162,0,0,0,.146-1.344c-.881-3.806-1.81-7.6-2.727-11.4-.4-1.669-.328-1.775,1.437-1.766,2.565.013,5.13.061,7.695.051a4.984,4.984,0,0,0,1.26-.346,6.586,6.586,0,0,0-.461-1.119Q15.681,10.84,9.21.833A4.2,4.2,0,0,0,8.138,0a5.054,5.054,0,0,0-.076,1.369c.859,3.9,1.729,7.792,2.666,11.672.264,1.1-.031,1.444-1.13,1.432-2.648-.029-5.3.015-7.947.042-.444,0-.887.074-1.651.142" transform="matrix(-0.017, 1, -1, -0.017, -857.883, 4416.082)" fill="#161615"/>
    <path id="Path_361" data-name="Path 361" d="M15.571,13.419c.99-1.72,1.935-3.35,2.869-4.986.852-1.49.8-2.441-.138-2.984-.956-.551-1.859-.119-2.682,1.3-.949,1.631-1.887,3.268-2.916,5.051L6.539,8.253c.9-1.555,1.752-3.031,2.6-4.508.231-.4.488-.79.678-1.209A1.575,1.575,0,0,0,9.241.248,1.542,1.542,0,0,0,6.987.93C6.1,2.41,5.256,3.912,4.39,5.4c-.209.359-.435.708-.706,1.147-.51-.272-.987-.5-1.441-.775C1.471,5.312.7,5.128.187,6.054s.107,1.474.864,1.911Q7.227,11.517,13.4,15.08c.838.483,1.678.962,2.513,1.45.713.417,1.414.441,1.87-.307.5-.822.085-1.428-.669-1.867-.5-.29-.984-.6-1.539-.937m-9.71-9.4A22.646,22.646,0,0,1,7.543,1.183C7.8.857,8.518.893,9.026.764c.116.48.457,1.055.3,1.419A26.487,26.487,0,0,1,7.7,5.064L5.86,4.016M16.7,10.293,14.89,9.138a24.952,24.952,0,0,1,1.721-2.832,1.414,1.414,0,0,1,1.352-.3,1.43,1.43,0,0,1,.379,1.34A27.02,27.02,0,0,1,16.7,10.293" transform="matrix(-0.017, 1, -1, -0.017, -887.056, 4438.385)" fill="#161615"/>
    <path id="Path_363" data-name="Path 363" d="M8.156,13.758c-2.117,0-4.126-.01-6.135,0C.7,13.769.038,14.29,0,15.309-.036,16.382.667,16.993,2.017,17c2.01.014,4.021,0,6.167,0,.034.746.041,1.4.1,2.051.068.76.429,1.29,1.268,1.266s1.176-.551,1.176-1.333q0-8.827,0-17.653A1.173,1.173,0,0,0,9.537,0,1.193,1.193,0,0,0,8.283,1.3c-.031.622-.006,1.246-.006,2.069H3.032c-.462,0-.925-.006-1.386.005A1.5,1.5,0,0,0,.008,4.912,1.518,1.518,0,0,0,1.634,6.6c1.638.05,3.278.022,4.917.028h1.6Zm-3.273.518v2.173A25.1,25.1,0,0,1,1.6,16.4c-.386-.05-1.036-.741-.973-.989a1.674,1.674,0,0,1,1.061-1.083,21.173,21.173,0,0,1,3.2-.051m0-8.235a21.773,21.773,0,0,1-3.2-.051C1.262,5.927.926,5.313.551,4.95.9,4.6,1.21,3.991,1.6,3.94a25.273,25.273,0,0,1,3.285-.049Z" transform="matrix(-0.017, 1, -1, -0.017, -835.763, 4430.012)" fill="#161615"/>
    <path id="Path_364" data-name="Path 364" d="M0,3.251,1.837,4.3a26.388,26.388,0,0,0,1.63-2.88C3.622,1.055,3.28.48,3.164,0,2.656.128,1.94.092,1.681.418A22.391,22.391,0,0,0,0,3.251" transform="matrix(-0.017, 1, -1, -0.017, -887.922, 4444.232)" fill="#fff"/>
    <path id="Path_365" data-name="Path 365" d="M1.808,4.359A27.019,27.019,0,0,0,3.452,1.412,1.43,1.43,0,0,0,3.073.072a1.414,1.414,0,0,0-1.352.3A24.952,24.952,0,0,0,0,3.2L1.808,4.359" transform="matrix(-0.017, 1, -1, -0.017, -893.249, 4453.169)" fill="#fff"/>
    <path id="Path_367" data-name="Path 367" d="M4.263.035a21.3,21.3,0,0,0-3.2.051A1.674,1.674,0,0,0,0,1.169c-.064.248.586.939.973.991a25.271,25.271,0,0,0,3.285.048Z" transform="matrix(-0.017, 1, -1, -0.017, -850.011, 4430.383)" fill="#fff"/>
    <path id="Path_368" data-name="Path 368" d="M4.331,2.18V.03A25.273,25.273,0,0,0,1.046.078C.659.129.346.734,0,1.089c.375.363.711.977,1.13,1.04a21.773,21.773,0,0,0,3.2.051" transform="matrix(-0.017, 1, -1, -0.017, -839.633, 4430.496)" fill="#fff"/>
  </g>
</svg>
