<svg xmlns="http://www.w3.org/2000/svg" width="132.288" height="132.288" viewBox="0 0 132.288 132.288">
  <g id="Group_144" data-name="Group 144" transform="translate(1616.318 -4779.182)">
    <path id="Path_276" data-name="Path 276" d="M231.617,185.853a66.144,66.144,0,1,1-66.144-66.144,66.144,66.144,0,0,1,66.144,66.144" transform="translate(-1715.647 4659.473)" fill="#ffb614"/>
    <path id="Path_277" data-name="Path 277" d="M186.011,224.734c-.127-.045-.251-.1-.38-.135a4.23,4.23,0,0,1-3.152-4.086c-.01-2.636-.021-5.272,0-7.908a9.3,9.3,0,0,1,2.424-6.561,8.274,8.274,0,0,1,6.236-2.559q5.5-.042,11.007,0a8.363,8.363,0,0,1,8.554,7.752,23.261,23.261,0,0,1,.1,2.492c.013,2.189.005,4.378,0,6.567a4.241,4.241,0,0,1-3.4,4.359,1.909,1.909,0,0,0-.213.082Zm10.638-2.837h3.144c2.189,0,4.378,0,6.567,0a1.434,1.434,0,0,0,1.609-1.591c.006-.724,0-1.449,0-2.173-.009-2.05.047-4.1-.047-6.149a5.527,5.527,0,0,0-5.191-5.619,19.775,19.775,0,0,0-2.124-.044c-3.145,0-6.289-.016-9.434,0a5.368,5.368,0,0,0-5.451,3.829,11.073,11.073,0,0,0-.4,2.912c-.056,2.295-.017,4.593-.018,6.889,0,1.506.439,1.942,1.961,1.942h9.387" transform="translate(-1715.647 4659.473)" fill="#161615"/>
    <path id="Path_278" data-name="Path 278" d="M120.136,211.6c.057-.284.121-.566.17-.851.731-4.227,3.665-7.036,7.925-7.2,4.063-.161,8.143-.161,12.206.007a8.138,8.138,0,0,1,7.911,7.578,26,26,0,0,1,.113,2.722c.015,2.128.005,4.256,0,6.384a4.234,4.234,0,0,1-3.376,4.418.892.892,0,0,0-.158.084H123.744c-.189-.058-.378-.115-.567-.175a4.2,4.2,0,0,1-2.746-2.521c-.121-.295-.2-.608-.295-.912Zm14.155,10.3h3.052c2.25,0,4.5.006,6.751,0a1.375,1.375,0,0,0,1.532-1.381c.008-2.928.063-5.86-.074-8.783a5.382,5.382,0,0,0-4.451-5.258,6.524,6.524,0,0,0-1.329-.144c-3.653-.011-7.306-.024-10.959,0a5.374,5.374,0,0,0-5.452,3.891,10.8,10.8,0,0,0-.37,2.778c-.05,2.4-.018,4.809-.016,7.214,0,1.164.526,1.686,1.7,1.687h9.618" transform="translate(-1715.647 4659.473)" fill="#161615"/>
    <path id="Path_279" data-name="Path 279" d="M171,151.065c.845-.768,1.686-1.548,2.551-2.3a.618.618,0,0,1,.5,0,8.055,8.055,0,0,1,5.271,6.077,11.517,11.517,0,0,1,.3,2.518c.037,2.62.021,5.242.012,7.863a4.22,4.22,0,0,1-4.258,4.263q-9.921.015-19.843,0a4.223,4.223,0,0,1-4.222-4.208c-.014-2.682-.04-5.366.009-8.048a8.784,8.784,0,0,1,3.273-7.19,14.505,14.505,0,0,1,2.378-1.3.5.5,0,0,1,.446.052c.853.745,1.688,1.512,2.52,2.265-.191.017-.458.03-.721.067a5.564,5.564,0,0,0-5.023,5.4c-.032.368-.052.739-.053,1.108q-.008,3.678,0,7.355a1.445,1.445,0,0,0,1.642,1.654q9.713,0,19.427,0a1.417,1.417,0,0,0,1.594-1.559q.017-3.978-.017-7.956a6.686,6.686,0,0,0-.763-3.162,5.437,5.437,0,0,0-4.612-2.878c-.152-.014-.3-.017-.407-.023" transform="translate(-1715.647 4659.473)" fill="#161615"/>
    <path id="Path_280" data-name="Path 280" d="M142.088,192.881a7.786,7.786,0,1,1-7.759-7.82,7.783,7.783,0,0,1,7.759,7.82m-12.736-.026a4.956,4.956,0,1,0,4.979-4.952,4.958,4.958,0,0,0-4.979,4.952" transform="translate(-1715.647 4659.473)" fill="#161615"/>
    <path id="Path_281" data-name="Path 281" d="M165.484,149.646a7.791,7.791,0,1,1,7.773-7.849,7.773,7.773,0,0,1-7.773,7.849m-.008-12.74a4.955,4.955,0,1,0,4.953,4.942,4.959,4.959,0,0,0-4.953-4.942" transform="translate(-1715.647 4659.473)" fill="#161615"/>
    <path id="Path_282" data-name="Path 282" d="M188.855,192.847a7.787,7.787,0,1,1,7.774,7.807,7.78,7.78,0,0,1-7.774-7.807m12.736.011a4.955,4.955,0,1,0-4.929,4.954,4.956,4.956,0,0,0,4.929-4.954" transform="translate(-1715.647 4659.473)" fill="#161615"/>
    <path id="Path_283" data-name="Path 283" d="M141.726,160.292c-1.14.069-1.763-.293-1.947-1.043a1.432,1.432,0,0,1,1.3-1.767c1.681-.222,3.363-.433,5.044-.647.2-.026.4-.055.6-.078a1.429,1.429,0,0,1,1.582,2.084c-.579,1.378-1.18,2.747-1.772,4.12-.128.3-.251.6-.383.891a1.423,1.423,0,1,1-2.64-1.05c.019-.055.028-.112.057-.229a2.1,2.1,0,0,0-.275.115,17.938,17.938,0,0,0-8.8,13.635,30.366,30.366,0,0,0-.1,4.194,1.494,1.494,0,0,1-1.291,1.711,1.439,1.439,0,0,1-1.551-1.474,23.469,23.469,0,0,1,1.142-9.069,20.554,20.554,0,0,1,8.572-11.071c.125-.08.244-.169.464-.322" transform="translate(-1715.647 4659.473)" fill="#161615"/>
    <path id="Path_284" data-name="Path 284" d="M197.959,175.13c.143-.245.22-.391.311-.53a1.422,1.422,0,0,1,1.867-.509,1.377,1.377,0,0,1,.623,1.823c-.934,1.876-1.882,3.746-2.867,5.6a1.377,1.377,0,0,1-2.383.1c-1.089-1.681-2.144-3.385-3.189-5.1a1.379,1.379,0,0,1,.443-1.911,1.417,1.417,0,0,1,1.956.421,1.961,1.961,0,0,0,.479.543c-.085-.578-.147-1.162-.257-1.737-1.292-6.737-5.18-11.412-11.358-14.258a1.617,1.617,0,0,1-1.062-1.07,1.351,1.351,0,0,1,.439-1.424,1.318,1.318,0,0,1,1.554-.2,44.028,44.028,0,0,1,4.145,2.327,21.359,21.359,0,0,1,9.1,14.613c.068.394.121.79.2,1.306" transform="translate(-1715.647 4659.473)" fill="#161615"/>
    <path id="Path_285" data-name="Path 285" d="M182.033,196.309a1.309,1.309,0,0,1-1.429.843c-.746-.034-1.494-.013-2.241,0a.351.351,0,0,0-.273.132c-.308.79-.6,1.588-.906,2.424.559.557,1.164,1.158,1.768,1.762a1.151,1.151,0,0,1-.009,1.843q-1.275,1.278-2.553,2.553a1.162,1.162,0,0,1-1.828.006q-.865-.864-1.732-1.727c-.013-.012-.034-.016.02.009-.857.343-1.665.662-2.466,1a.328.328,0,0,0-.149.25c-.012.747-.032,1.5,0,2.242a1.2,1.2,0,0,1-1.3,1.314c-1.231-.04-2.465-.01-3.7-.011a1.112,1.112,0,0,1-1.221-1.2q-.014-1.136,0-2.271c0-.2-.061-.275-.248-.348-.72-.28-1.433-.58-2.139-.893a.273.273,0,0,0-.372.064c-.529.541-1.067,1.074-1.6,1.608a1.149,1.149,0,0,1-1.767-.007q-1.32-1.315-2.635-2.635a1.124,1.124,0,0,1,.01-1.758c.6-.6,1.194-1.192,1.746-1.741-.321-.854-.622-1.668-.941-2.475a.332.332,0,0,0-.259-.136c-.776-.01-1.554-.028-2.329,0a1.187,1.187,0,0,1-1.276-1.28c.039-1.251.01-2.5.012-3.755a1.094,1.094,0,0,1,1.15-1.18c.825-.011,1.65-.012,2.475,0,.226,0,.308-.079.387-.282.28-.729.589-1.448.908-2.22-.566-.563-1.178-1.17-1.788-1.779a1.172,1.172,0,0,1,.006-1.943q1.245-1.245,2.491-2.491a1.172,1.172,0,0,1,1.869.008l1.888,1.89,2.411-.977c0-.843.023-1.717-.007-2.589a1.31,1.31,0,0,1,.847-1.424h4.543a1.309,1.309,0,0,1,.842,1.428c-.035.8-.012,1.611,0,2.416,0,.1.058.246.129.275.74.3,1.488.584,2.269.885.645-.645,1.321-1.327,2-2a1.125,1.125,0,0,1,1.661-.013q1.382,1.359,2.739,2.738a1.111,1.111,0,0,1-.011,1.677c-.608.613-1.221,1.222-1.831,1.833-.06.06-.114.125-.137.15.352.823.689,1.611,1.032,2.415.83,0,1.675.027,2.518-.008a1.31,1.31,0,0,1,1.428.843Zm-4.623-.112h3.312c.358,0,.379-.021.379-.38q0-1.776,0-3.552c0-.373-.015-.386-.4-.386-1.02,0-2.039-.006-3.058.005-.234,0-.352-.04-.416-.3a9.749,9.749,0,0,0-1.282-2.972.259.259,0,0,1,.052-.39c.761-.748,1.513-1.506,2.268-2.261.246-.246.246-.292,0-.539q-1.256-1.257-2.512-2.512c-.262-.262-.294-.262-.557,0l-2.459,2.463a10.98,10.98,0,0,0-3.451-1.427c0-1.186,0-2.34,0-3.494,0-.366-.021-.389-.37-.389-1.194,0-2.388,0-3.582-.005-.274,0-.376.081-.373.367.014,1.077,0,2.155.011,3.232a.291.291,0,0,1-.274.347,9.838,9.838,0,0,0-3,1.214.267.267,0,0,1-.393-.054c-.756-.768-1.525-1.523-2.279-2.292-.188-.192-.318-.184-.5,0q-1.276,1.3-2.573,2.575c-.178.176-.183.3,0,.479.6.582,1.18,1.18,1.775,1.766.219.216.456.414.682.619a11.032,11.032,0,0,0-1.556,3.565h-3.314c-.375,0-.389.015-.389.4,0,1.183,0,2.367-.005,3.551,0,.275.08.378.367.374.99-.015,1.98-.006,2.97-.006h.311a10.526,10.526,0,0,0,1.36,3.479c.1.153.045.235-.064.343-.7.7-1.4,1.4-2.1,2.1-.25.251-.251.285,0,.535q1.254,1.257,2.511,2.512c.265.266.3.266.557,0,.741-.74,1.481-1.481,2.234-2.235a11.025,11.025,0,0,0,3.679,1.538c0,1.082.009,2.13-.005,3.177,0,.285.1.372.371.369,1.194-.01,2.388,0,3.582,0,.35,0,.371-.025.372-.389,0-.98,0-1.961,0-2.941,0-.178.05-.248.23-.29a10.379,10.379,0,0,0,2.8-1.109c.208-.12.412-.247.629-.377.765.764,1.524,1.513,2.27,2.276.19.195.321.219.523.013q1.265-1.289,2.553-2.552c.2-.2.19-.333-.007-.525-.722-.705-1.426-1.429-2.148-2.134-.148-.145-.143-.24-.051-.416a18.144,18.144,0,0,0,.815-1.7c.213-.535.347-1.1.521-1.673" transform="translate(-1715.647 4659.473)" fill="#161615"/>
    <path id="Path_286" data-name="Path 286" d="M182.033,196.309a1.309,1.309,0,0,1-1.429.843c-.746-.034-1.494-.013-2.241,0a.351.351,0,0,0-.273.132c-.308.79-.6,1.588-.906,2.424.559.557,1.164,1.158,1.768,1.762a1.151,1.151,0,0,1-.009,1.843q-1.275,1.278-2.553,2.553a1.162,1.162,0,0,1-1.828.006q-.865-.864-1.732-1.727c-.013-.012-.034-.016.02.009-.857.343-1.665.662-2.466,1a.328.328,0,0,0-.149.25c-.012.747-.032,1.5,0,2.242a1.2,1.2,0,0,1-1.3,1.314c-1.231-.04-2.465-.01-3.7-.011a1.112,1.112,0,0,1-1.221-1.2q-.014-1.136,0-2.271c0-.2-.061-.275-.248-.348-.72-.28-1.433-.58-2.139-.893a.273.273,0,0,0-.372.064c-.529.541-1.067,1.074-1.6,1.608a1.149,1.149,0,0,1-1.767-.007q-1.32-1.315-2.635-2.635a1.124,1.124,0,0,1,.01-1.758c.6-.6,1.194-1.192,1.746-1.741-.321-.854-.622-1.668-.941-2.475a.332.332,0,0,0-.259-.136c-.776-.01-1.554-.028-2.329,0a1.187,1.187,0,0,1-1.276-1.28c.039-1.251.01-2.5.012-3.755a1.094,1.094,0,0,1,1.15-1.18c.825-.011,1.65-.012,2.475,0,.226,0,.308-.079.387-.282.28-.729.589-1.448.908-2.22-.566-.563-1.178-1.17-1.788-1.779a1.172,1.172,0,0,1,.006-1.943q1.245-1.245,2.491-2.491a1.172,1.172,0,0,1,1.869.008l1.888,1.89,2.411-.977c0-.843.023-1.717-.007-2.589a1.31,1.31,0,0,1,.847-1.424h4.543a1.309,1.309,0,0,1,.842,1.428c-.035.8-.012,1.611,0,2.416,0,.1.058.246.129.275.74.3,1.488.584,2.269.885.645-.645,1.321-1.327,2-2a1.125,1.125,0,0,1,1.661-.013q1.382,1.359,2.739,2.738a1.111,1.111,0,0,1-.011,1.677c-.608.613-1.221,1.222-1.831,1.833-.06.06-.114.125-.137.15.352.823.689,1.611,1.032,2.415.83,0,1.675.027,2.518-.008a1.31,1.31,0,0,1,1.428.843Zm-4.623-.112h3.312c.358,0,.379-.021.379-.38q0-1.776,0-3.552c0-.373-.015-.386-.4-.386-1.02,0-2.039-.006-3.058.005-.234,0-.352-.04-.416-.3a9.749,9.749,0,0,0-1.282-2.972.259.259,0,0,1,.052-.39c.761-.748,1.513-1.506,2.268-2.261.246-.246.246-.292,0-.539q-1.256-1.257-2.512-2.512c-.262-.262-.294-.262-.557,0l-2.459,2.463a10.98,10.98,0,0,0-3.451-1.427c0-1.186,0-2.34,0-3.494,0-.366-.021-.389-.37-.389-1.194,0-2.388,0-3.582-.005-.274,0-.376.081-.373.367.014,1.077,0,2.155.011,3.232a.291.291,0,0,1-.274.347,9.838,9.838,0,0,0-3,1.214.267.267,0,0,1-.393-.054c-.756-.768-1.525-1.523-2.279-2.292-.188-.192-.318-.184-.5,0q-1.276,1.3-2.573,2.575c-.178.176-.183.3,0,.479.6.582,1.18,1.18,1.775,1.766.219.216.456.414.682.619a11.032,11.032,0,0,0-1.556,3.565h-3.314c-.375,0-.389.015-.389.4,0,1.183,0,2.367-.005,3.551,0,.275.08.378.367.374.99-.015,1.98-.006,2.97-.006h.311a10.526,10.526,0,0,0,1.36,3.479c.1.153.045.235-.064.343-.7.7-1.4,1.4-2.1,2.1-.25.251-.251.285,0,.535q1.254,1.257,2.511,2.512c.265.266.3.266.557,0,.741-.74,1.481-1.481,2.234-2.235a11.025,11.025,0,0,0,3.679,1.538c0,1.082.009,2.13-.005,3.177,0,.285.1.372.371.369,1.194-.01,2.388,0,3.582,0,.35,0,.371-.025.372-.389,0-.98,0-1.961,0-2.941,0-.178.05-.248.23-.29a10.379,10.379,0,0,0,2.8-1.109c.208-.12.412-.247.629-.377.765.764,1.524,1.513,2.27,2.276.19.195.321.219.523.013q1.265-1.289,2.553-2.552c.2-.2.19-.333-.007-.525-.722-.705-1.426-1.429-2.148-2.134-.148-.145-.143-.24-.051-.416a18.144,18.144,0,0,0,.815-1.7C177.1,197.335,177.236,196.768,177.41,196.2Z" transform="translate(-1715.647 4659.473)" fill="none" stroke="#161615" stroke-miterlimit="10" stroke-width="1"/>
    <path id="Path_287" data-name="Path 287" d="M167.128,187.2a6.838,6.838,0,1,1-6.845,6.816,6.842,6.842,0,0,1,6.845-6.816m-5.893,6.838a5.887,5.887,0,1,0,5.9-5.889,5.879,5.879,0,0,0-5.9,5.889" transform="translate(-1715.647 4659.473)" fill="#161615"/>
    <path id="Path_288" data-name="Path 288" d="M167.128,187.2a6.838,6.838,0,1,1-6.845,6.816A6.842,6.842,0,0,1,167.128,187.2Zm-5.893,6.838a5.887,5.887,0,1,0,5.9-5.889A5.879,5.879,0,0,0,161.235,194.04Z" transform="translate(-1715.647 4659.473)" fill="none" stroke="#161615" stroke-miterlimit="10" stroke-width="1"/>
  </g>
</svg>
