<svg xmlns="http://www.w3.org/2000/svg" width="133.288" height="133.288" viewBox="0 0 133.288 133.288">
  <g id="Group_145" data-name="Group 145" transform="translate(1739.795 -4934.666)">
    <path id="Path_289" data-name="Path 289" d="M132.788,449.725a66.144,66.144,0,1,1-66.144-66.144,66.144,66.144,0,0,1,66.144,66.144" transform="translate(-1739.795 4551.585)" fill="#fff"/>
    <circle id="Ellipse_6" data-name="Ellipse 6" cx="66.144" cy="66.144" r="66.144" transform="translate(-1739.295 4935.166)" fill="none" stroke="#161615" stroke-miterlimit="10" stroke-width="1"/>
    <path id="Path_290" data-name="Path 290" d="M66.577,481.779q-13.37,0-26.741,0c-2.845,0-4.057-1.184-4.057-3.99q-.006-24.96.029-49.92a2.825,2.825,0,0,1,.726-1.746c1.713-1.825,3.495-3.587,5.305-5.317a2.276,2.276,0,0,1,1.418-.6q25.277-.045,50.554-.018a3.282,3.282,0,0,1,3.554,3.592q.014,27.189,0,54.378a3.307,3.307,0,0,1-3.663,3.613q-13.561.016-27.124.006m-24.75-30.854c0,6.242.1,12.486-.053,18.725-.052,2.173.349,3.9,2.186,5.134a3.932,3.932,0,0,0,1.808.906c13.8.051,27.6.026,41.4.055,1.568,0,2.007-1.39,3-2.093a2.984,2.984,0,0,0,1.182-2.741c-.044-12.823-.087-25.647.028-38.47.021-2.278-.494-3.98-2.293-5.375a3.215,3.215,0,0,0-2.127-.852c-13.035.028-26.071.074-39.105-.036-2.22-.019-3.985.379-5.225,2.249a3.789,3.789,0,0,0-.764,1.862c-.055,6.878-.034,13.757-.034,20.636" transform="translate(-1739.795 4551.585)" fill="#161615"/>
    <path id="Path_291" data-name="Path 291" d="M33.625,448.109v5.745c-2.374,0-4.74.109-7.089-.04a2.692,2.692,0,0,1-2.376-2.855,2.725,2.725,0,0,1,2.448-2.809c2.31-.154,4.638-.041,7.017-.041" transform="translate(-1739.795 4551.585)" fill="#161615"/>
    <path id="Path_292" data-name="Path 292" d="M33.621,437.615v5.815c-2.345,0-4.632.1-6.906-.033a2.888,2.888,0,0,1,.094-5.747c2.232-.139,4.478-.035,6.812-.035" transform="translate(-1739.795 4551.585)" fill="#161615"/>
    <path id="Path_293" data-name="Path 293" d="M99.521,443.379v-5.757c2.371,0,4.688-.1,6.993.035a2.869,2.869,0,0,1,.024,5.681c-2.3.157-4.622.041-7.017.041" transform="translate(-1739.795 4551.585)" fill="#161615"/>
    <path id="Path_294" data-name="Path 294" d="M99.51,453.823v-5.7c2.409,0,4.775-.1,7.126.039a2.856,2.856,0,0,1-.005,5.62c-2.347.169-4.715.045-7.121.045" transform="translate(-1739.795 4551.585)" fill="#161615"/>
    <path id="Path_295" data-name="Path 295" d="M99.515,474.837v-5.811c2.378,0,4.708-.1,7.025.035a2.721,2.721,0,0,1,2.446,2.926,2.865,2.865,0,0,1-2.761,2.822c-2.193.114-4.4.028-6.71.028" transform="translate(-1739.795 4551.585)" fill="#161615"/>
    <path id="Path_296" data-name="Path 296" d="M33.616,464.38c-2.321,0-4.565.075-6.8-.026a2.825,2.825,0,0,1-2.659-2.776,2.774,2.774,0,0,1,2.55-2.983c2.271-.15,4.559-.038,6.909-.038Z" transform="translate(-1739.795 4551.585)" fill="#161615"/>
    <path id="Path_297" data-name="Path 297" d="M99.515,464.374v-5.792c2.416,0,4.787-.111,7.14.041a2.656,2.656,0,0,1,2.32,2.892,2.833,2.833,0,0,1-2.741,2.83c-2.193.117-4.4.029-6.719.029" transform="translate(-1739.795 4551.585)" fill="#161615"/>
    <path id="Path_298" data-name="Path 298" d="M33.614,469.023v5.7c-2.429,0-4.873.136-7.291-.053a2.635,2.635,0,0,1-2.172-2.885,2.764,2.764,0,0,1,2.55-2.728c2.274-.131,4.561-.035,6.913-.035" transform="translate(-1739.795 4551.585)" fill="#161615"/>
    <path id="Path_299" data-name="Path 299" d="M79.96,418.039H74.172c0-2.369-.114-4.7.041-7a2.663,2.663,0,0,1,2.882-2.329,2.834,2.834,0,0,1,2.835,2.729c.121,2.149.03,4.311.03,6.6" transform="translate(-1739.795 4551.585)" fill="#161615"/>
    <path id="Path_300" data-name="Path 300" d="M69.493,418.041h-5.81c0-2.322-.1-4.6.036-6.87a2.723,2.723,0,0,1,2.906-2.464,2.826,2.826,0,0,1,2.84,2.715c.112,2.151.028,4.312.028,6.619" transform="translate(-1739.795 4551.585)" fill="#161615"/>
    <path id="Path_301" data-name="Path 301" d="M58.992,418.024h-5.7c0-2.392-.13-4.793.051-7.17a2.631,2.631,0,0,1,2.9-2.146,2.729,2.729,0,0,1,2.717,2.546c.143,2.226.037,4.469.037,6.77" transform="translate(-1739.795 4551.585)" fill="#161615"/>
    <path id="Path_302" data-name="Path 302" d="M63.734,483.921h5.7c0,2.352.1,4.675-.039,6.983a2.855,2.855,0,0,1-5.618.015c-.17-2.3-.045-4.629-.045-7" transform="translate(-1739.795 4551.585)" fill="#161615"/>
    <path id="Path_303" data-name="Path 303" d="M53.176,483.918h5.8c0,2.364.115,4.689-.041,7a2.7,2.7,0,0,1-3,2.334,2.87,2.87,0,0,1-2.724-2.716c-.1-2.153-.026-4.313-.026-6.615" transform="translate(-1739.795 4551.585)" fill="#161615"/>
    <path id="Path_304" data-name="Path 304" d="M74.172,483.932h5.677c0,2.4.13,4.8-.051,7.182a2.631,2.631,0,0,1-2.9,2.138,2.689,2.689,0,0,1-2.684-2.428c-.15-2.268-.04-4.553-.04-6.892" transform="translate(-1739.795 4551.585)" fill="#161615"/>
    <path id="Path_305" data-name="Path 305" d="M99.528,427.1c2.247,0,4.36-.062,6.467.019a2.914,2.914,0,0,1,2.979,2.987,2.874,2.874,0,0,1-3.054,2.882c-2.107.051-4.216.012-6.392.012Z" transform="translate(-1739.795 4551.585)" fill="#161615"/>
    <path id="Path_306" data-name="Path 306" d="M33.572,432.962c-2.284,0-4.561.084-6.829-.029a2.736,2.736,0,0,1-2.573-2.927A2.9,2.9,0,0,1,27,427.134c1.3-.1,2.62-.037,3.931-.042.844,0,1.687,0,2.644,0Z" transform="translate(-1739.795 4551.585)" fill="#161615"/>
    <path id="Path_307" data-name="Path 307" d="M48.495,418.05H42.823c0-2.4-.127-4.8.049-7.171a2.611,2.611,0,0,1,2.865-2.169,2.673,2.673,0,0,1,2.719,2.364c.144,2.3.039,4.623.039,6.976" transform="translate(-1739.795 4551.585)" fill="#161615"/>
    <path id="Path_308" data-name="Path 308" d="M90.412,418.05H84.63c0-2.355-.1-4.675.037-6.981a2.67,2.67,0,0,1,2.842-2.362,2.807,2.807,0,0,1,2.87,2.669c.132,2.18.033,4.375.033,6.674" transform="translate(-1739.795 4551.585)" fill="#161615"/>
    <path id="Path_309" data-name="Path 309" d="M84.64,483.944h5.67c0,2.382.134,4.782-.052,7.158a2.614,2.614,0,0,1-2.886,2.152,2.7,2.7,0,0,1-2.695-2.411c-.138-2.267-.037-4.55-.037-6.9" transform="translate(-1739.795 4551.585)" fill="#161615"/>
    <path id="Path_310" data-name="Path 310" d="M48.591,483.964c0,2.194.051,4.27-.015,6.342a2.849,2.849,0,0,1-2.87,2.946,2.9,2.9,0,0,1-2.983-2.857c-.1-2.109-.024-4.225-.024-6.431Z" transform="translate(-1739.795 4551.585)" fill="#161615"/>
    <path id="Path_311" data-name="Path 311" d="M41.826,450.925c0-6.879-.02-13.758.034-20.636a3.785,3.785,0,0,1,.765-1.862c1.24-1.869,3.005-2.267,5.225-2.249,13.034.111,26.07.064,39.105.036a3.217,3.217,0,0,1,2.127.852c1.8,1.395,2.313,3.1,2.293,5.375-.115,12.823-.072,25.647-.028,38.471a2.984,2.984,0,0,1-1.182,2.74c-.992.7-1.431,2.1-3,2.093-13.8-.029-27.6,0-41.4-.055a3.908,3.908,0,0,1-1.808-.906c-1.838-1.228-2.238-2.961-2.186-5.134.149-6.239.053-12.483.052-18.725m8.014-3.439c-.822,1.436-1.6,2.791-2.375,4.148a4.227,4.227,0,0,0-.341,4.145c1.477,2.844,3.129,5.6,4.738,8.439,1.22-4.553,4.251-7.965,6.158-12.006l2.014,1.008c-1.211-2.441-2.27-4.61-3.373-6.755-.145-.282-.527-.646-.786-.635-2.523.1-5.043.28-7.875.454l1.84,1.2m21.671,20.9c1.613,0,3.171,0,4.729,0a4.733,4.733,0,0,0,4.382-2.551c.736-1.289,1.49-2.567,2.229-3.855.7-1.22,1.391-2.446,2.061-3.624-4.475,1.128-8.913.268-13.368.608-.068-.745-.118-1.3-.2-2.172-1.538,2.306-2.926,4.366-4.279,6.448a.89.89,0,0,0-.033.786c1.372,2.121,2.782,4.217,4.337,6.554.055-.873.091-1.444.139-2.194m7.289-29.2c-.764-1.319-1.492-2.509-2.156-3.734a4.988,4.988,0,0,0-4.849-2.849c-2.543.056-5.089.01-7.633.018a6.727,6.727,0,0,0-.776.079c3.278,3.221,4.685,7.542,7.222,11.192l-1.818,1.242c2.749.174,5.192.343,7.636.466a1.034,1.034,0,0,0,.818-.379c1.158-2.239,2.266-4.5,3.525-7.038l-1.969,1m-4.958,10.376a57.626,57.626,0,0,1,3.355,5.937c.915,2.161,2.356,2.593,4.472,2.38,3.131-.315,5.385-3.447,4.135-6.33a75.657,75.657,0,0,0-3.763-6.779c-.8,1.607-1.449,3.035-2.217,4.4a1.538,1.538,0,0,1-1.145.644c-1.521-.007-3.042-.145-4.837-.25m-12.536-2.948,4.14-7.16a2.185,2.185,0,0,0,.305-.555c.072-.339.212-.763.079-1.029a15.2,15.2,0,0,0-1.494-2.51c-1.717-2.225-5.306-2.533-7.036-.355a68.74,68.74,0,0,0-4.288,6.882c1.756-.119,3.152-.175,4.538-.322a1.447,1.447,0,0,1,1.754,1c.548,1.322,1.262,2.576,2,4.052m3.7,21.744a37.081,37.081,0,0,0-2.112-3.134,2.028,2.028,0,0,1-.036-3.066,29.456,29.456,0,0,0,2.146-3.222c-3.223,0-6.211-.007-9.2.016a.827.827,0,0,0-.6.354,17.488,17.488,0,0,0-1.54,2.909,4.6,4.6,0,0,0,3.943,6.114c2.358.142,4.731.029,7.4.029" transform="translate(-1739.795 4551.585)" fill="#fff"/>
    <path id="Path_312" data-name="Path 312" d="M49.84,447.486l-1.84-1.2c2.831-.174,5.352-.35,7.875-.454.258-.011.64.353.786.635,1.1,2.145,2.162,4.314,3.373,6.755l-2.014-1.008c-1.907,4.041-4.938,7.453-6.159,12.006-1.609-2.841-3.261-5.6-4.737-8.439a4.227,4.227,0,0,1,.34-4.145c.776-1.357,1.553-2.712,2.376-4.148" transform="translate(-1739.795 4551.585)" fill="#161615"/>
    <path id="Path_313" data-name="Path 313" d="M71.511,468.381c-.048.751-.084,1.321-.139,2.194-1.555-2.337-2.965-4.433-4.337-6.554a.89.89,0,0,1,.033-.786c1.353-2.082,2.741-4.142,4.279-6.448.079.867.129,1.427.2,2.172,4.455-.34,8.893.52,13.367-.607-.669,1.177-1.359,2.4-2.06,3.624-.739,1.287-1.493,2.565-2.229,3.855a4.732,4.732,0,0,1-4.382,2.55H71.511" transform="translate(-1739.795 4551.585)" fill="#161615"/>
    <path id="Path_314" data-name="Path 314" d="M78.8,439.179l1.969-1c-1.26,2.535-2.367,4.8-3.526,7.038a1.03,1.03,0,0,1-.817.379c-2.445-.122-4.887-.292-7.636-.466l1.817-1.242c-2.536-3.649-3.944-7.971-7.222-11.192a6.769,6.769,0,0,1,.776-.079c2.545-.007,5.09.038,7.634-.018a4.989,4.989,0,0,1,4.849,2.849c.663,1.225,1.391,2.415,2.156,3.734" transform="translate(-1739.795 4551.585)" fill="#161615"/>
    <path id="Path_315" data-name="Path 315" d="M73.842,449.555c1.795.105,3.316.243,4.837.251a1.54,1.54,0,0,0,1.144-.645c.769-1.363,1.422-2.791,2.218-4.4a75.8,75.8,0,0,1,3.763,6.779c1.25,2.884-1,6.015-4.136,6.33-2.115.213-3.556-.218-4.471-2.38a58,58,0,0,0-3.355-5.937" transform="translate(-1739.795 4551.585)" fill="#161615"/>
    <path id="Path_316" data-name="Path 316" d="M61.306,446.607c-.74-1.475-1.454-2.729-2-4.051a1.446,1.446,0,0,0-1.754-1c-1.386.147-2.782.2-4.538.322A68.74,68.74,0,0,1,57.3,435c1.73-2.178,5.319-1.87,7.036.355a15.113,15.113,0,0,1,1.494,2.51c.133.266-.007.69-.079,1.029a2.155,2.155,0,0,1-.305.555l-4.14,7.159" transform="translate(-1739.795 4551.585)" fill="#161615"/>
    <path id="Path_317" data-name="Path 317" d="M65.01,468.352c-2.668,0-5.041.113-7.4-.029a4.6,4.6,0,0,1-3.943-6.114,17.488,17.488,0,0,1,1.54-2.909.827.827,0,0,1,.6-.354c2.988-.023,5.976-.016,9.2-.016a29.456,29.456,0,0,1-2.146,3.222,2.028,2.028,0,0,0,.036,3.066,37.081,37.081,0,0,1,2.112,3.134" transform="translate(-1739.795 4551.585)" fill="#161615"/>
  </g>
</svg>
