<svg xmlns="http://www.w3.org/2000/svg" width="35.506" height="35.513" viewBox="0 0 35.506 35.513">
  <g id="Group_85" data-name="Group 85" transform="translate(-1135.023 -8113)">
    <path id="Path_371" data-name="Path 371" d="M511.653,35.513H493.9c-.315-.057-.632-.11-.947-.174a9.808,9.808,0,0,1-7.927-9.674q-.008-7.905.006-15.809a10.646,10.646,0,0,1,.166-1.893A9.783,9.783,0,0,1,492.816.218a10.585,10.585,0,0,1,2.1-.207C500.156-.005,505.4.006,510.647,0a9.468,9.468,0,0,1,4.031.838,9.665,9.665,0,0,1,5.585,6.725c.108.434.179.877.266,1.317V26.635a2.984,2.984,0,0,0-.072.3,9.221,9.221,0,0,1-.769,2.747,9.689,9.689,0,0,1-6.722,5.566c-.433.108-.875.178-1.313.266m5.694-17.738h.014q0-3.866,0-7.733a7.343,7.343,0,0,0-.34-2.35,6.711,6.711,0,0,0-6.462-4.53c-5.188.034-10.378.011-15.566.008a7.18,7.18,0,0,0-2.281.341,6.719,6.719,0,0,0-4.53,6.5c.04,5.166.008,10.333.017,15.5a8.165,8.165,0,0,0,.135,1.548,6.661,6.661,0,0,0,6.625,5.3c5.212-.032,10.424-.012,15.637-.006a6.45,6.45,0,0,0,3.166-.736,6.313,6.313,0,0,0,3.567-5.584c.082-2.749.019-5.5.019-8.252" transform="translate(650 8113)" fill="#ffb614"/>
    <path id="Path_372" data-name="Path 372" d="M508.905,33.035a9.154,9.154,0,1,1,9.146-9.142,9.171,9.171,0,0,1-9.146,9.142m.008-15.133a5.979,5.979,0,1,0,5.965,6,5.961,5.961,0,0,0-5.965-6" transform="translate(643.877 8106.876)" fill="#ffb614"/>
    <path id="Path_373" data-name="Path 373" d="M530.074,14.772a2.318,2.318,0,0,1-2.308-2.316,2.318,2.318,0,1,1,4.636.018,2.321,2.321,0,0,1-2.328,2.3" transform="translate(632.228 8108.78)" fill="#ffb614"/>
  </g>
</svg>
