<svg id="Group_179" data-name="Group 179" xmlns="http://www.w3.org/2000/svg" xmlns:xlink="http://www.w3.org/1999/xlink" width="135" height="121.28" viewBox="0 0 135 121.28">
  <defs>
    <clipPath id="clip-path">
      <rect id="Rectangle_112" data-name="Rectangle 112" width="135" height="121.28" fill="none"/>
    </clipPath>
  </defs>
  <g id="Group_178" data-name="Group 178" clip-path="url(#clip-path)">
    <path id="Path_517" data-name="Path 517" d="M7.725,151.795l-3.133-5.727H3.4v5.727H0V137.364H5.5a9.616,9.616,0,0,1,2.029.214,5.273,5.273,0,0,1,1.774.724,3.783,3.783,0,0,1,1.253,1.345,4.192,4.192,0,0,1,.469,2.079,3.834,3.834,0,0,1-.8,2.466,4.331,4.331,0,0,1-2.2,1.426l3.771,6.176Zm-.143-10.008a1.445,1.445,0,0,0-.215-.826,1.468,1.468,0,0,0-.553-.489,2.407,2.407,0,0,0-.758-.235,5.65,5.65,0,0,0-.809-.061H3.384v3.363H5.043a5.564,5.564,0,0,0,.881-.071,2.8,2.8,0,0,0,.819-.255,1.477,1.477,0,0,0,.84-1.426" transform="translate(0 -41.411)" fill="#fff"/>
    <path id="Path_518" data-name="Path 518" d="M25.183,151.8V137.364h9.7V140.3H28.546v2.731h5.993v2.793H28.546v3h6.706V151.8Z" transform="translate(-7.592 -41.411)" fill="#fff"/>
    <path id="Path_519" data-name="Path 519" d="M58.775,151.373a7.74,7.74,0,0,1-3.241.642,8.46,8.46,0,0,1-3.088-.55,7.129,7.129,0,0,1-4.086-3.976,8.444,8.444,0,0,1,.01-6.236,6.971,6.971,0,0,1,1.66-2.4,7.373,7.373,0,0,1,2.487-1.519,8.91,8.91,0,0,1,6.085.01,5.755,5.755,0,0,1,2.4,1.579l-2.365,2.365a2.936,2.936,0,0,0-1.285-1,4.263,4.263,0,0,0-1.63-.326,4.126,4.126,0,0,0-1.681.337,3.945,3.945,0,0,0-1.315.928,4.244,4.244,0,0,0-.856,1.4,4.931,4.931,0,0,0-.305,1.764,5.064,5.064,0,0,0,.305,1.793,4.162,4.162,0,0,0,.846,1.4,3.807,3.807,0,0,0,1.3.907,4.105,4.105,0,0,0,1.651.326,3.847,3.847,0,0,0,1.815-.407,3.524,3.524,0,0,0,1.243-1.06l2.426,2.283a6.858,6.858,0,0,1-2.365,1.743" transform="translate(-14.401 -41.244)" fill="#fff"/>
    <path id="Path_520" data-name="Path 520" d="M89.281,144.351a8.047,8.047,0,0,1-.591,3.129,7.133,7.133,0,0,1-1.641,2.426,7.312,7.312,0,0,1-2.5,1.56,8.765,8.765,0,0,1-3.139.55,8.676,8.676,0,0,1-3.128-.55,7.33,7.33,0,0,1-2.487-1.56,7.123,7.123,0,0,1-1.641-2.426,8.047,8.047,0,0,1-.591-3.129,7.956,7.956,0,0,1,.591-3.129,6.854,6.854,0,0,1,1.641-2.375,7.31,7.31,0,0,1,2.487-1.508,8.968,8.968,0,0,1,3.128-.53,9.06,9.06,0,0,1,3.139.53,7.293,7.293,0,0,1,2.5,1.508,6.864,6.864,0,0,1,1.641,2.375,7.956,7.956,0,0,1,.591,3.129m-3.73,0a4.961,4.961,0,0,0-.305-1.753,4.193,4.193,0,0,0-.846-1.4,3.9,3.9,0,0,0-1.3-.916,4.118,4.118,0,0,0-1.682-.337,4.018,4.018,0,0,0-2.976,1.253,3.977,3.977,0,0,0-.846,1.4,5.1,5.1,0,0,0-.3,1.753,5.157,5.157,0,0,0,.306,1.8,4.259,4.259,0,0,0,.846,1.416,3.85,3.85,0,0,0,1.294.928,4.318,4.318,0,0,0,3.343,0,3.975,3.975,0,0,0,1.3-.928,4.19,4.19,0,0,0,.856-1.416,5.173,5.173,0,0,0,.305-1.8" transform="translate(-22.178 -41.244)" fill="#fff"/>
    <path id="Path_521" data-name="Path 521" d="M116.449,147.6a3.889,3.889,0,0,1-.469,1.987,3.721,3.721,0,0,1-1.243,1.294,5.42,5.42,0,0,1-1.763.7,9.576,9.576,0,0,1-2.029.214H105.2V137.364h5.748a8.85,8.85,0,0,1,1.713.173,5.077,5.077,0,0,1,1.589.592,3.176,3.176,0,0,1,1.611,2.945,3,3,0,0,1-.652,1.987,3.639,3.639,0,0,1-1.712,1.132v.04a3.959,3.959,0,0,1,1.151.378,3.33,3.33,0,0,1,.938.7,3.284,3.284,0,0,1,.631,1,3.351,3.351,0,0,1,.235,1.285m-3.954-6.054a1.153,1.153,0,0,0-.561-1.069,3.275,3.275,0,0,0-1.661-.337H108.56v2.976h1.876a2.527,2.527,0,0,0,1.519-.4,1.365,1.365,0,0,0,.54-1.172m.469,5.728a1.274,1.274,0,0,0-.673-1.243,3.944,3.944,0,0,0-1.794-.346H108.56v3.3h1.957a5.272,5.272,0,0,0,.846-.071,2.671,2.671,0,0,0,.8-.255,1.516,1.516,0,0,0,.58-.52,1.532,1.532,0,0,0,.224-.866" transform="translate(-31.714 -41.411)" fill="#ffb614"/>
    <path id="Path_522" data-name="Path 522" d="M139.457,151.8l-1.121-2.833h-5.585l-1.059,2.833H127.9l6.053-14.432h3.384L143.33,151.8Zm-3.873-10.579-1.835,4.954h3.628Z" transform="translate(-38.558 -41.411)" fill="#ffb614"/>
    <path id="Path_523" data-name="Path 523" d="M161.373,140.34v11.454h-3.485V140.34h-4.077v-2.976H165.45v2.976Z" transform="translate(-46.369 -41.411)" fill="#ffb614"/>
    <path id="Path_524" data-name="Path 524" d="M184.163,140.34v11.454h-3.485V140.34H176.6v-2.976H188.24v2.976Z" transform="translate(-53.24 -41.411)" fill="#ffb614"/>
    <path id="Path_525" data-name="Path 525" d="M29.287,170.981a2.171,2.171,0,0,0,1.063-.246l.227-1.278H29.539l.1-.545H31.29l-.388,2.225a3.3,3.3,0,0,1-.808.3,3.879,3.879,0,0,1-.884.1,2.462,2.462,0,0,1-.854-.143,1.933,1.933,0,0,1-.662-.4,1.76,1.76,0,0,1-.425-.622,2.092,2.092,0,0,1-.149-.8,2.939,2.939,0,0,1,.211-1.116,2.83,2.83,0,0,1,.58-.9,2.763,2.763,0,0,1,.866-.61,2.568,2.568,0,0,1,1.067-.224,2.359,2.359,0,0,1,.93.181,1.418,1.418,0,0,1,.652.532l-.525.383a1.206,1.206,0,0,0-.4-.383,1.251,1.251,0,0,0-.68-.168,1.794,1.794,0,0,0-.824.191,2.148,2.148,0,0,0-.648.5,2.257,2.257,0,0,0-.422.713,2.35,2.35,0,0,0-.149.822,1.712,1.712,0,0,0,.1.592,1.363,1.363,0,0,0,.292.476,1.348,1.348,0,0,0,.47.314,1.7,1.7,0,0,0,.643.113" transform="translate(-8.176 -50.259)" fill="#fff"/>
    <path id="Path_526" data-name="Path 526" d="M36.519,170.915H38.9l-.1.558h-3.01l.811-4.592h2.828l-.1.557h-2.2l-.24,1.389h2.1l-.1.538h-2.1Z" transform="translate(-10.79 -50.31)" fill="#fff"/>
    <path id="Path_527" data-name="Path 527" d="M45.88,167.661a.947.947,0,0,0-.35-.3,1.079,1.079,0,0,0-.5-.113,1.315,1.315,0,0,0-.334.045,1.02,1.02,0,0,0-.318.146.828.828,0,0,0-.24.256.7.7,0,0,0-.094.37.567.567,0,0,0,.055.259.623.623,0,0,0,.153.195,1.1,1.1,0,0,0,.233.152,2.778,2.778,0,0,0,.3.126,3.824,3.824,0,0,1,.47.2,1.765,1.765,0,0,1,.383.265,1.122,1.122,0,0,1,.259.351,1.049,1.049,0,0,1,.094.457,1.421,1.421,0,0,1-.12.587,1.31,1.31,0,0,1-.344.463,1.614,1.614,0,0,1-.541.305,2.176,2.176,0,0,1-.714.11,2.177,2.177,0,0,1-.856-.179,1.591,1.591,0,0,1-.367-.221,1.186,1.186,0,0,1-.275-.314l.532-.356a1.031,1.031,0,0,0,.393.379,1.17,1.17,0,0,0,.6.153,1.3,1.3,0,0,0,.379-.055,1.046,1.046,0,0,0,.328-.162.82.82,0,0,0,.23-.266.756.756,0,0,0,.087-.372.626.626,0,0,0-.071-.305.762.762,0,0,0-.195-.227,1.4,1.4,0,0,0-.286-.172c-.108-.05-.222-.1-.344-.139s-.263-.111-.389-.175a1.411,1.411,0,0,1-.33-.233,1.047,1.047,0,0,1-.228-.325,1.092,1.092,0,0,1-.084-.448,1.329,1.329,0,0,1,.126-.58,1.272,1.272,0,0,1,.353-.444,1.7,1.7,0,0,1,.538-.282,2.168,2.168,0,0,1,.675-.1,1.878,1.878,0,0,1,.749.149,1.216,1.216,0,0,1,.536.422Z" transform="translate(-12.895 -50.259)" fill="#fff"/>
    <path id="Path_528" data-name="Path 528" d="M51.661,171.473h-.636l.713-4.034H50.285l.1-.558h3.528l-.1.558h-1.44Z" transform="translate(-15.16 -50.31)" fill="#fff"/>
    <path id="Path_529" data-name="Path 529" d="M57.6,171.473h-.636l.811-4.592h.635Z" transform="translate(-17.172 -50.31)" fill="#fff"/>
    <path id="Path_530" data-name="Path 530" d="M63.657,171.03a2.587,2.587,0,0,1-.872-.14,1.912,1.912,0,0,1-.671-.4,1.769,1.769,0,0,1-.432-.626,2.11,2.11,0,0,1-.152-.82,2.983,2.983,0,0,1,.2-1.106,2.838,2.838,0,0,1,.565-.9,2.67,2.67,0,0,1,.846-.61,2.647,2.647,0,0,1,1.913-.084,1.92,1.92,0,0,1,.668.4,1.78,1.78,0,0,1,.432.623,2.1,2.1,0,0,1,.152.817,3.1,3.1,0,0,1-.2,1.109,2.771,2.771,0,0,1-.555.9,2.636,2.636,0,0,1-.843.61,2.5,2.5,0,0,1-1.058.224m1.992-2.791a1.686,1.686,0,0,0-.1-.58,1.389,1.389,0,0,0-.286-.472,1.31,1.31,0,0,0-.464-.321,1.6,1.6,0,0,0-.633-.117,1.738,1.738,0,0,0-.814.191,2.008,2.008,0,0,0-.625.505,2.284,2.284,0,0,0-.4.715,2.492,2.492,0,0,0-.14.822,1.692,1.692,0,0,0,.1.576,1.413,1.413,0,0,0,.282.476,1.285,1.285,0,0,0,.46.32,1.633,1.633,0,0,0,.639.117,1.763,1.763,0,0,0,.82-.188,1.937,1.937,0,0,0,.623-.5,2.331,2.331,0,0,0,.4-.715,2.51,2.51,0,0,0,.14-.828m-1.265-2.281H63.9l.811-.934h.719Z" transform="translate(-18.549 -49.75)" fill="#fff"/>
    <path id="Path_531" data-name="Path 531" d="M74.208,170.578h.013l.648-3.7H75.5l-.81,4.592H73.9L72.217,167.7H72.2l-.668,3.775h-.629l.812-4.592h.81Z" transform="translate(-21.376 -50.31)" fill="#fff"/>
    <path id="Path_532" data-name="Path 532" d="M84.884,166.881h1.485a2.863,2.863,0,0,1,.772.107,2.051,2.051,0,0,1,.687.337,1.719,1.719,0,0,1,.493.6,1.91,1.91,0,0,1,.188.879,2.759,2.759,0,0,1-.211,1.1,2.448,2.448,0,0,1-.587.843,2.627,2.627,0,0,1-.889.541,3.15,3.15,0,0,1-1.115.192H84.073Zm-.085,4.034h.941a2.248,2.248,0,0,0,.91-.172,1.967,1.967,0,0,0,.659-.457,1.9,1.9,0,0,0,.4-.652,2.2,2.2,0,0,0,.133-.755,1.6,1.6,0,0,0-.1-.562,1.3,1.3,0,0,0-.3-.46,1.416,1.416,0,0,0-.506-.314,2.061,2.061,0,0,0-.729-.117h-.8Z" transform="translate(-25.345 -50.31)" fill="#fff"/>
    <path id="Path_533" data-name="Path 533" d="M93.685,170.915h2.38l-.1.558h-3.01l.811-4.592H96.6l-.1.557h-2.2l-.24,1.389h2.1l-.1.538h-2.1Z" transform="translate(-28.024 -50.31)" fill="#fff"/>
    <path id="Path_534" data-name="Path 534" d="M105.026,171.473H104.4l.811-4.593h1.3a2.355,2.355,0,0,1,.616.075,1.418,1.418,0,0,1,.477.22,1.014,1.014,0,0,1,.3.357,1.067,1.067,0,0,1,.107.49,1.325,1.325,0,0,1-.1.525,1.22,1.22,0,0,1-.266.393,1.345,1.345,0,0,1-.4.269,2.085,2.085,0,0,1-.513.149l.979,2.115H107l-.914-2.05h-.708Zm.448-2.575h.708a2.646,2.646,0,0,0,.464-.039,1.117,1.117,0,0,0,.376-.133.731.731,0,0,0,.253-.247.722.722,0,0,0,.094-.386.56.56,0,0,0-.256-.519,1.341,1.341,0,0,0-.7-.155h-.675Z" transform="translate(-31.473 -50.309)" fill="#fff"/>
    <path id="Path_535" data-name="Path 535" d="M112.663,170.915h2.38l-.1.558h-3.01l.811-4.592h2.828l-.1.557h-2.2l-.24,1.389h2.1l-.1.538h-2.1Z" transform="translate(-33.745 -50.31)" fill="#fff"/>
    <path id="Path_536" data-name="Path 536" d="M122.025,167.661a.947.947,0,0,0-.35-.3,1.079,1.079,0,0,0-.5-.113,1.315,1.315,0,0,0-.334.045,1.02,1.02,0,0,0-.318.146.828.828,0,0,0-.24.256.7.7,0,0,0-.094.37.567.567,0,0,0,.055.259.623.623,0,0,0,.153.195,1.1,1.1,0,0,0,.233.152,2.778,2.778,0,0,0,.3.126,3.826,3.826,0,0,1,.47.2,1.765,1.765,0,0,1,.383.265,1.121,1.121,0,0,1,.259.351,1.049,1.049,0,0,1,.094.457,1.421,1.421,0,0,1-.12.587,1.31,1.31,0,0,1-.344.463,1.614,1.614,0,0,1-.541.305,2.176,2.176,0,0,1-.714.11,2.177,2.177,0,0,1-.856-.179,1.591,1.591,0,0,1-.367-.221,1.185,1.185,0,0,1-.275-.314l.532-.356a1.031,1.031,0,0,0,.393.379,1.17,1.17,0,0,0,.6.153,1.3,1.3,0,0,0,.379-.055,1.046,1.046,0,0,0,.328-.162.82.82,0,0,0,.23-.266.756.756,0,0,0,.087-.372.626.626,0,0,0-.071-.305.762.762,0,0,0-.195-.227,1.4,1.4,0,0,0-.286-.172c-.108-.05-.222-.1-.344-.139s-.263-.111-.389-.175a1.411,1.411,0,0,1-.33-.233,1.047,1.047,0,0,1-.228-.325,1.092,1.092,0,0,1-.084-.448,1.329,1.329,0,0,1,.126-.58,1.272,1.272,0,0,1,.353-.444,1.7,1.7,0,0,1,.538-.282,2.168,2.168,0,0,1,.675-.1,1.878,1.878,0,0,1,.749.149,1.216,1.216,0,0,1,.536.422Z" transform="translate(-35.851 -50.259)" fill="#fff"/>
    <path id="Path_537" data-name="Path 537" d="M126.972,171.473h-.636l.811-4.592h.635Z" transform="translate(-38.087 -50.31)" fill="#fff"/>
    <path id="Path_538" data-name="Path 538" d="M131.521,166.881h1.485a2.863,2.863,0,0,1,.772.107,2.054,2.054,0,0,1,.688.337,1.71,1.71,0,0,1,.492.6,1.91,1.91,0,0,1,.188.879,2.759,2.759,0,0,1-.211,1.1,2.43,2.43,0,0,1-.587.843,2.62,2.62,0,0,1-.889.541,3.15,3.15,0,0,1-1.115.192H130.71Zm-.084,4.034h.94a2.248,2.248,0,0,0,.91-.172,1.967,1.967,0,0,0,.659-.457,1.9,1.9,0,0,0,.4-.652,2.2,2.2,0,0,0,.133-.755,1.6,1.6,0,0,0-.1-.562,1.3,1.3,0,0,0-.295-.46,1.419,1.419,0,0,0-.507-.314,2.061,2.061,0,0,0-.729-.117h-.8Z" transform="translate(-39.405 -50.31)" fill="#fff"/>
    <path id="Path_539" data-name="Path 539" d="M141.545,171.59a2.073,2.073,0,0,1-.71-.11,1.382,1.382,0,0,1-.5-.305,1.249,1.249,0,0,1-.3-.45,1.49,1.49,0,0,1-.1-.548,2.2,2.2,0,0,1,.039-.4l.506-2.893h.636l-.506,2.849a2.017,2.017,0,0,0-.032.343,1.255,1.255,0,0,0,.052.367.775.775,0,0,0,.172.3.827.827,0,0,0,.307.21,1.213,1.213,0,0,0,.46.078,1.344,1.344,0,0,0,.571-.11,1.151,1.151,0,0,0,.389-.295,1.392,1.392,0,0,0,.243-.418,2.752,2.752,0,0,0,.133-.479l.5-2.849h.636l-.506,2.893a3.225,3.225,0,0,1-.2.678,1.978,1.978,0,0,1-.376.58,1.742,1.742,0,0,1-.583.405,2.027,2.027,0,0,1-.821.153" transform="translate(-42.185 -50.31)" fill="#fff"/>
    <path id="Path_540" data-name="Path 540" d="M150.385,171.539a2.57,2.57,0,0,1-.872-.14,1.911,1.911,0,0,1-.671-.4,1.784,1.784,0,0,1-.432-.627,2.123,2.123,0,0,1-.152-.82,2.986,2.986,0,0,1,.2-1.106,2.85,2.85,0,0,1,.565-.9,2.678,2.678,0,0,1,.846-.61,2.647,2.647,0,0,1,1.913-.084,1.914,1.914,0,0,1,.668.4,1.771,1.771,0,0,1,.432.623,2.1,2.1,0,0,1,.152.817,3.085,3.085,0,0,1-.2,1.109,2.755,2.755,0,0,1-.555.9,2.65,2.65,0,0,1-.843.61,2.5,2.5,0,0,1-1.058.224m1.992-2.791a1.689,1.689,0,0,0-.1-.58,1.367,1.367,0,0,0-.286-.472,1.313,1.313,0,0,0-.464-.321,1.612,1.612,0,0,0-.632-.117,1.727,1.727,0,0,0-.814.191,1.99,1.99,0,0,0-.626.5,2.293,2.293,0,0,0-.4.716,2.484,2.484,0,0,0-.139.821,1.716,1.716,0,0,0,.1.577,1.408,1.408,0,0,0,.283.476,1.265,1.265,0,0,0,.46.32,1.617,1.617,0,0,0,.638.117,1.775,1.775,0,0,0,.821-.187,1.944,1.944,0,0,0,.622-.5,2.337,2.337,0,0,0,.4-.715,2.513,2.513,0,0,0,.139-.829" transform="translate(-44.695 -50.259)" fill="#fff"/>
    <path id="Path_541" data-name="Path 541" d="M160.463,167.661a.947.947,0,0,0-.35-.3,1.079,1.079,0,0,0-.5-.113,1.314,1.314,0,0,0-.334.045,1.02,1.02,0,0,0-.318.146.828.828,0,0,0-.24.256.7.7,0,0,0-.094.37.567.567,0,0,0,.055.259.623.623,0,0,0,.153.195,1.1,1.1,0,0,0,.233.152,2.779,2.779,0,0,0,.3.126,3.826,3.826,0,0,1,.47.2,1.766,1.766,0,0,1,.383.265,1.121,1.121,0,0,1,.259.351,1.049,1.049,0,0,1,.094.457,1.421,1.421,0,0,1-.12.587,1.31,1.31,0,0,1-.344.463,1.614,1.614,0,0,1-.541.305,2.176,2.176,0,0,1-.714.11,2.177,2.177,0,0,1-.856-.179,1.591,1.591,0,0,1-.367-.221,1.185,1.185,0,0,1-.275-.314l.532-.356a1.031,1.031,0,0,0,.393.379,1.17,1.17,0,0,0,.6.153,1.3,1.3,0,0,0,.379-.055,1.046,1.046,0,0,0,.328-.162.82.82,0,0,0,.23-.266.756.756,0,0,0,.087-.372.626.626,0,0,0-.071-.305.762.762,0,0,0-.195-.227,1.4,1.4,0,0,0-.286-.172c-.108-.05-.222-.1-.344-.139s-.263-.111-.389-.175a1.412,1.412,0,0,1-.33-.233,1.047,1.047,0,0,1-.228-.325,1.092,1.092,0,0,1-.084-.448,1.329,1.329,0,0,1,.126-.58,1.273,1.273,0,0,1,.353-.444,1.7,1.7,0,0,1,.538-.282,2.169,2.169,0,0,1,.675-.1,1.878,1.878,0,0,1,.749.149,1.216,1.216,0,0,1,.536.422Z" transform="translate(-47.438 -50.259)" fill="#fff"/>
    <path id="Path_542" data-name="Path 542" d="M20.619,45.961v6.92H17.333a3.775,3.775,0,0,0-3.76,3.792V79.326a3.776,3.776,0,0,0,3.76,3.792h3.286v6.92a9.952,9.952,0,0,0,9.953,9.953h86.1a9.952,9.952,0,0,0,9.953-9.953V45.963a9.952,9.952,0,0,0-9.953-9.953h-9.826c.126.821.221,1.611.285,2.464.063.632.063,1.264.063,1.9a17.267,17.267,0,0,1-.063,1.8h9.51a3.749,3.749,0,0,1,3.759,3.759V90.037a3.749,3.749,0,0,1-3.759,3.759H30.572a3.749,3.749,0,0,1-3.759-3.759V45.963a3.768,3.768,0,0,1,3.759-3.76H57.585c-.032-.6-.063-1.2-.063-1.8q0-.948.1-1.9A16,16,0,0,1,58,36.041H30.6a9.93,9.93,0,0,0-9.985,9.92" transform="translate(-4.092 -10.856)" fill="#fff"/>
    <path id="Path_543" data-name="Path 543" d="M77.047,61.3l5.814,3-1.138,2.18-5.782-3a.8.8,0,0,1-.347-1.074l.379-.726a.8.8,0,0,1,1.074-.38" transform="translate(-22.763 -18.457)" fill="#fff"/>
    <path id="Path_544" data-name="Path 544" d="M82.972,57.233l3.7,1.9-1.106,2.18-3.7-1.9a.792.792,0,0,1-.347-1.074l.379-.726a.8.8,0,0,1,1.074-.38" transform="translate(-24.549 -17.23)" fill="#fff"/>
    <path id="Path_545" data-name="Path 545" d="M77.168,68.531l3.7,1.9-1.138,2.149-3.7-1.9a.791.791,0,0,1-.348-1.074l.379-.726a.8.8,0,0,1,1.106-.349" transform="translate(-22.79 -20.63)" fill="#fff"/>
    <path id="Path_546" data-name="Path 546" d="M69.465,26.546c-.126.821-.221,1.611-.285,2.464-.031.632-.062,1.264-.062,1.9,0,.6.032,1.2.062,1.8h5.15c-.032-.6-.063-1.2-.063-1.8q0-.947.1-1.9a15.989,15.989,0,0,1,.379-2.464,21.2,21.2,0,0,1,41.832,2.464,18.939,18.939,0,0,1,.094,1.9c0,.6-.032,1.2-.063,1.8-.032.441-.094.885-.158,1.327A21.226,21.226,0,0,1,95.5,52.106a22.1,22.1,0,0,1-3.57-.316,7.392,7.392,0,0,0,.062-1.453,6.8,6.8,0,0,0-.315-1.8,7.182,7.182,0,0,0-3.571-4.2l-1.2-.632.158-.315a.556.556,0,0,0-.221-.726l-1.453-.726a.527.527,0,0,0-.726.221L77.712,55.582a.556.556,0,0,0,.221.726l1.453.726a.528.528,0,0,0,.726-.221l.159-.316,1.232.632a7.255,7.255,0,0,0,7.173-.316c.159-.094.315-.221.474-.315a26.294,26.294,0,0,0,32.511-22.432c.062-.441.094-.884.126-1.327.031-.6.062-1.2.062-1.8,0-.631,0-1.264-.062-1.9-.063-.852-.159-1.643-.285-2.464a26.4,26.4,0,0,0-52.036-.034" transform="translate(-20.837 -1.393)" fill="#fff"/>
    <path id="Path_547" data-name="Path 547" d="M125.249,70.3V95.23H149.23a2.467,2.467,0,0,0,2.464-2.464V50.461A2.467,2.467,0,0,0,149.23,48h-7.867a29.139,29.139,0,0,1-16.114,22.3" transform="translate(-37.759 -14.47)" fill="#ffb614"/>
    <path id="Path_548" data-name="Path 548" d="M101.517,82.38a28.923,28.923,0,0,1-5.94-.632,9.606,9.606,0,0,1-6.287,1.138v22.148H111.6V80.516a28.125,28.125,0,0,1-10.079,1.864" transform="translate(-26.918 -24.273)" fill="#ffb614"/>
    <path id="Path_549" data-name="Path 549" d="M90.648,18.065l11.693,13.315,4.61,5.165-5.122-2.434-8.194-3.97L92.1,38.165,54.87.8,88.9,26.13Z" transform="translate(-16.542 -0.242)" fill="#ffb614"/>
    <path id="Path_550" data-name="Path 550" d="M92.323,39.352,54.162,1.053,55.074,0,88.231,24.681l1.815-8.359,12.607,14.355,6.909,7.74L101.317,34.5l-7.381-3.575ZM61.833,6.772,91.447,36.494l1.459-7.62,11.008,5.313L101.608,31.6,90.824,19.325,89.137,27.1Z" transform="translate(-16.328)" fill="#161615"/>
  </g>
</svg>
