<svg id="Group_180" data-name="Group 180" xmlns="http://www.w3.org/2000/svg" xmlns:xlink="http://www.w3.org/1999/xlink" width="132.11" height="118.684" viewBox="0 0 132.11 118.684">
  <defs>
    <clipPath id="clip-path">
      <rect id="Rectangle_110" data-name="Rectangle 110" width="132.11" height="118.684" fill="none"/>
    </clipPath>
  </defs>
  <g id="Group_174" data-name="Group 174" clip-path="url(#clip-path)">
    <path id="Path_449" data-name="Path 449" d="M7.56,233.421l-3.066-5.605H3.331v5.605H0V219.3H5.386a9.356,9.356,0,0,1,1.985.209,5.17,5.17,0,0,1,1.736.708,3.71,3.71,0,0,1,1.226,1.316,4.11,4.11,0,0,1,.459,2.035,3.754,3.754,0,0,1-.778,2.414,4.243,4.243,0,0,1-2.154,1.4l3.69,6.044Zm-.14-9.794a1.413,1.413,0,0,0-.211-.808,1.442,1.442,0,0,0-.541-.479,2.36,2.36,0,0,0-.742-.23,5.513,5.513,0,0,0-.792-.06H3.311v3.291H4.935a5.5,5.5,0,0,0,.862-.07,2.741,2.741,0,0,0,.8-.249,1.449,1.449,0,0,0,.822-1.4" transform="translate(0 -125.399)" fill="#161615"/>
    <path id="Path_450" data-name="Path 450" d="M40.2,233.42V219.3H49.7v2.873H43.5v2.673h5.864v2.733H43.5v2.932h6.562v2.912Z" transform="translate(-22.989 -125.399)" fill="#161615"/>
    <path id="Path_451" data-name="Path 451" d="M87.032,232.664a7.559,7.559,0,0,1-3.172.629,8.279,8.279,0,0,1-3.022-.539,6.977,6.977,0,0,1-4-3.89,8.271,8.271,0,0,1,.01-6.1,6.824,6.824,0,0,1,1.626-2.344,7.2,7.2,0,0,1,2.433-1.486,8.719,8.719,0,0,1,5.954.01,5.638,5.638,0,0,1,2.344,1.546L86.892,222.8a2.865,2.865,0,0,0-1.257-.977,4.168,4.168,0,0,0-1.6-.319,4.039,4.039,0,0,0-1.646.329,3.855,3.855,0,0,0-1.286.908,4.133,4.133,0,0,0-.838,1.366,4.821,4.821,0,0,0-.3,1.725,4.962,4.962,0,0,0,.3,1.756,4.078,4.078,0,0,0,.828,1.366,3.715,3.715,0,0,0,1.267.888,4.025,4.025,0,0,0,1.616.319,3.757,3.757,0,0,0,1.776-.4,3.44,3.44,0,0,0,1.216-1.037l2.374,2.234a6.722,6.722,0,0,1-2.314,1.705" transform="translate(-43.607 -124.892)" fill="#161615"/>
    <path id="Path_452" data-name="Path 452" d="M132.821,225.793a7.872,7.872,0,0,1-.578,3.062,6.973,6.973,0,0,1-1.606,2.374,7.152,7.152,0,0,1-2.444,1.526,9,9,0,0,1-6.134,0,7.169,7.169,0,0,1-2.433-1.526,6.968,6.968,0,0,1-1.606-2.374,7.88,7.88,0,0,1-.578-3.062,7.789,7.789,0,0,1,.578-3.062,6.706,6.706,0,0,1,1.606-2.324,7.155,7.155,0,0,1,2.433-1.476,9.321,9.321,0,0,1,6.134,0,7.139,7.139,0,0,1,2.444,1.476,6.711,6.711,0,0,1,1.606,2.324,7.781,7.781,0,0,1,.578,3.062m-3.65,0a4.844,4.844,0,0,0-.3-1.715,4.1,4.1,0,0,0-.828-1.366,3.822,3.822,0,0,0-1.276-.9,4.046,4.046,0,0,0-1.646-.329,3.924,3.924,0,0,0-2.912,1.227,3.878,3.878,0,0,0-.828,1.366,5.3,5.3,0,0,0,.01,3.481,4.176,4.176,0,0,0,.828,1.386,3.77,3.77,0,0,0,1.267.907,4.227,4.227,0,0,0,3.271,0,3.885,3.885,0,0,0,1.277-.907,4.1,4.1,0,0,0,.838-1.386,5.044,5.044,0,0,0,.3-1.765" transform="translate(-67.156 -124.892)" fill="#161615"/>
    <path id="Path_453" data-name="Path 453" d="M178.953,229.311a3.812,3.812,0,0,1-.459,1.945,3.646,3.646,0,0,1-1.217,1.267,5.307,5.307,0,0,1-1.726.688,9.354,9.354,0,0,1-1.985.209h-5.625V219.3h5.625a8.662,8.662,0,0,1,1.675.17,4.974,4.974,0,0,1,1.556.578,3.111,3.111,0,0,1,1.576,2.882,2.941,2.941,0,0,1-.638,1.945,3.564,3.564,0,0,1-1.676,1.107v.04a3.867,3.867,0,0,1,1.127.369,3.19,3.19,0,0,1,1.536,1.666,3.291,3.291,0,0,1,.229,1.257m-3.869-5.924a1.131,1.131,0,0,0-.549-1.047,3.209,3.209,0,0,0-1.625-.329h-1.676v2.912h1.836a2.468,2.468,0,0,0,1.486-.389,1.334,1.334,0,0,0,.529-1.147m.459,5.6a1.248,1.248,0,0,0-.658-1.217,3.86,3.86,0,0,0-1.756-.339h-1.9v3.232h1.915a5.141,5.141,0,0,0,.828-.07,2.591,2.591,0,0,0,.778-.249,1.414,1.414,0,0,0,.788-1.356" transform="translate(-96.033 -125.398)" fill="#ffb614"/>
    <path id="Path_454" data-name="Path 454" d="M215.5,233.42l-1.1-2.772h-5.466L207.9,233.42h-3.71L210.11,219.3h3.312l5.864,14.123Zm-3.79-10.353-1.8,4.847h3.551Z" transform="translate(-116.758 -125.398)" fill="#ffb614"/>
    <path id="Path_455" data-name="Path 455" d="M252.954,222.21v11.21h-3.411V222.21h-3.989V219.3h11.39v2.912Z" transform="translate(-140.413 -125.399)" fill="#ffb614"/>
    <path id="Path_456" data-name="Path 456" d="M289.338,222.21v11.21h-3.411V222.21h-3.989V219.3h11.39v2.912Z" transform="translate(-161.218 -125.399)" fill="#ffb614"/>
    <path id="Path_457" data-name="Path 457" d="M45.419,270.332a2.134,2.134,0,0,0,1.041-.24l.222-1.251H45.666l.1-.534H47.38L47,270.484a3.207,3.207,0,0,1-.79.3,3.811,3.811,0,0,1-.867.1,2.4,2.4,0,0,1-.835-.139,1.885,1.885,0,0,1-.647-.394,1.721,1.721,0,0,1-.416-.609,2.054,2.054,0,0,1-.146-.787,2.874,2.874,0,0,1,.206-1.092,2.773,2.773,0,0,1,.568-.885,2.7,2.7,0,0,1,.847-.6,2.51,2.51,0,0,1,1.044-.219,2.291,2.291,0,0,1,.911.178,1.385,1.385,0,0,1,.638.52l-.514.374a1.178,1.178,0,0,0-.387-.374,1.226,1.226,0,0,0-.667-.165,1.753,1.753,0,0,0-.806.187,2.1,2.1,0,0,0-.635.491,2.215,2.215,0,0,0-.413.7,2.294,2.294,0,0,0-.146.8,1.679,1.679,0,0,0,.1.58,1.323,1.323,0,0,0,.286.465,1.3,1.3,0,0,0,.46.307,1.656,1.656,0,0,0,.628.111" transform="translate(-24.759 -152.193)" fill="#161615"/>
    <path id="Path_458" data-name="Path 458" d="M57.854,270.369h2.329l-.1.546H57.143l.793-4.494H60.7l-.1.546H58.451l-.235,1.358h2.057l-.1.527H58.121Z" transform="translate(-32.676 -152.345)" fill="#161615"/>
    <path id="Path_459" data-name="Path 459" d="M71.33,267.082a.919.919,0,0,0-.343-.3,1.054,1.054,0,0,0-.489-.111,1.281,1.281,0,0,0-.327.045.984.984,0,0,0-.311.143.805.805,0,0,0-.235.25.683.683,0,0,0-.092.362.562.562,0,0,0,.054.254.618.618,0,0,0,.149.191,1.111,1.111,0,0,0,.229.149,2.694,2.694,0,0,0,.292.124,3.657,3.657,0,0,1,.46.2,1.754,1.754,0,0,1,.375.26,1.113,1.113,0,0,1,.254.343,1.034,1.034,0,0,1,.092.447,1.391,1.391,0,0,1-.117.574,1.293,1.293,0,0,1-.337.454,1.6,1.6,0,0,1-.53.3,2.125,2.125,0,0,1-.7.108,2.119,2.119,0,0,1-.838-.174,1.575,1.575,0,0,1-.358-.216,1.167,1.167,0,0,1-.27-.308l.52-.349a1.015,1.015,0,0,0,.384.371,1.145,1.145,0,0,0,.587.149,1.289,1.289,0,0,0,.371-.054,1.012,1.012,0,0,0,.321-.159.81.81,0,0,0,.225-.26.745.745,0,0,0,.086-.365.609.609,0,0,0-.07-.3.738.738,0,0,0-.191-.222,1.377,1.377,0,0,0-.279-.168q-.159-.073-.336-.137a3.918,3.918,0,0,1-.381-.171,1.374,1.374,0,0,1-.324-.229.992.992,0,0,1-.222-.317,1.059,1.059,0,0,1-.083-.438,1.289,1.289,0,0,1,.124-.568,1.244,1.244,0,0,1,.346-.435,1.662,1.662,0,0,1,.527-.276,2.152,2.152,0,0,1,.66-.1,1.837,1.837,0,0,1,.733.146,1.183,1.183,0,0,1,.524.412Z" transform="translate(-39.05 -152.193)" fill="#161615"/>
    <path id="Path_460" data-name="Path 460" d="M81.627,270.915H81l.7-3.948H80.281l.1-.546h3.453l-.1.546H82.325Z" transform="translate(-45.906 -152.345)" fill="#161615"/>
    <path id="Path_461" data-name="Path 461" d="M91.561,270.915h-.622l.793-4.494h.622Z" transform="translate(-52 -152.345)" fill="#161615"/>
    <path id="Path_462" data-name="Path 462" d="M100.314,269.335a2.54,2.54,0,0,1-.854-.136,1.869,1.869,0,0,1-.657-.391,1.739,1.739,0,0,1-.422-.612,2.073,2.073,0,0,1-.149-.8,2.916,2.916,0,0,1,.2-1.082,2.783,2.783,0,0,1,.552-.882,2.62,2.62,0,0,1,.829-.6,2.589,2.589,0,0,1,1.872-.083,1.874,1.874,0,0,1,.653.39,1.742,1.742,0,0,1,.422.61,2.05,2.05,0,0,1,.149.8,3.024,3.024,0,0,1-.194,1.085,2.7,2.7,0,0,1-.543.885,2.583,2.583,0,0,1-.825.6,2.445,2.445,0,0,1-1.034.219m1.949-2.731a1.653,1.653,0,0,0-.1-.567,1.357,1.357,0,0,0-.279-.463,1.294,1.294,0,0,0-.454-.313,1.574,1.574,0,0,0-.619-.114,1.7,1.7,0,0,0-.8.187,1.958,1.958,0,0,0-.612.494,2.244,2.244,0,0,0-.39.7,2.431,2.431,0,0,0-.137.8,1.662,1.662,0,0,0,.1.563,1.37,1.37,0,0,0,.276.466,1.254,1.254,0,0,0,.451.313,1.591,1.591,0,0,0,.625.114,1.737,1.737,0,0,0,.8-.184,1.889,1.889,0,0,0,.609-.491,2.286,2.286,0,0,0,.388-.7,2.46,2.46,0,0,0,.137-.811m-1.238-2.232h-.47l.793-.914h.7Z" transform="translate(-56.171 -150.651)" fill="#161615"/>
    <path id="Path_463" data-name="Path 463" d="M116.434,270.04h.013l.635-3.618h.622l-.793,4.493h-.775l-1.65-3.694h-.013l-.654,3.694H113.2l.793-4.493h.793Z" transform="translate(-64.732 -152.345)" fill="#161615"/>
    <path id="Path_464" data-name="Path 464" d="M135.015,266.422h1.453a2.793,2.793,0,0,1,.755.1,1.994,1.994,0,0,1,.673.33,1.676,1.676,0,0,1,.483.584,1.868,1.868,0,0,1,.184.86,2.7,2.7,0,0,1-.206,1.073,2.4,2.4,0,0,1-.574.825,2.592,2.592,0,0,1-.87.53,3.092,3.092,0,0,1-1.092.188h-1.6Zm-.083,3.948h.92a2.205,2.205,0,0,0,.892-.168,1.918,1.918,0,0,0,.644-.447,1.857,1.857,0,0,0,.39-.638,2.149,2.149,0,0,0,.13-.739,1.575,1.575,0,0,0-.1-.549,1.246,1.246,0,0,0-.289-.45,1.382,1.382,0,0,0-.495-.308,2.012,2.012,0,0,0-.714-.114h-.781Z" transform="translate(-76.751 -152.345)" fill="#161615"/>
    <path id="Path_465" data-name="Path 465" d="M149.118,270.369h2.329l-.1.546h-2.945l.793-4.494h2.767l-.1.546h-2.158l-.235,1.358h2.057l-.1.527h-2.056Z" transform="translate(-84.862 -152.345)" fill="#161615"/>
    <path id="Path_466" data-name="Path 466" d="M167.284,270.916h-.616l.793-4.494h1.276a2.329,2.329,0,0,1,.6.073,1.374,1.374,0,0,1,.466.215.989.989,0,0,1,.3.349,1.045,1.045,0,0,1,.1.479,1.3,1.3,0,0,1-.1.514,1.188,1.188,0,0,1-.26.384,1.314,1.314,0,0,1-.393.263,2.037,2.037,0,0,1-.5.146l.958,2.069h-.7l-.895-2.006h-.692Zm.438-2.52h.692a2.582,2.582,0,0,0,.453-.038,1.1,1.1,0,0,0,.368-.13.665.665,0,0,0,.34-.619.548.548,0,0,0-.25-.508,1.312,1.312,0,0,0-.683-.152h-.66Z" transform="translate(-95.304 -152.345)" fill="#161615"/>
    <path id="Path_467" data-name="Path 467" d="M179.415,270.369h2.329l-.1.546H178.7l.793-4.494h2.767l-.1.546h-2.158l-.235,1.358h2.057l-.1.527h-2.056Z" transform="translate(-102.187 -152.345)" fill="#161615"/>
    <path id="Path_468" data-name="Path 468" d="M192.891,267.082a.919.919,0,0,0-.343-.3,1.055,1.055,0,0,0-.489-.111,1.28,1.28,0,0,0-.327.045.984.984,0,0,0-.311.143.806.806,0,0,0-.235.25.683.683,0,0,0-.092.362.562.562,0,0,0,.054.254.618.618,0,0,0,.149.191,1.112,1.112,0,0,0,.229.149,2.7,2.7,0,0,0,.292.124,3.658,3.658,0,0,1,.46.2,1.754,1.754,0,0,1,.375.26,1.113,1.113,0,0,1,.254.343,1.034,1.034,0,0,1,.092.447,1.391,1.391,0,0,1-.117.574,1.293,1.293,0,0,1-.337.454,1.6,1.6,0,0,1-.53.3,2.125,2.125,0,0,1-.7.108,2.119,2.119,0,0,1-.838-.174,1.576,1.576,0,0,1-.358-.216,1.167,1.167,0,0,1-.27-.308l.52-.349a1.015,1.015,0,0,0,.384.371,1.145,1.145,0,0,0,.587.149,1.289,1.289,0,0,0,.371-.054,1.012,1.012,0,0,0,.321-.159.81.81,0,0,0,.225-.26.745.745,0,0,0,.086-.365.609.609,0,0,0-.07-.3.738.738,0,0,0-.191-.222,1.377,1.377,0,0,0-.279-.168q-.159-.073-.336-.137a3.919,3.919,0,0,1-.381-.171,1.375,1.375,0,0,1-.324-.229.991.991,0,0,1-.222-.317,1.059,1.059,0,0,1-.083-.438,1.289,1.289,0,0,1,.124-.568,1.244,1.244,0,0,1,.346-.435,1.662,1.662,0,0,1,.527-.276,2.152,2.152,0,0,1,.66-.1,1.837,1.837,0,0,1,.733.146,1.183,1.183,0,0,1,.524.412Z" transform="translate(-108.561 -152.193)" fill="#161615"/>
    <path id="Path_469" data-name="Path 469" d="M202.316,270.915h-.622l.793-4.494h.622Z" transform="translate(-115.332 -152.345)" fill="#161615"/>
    <path id="Path_470" data-name="Path 470" d="M209.469,266.422h1.453a2.793,2.793,0,0,1,.755.1,1.994,1.994,0,0,1,.673.33,1.676,1.676,0,0,1,.483.584,1.867,1.867,0,0,1,.184.86,2.7,2.7,0,0,1-.206,1.073,2.4,2.4,0,0,1-.574.825,2.593,2.593,0,0,1-.87.53,3.092,3.092,0,0,1-1.092.188h-1.6Zm-.083,3.948h.92a2.205,2.205,0,0,0,.892-.168,1.918,1.918,0,0,0,.644-.447,1.857,1.857,0,0,0,.39-.638,2.148,2.148,0,0,0,.13-.739,1.575,1.575,0,0,0-.1-.549,1.246,1.246,0,0,0-.289-.45,1.383,1.383,0,0,0-.495-.308,2.012,2.012,0,0,0-.714-.114h-.781Z" transform="translate(-119.325 -152.345)" fill="#161615"/>
    <path id="Path_471" data-name="Path 471" d="M224.974,271.03a2.022,2.022,0,0,1-.695-.108,1.374,1.374,0,0,1-.492-.3,1.238,1.238,0,0,1-.295-.441,1.456,1.456,0,0,1-.1-.536,2.141,2.141,0,0,1,.038-.393l.495-2.831h.622l-.495,2.788a1.9,1.9,0,0,0-.032.336,1.216,1.216,0,0,0,.051.358.762.762,0,0,0,.168.3.823.823,0,0,0,.3.206,1.177,1.177,0,0,0,.45.076,1.3,1.3,0,0,0,.559-.108,1.1,1.1,0,0,0,.381-.289,1.369,1.369,0,0,0,.238-.409,2.721,2.721,0,0,0,.13-.469l.489-2.788h.622l-.495,2.831a3.175,3.175,0,0,1-.2.663,1.937,1.937,0,0,1-.368.568,1.711,1.711,0,0,1-.571.4,1.985,1.985,0,0,1-.8.149" transform="translate(-127.741 -152.345)" fill="#161615"/>
    <path id="Path_472" data-name="Path 472" d="M238.772,270.878a2.538,2.538,0,0,1-.853-.136,1.866,1.866,0,0,1-.657-.39,1.737,1.737,0,0,1-.422-.612,2.073,2.073,0,0,1-.149-.8,2.916,2.916,0,0,1,.2-1.082,2.784,2.784,0,0,1,.552-.882,2.614,2.614,0,0,1,.828-.6,2.447,2.447,0,0,1,1.034-.219,2.473,2.473,0,0,1,.838.136,1.881,1.881,0,0,1,.654.39,1.743,1.743,0,0,1,.422.609,2.05,2.05,0,0,1,.149.8,3.025,3.025,0,0,1-.194,1.085,2.713,2.713,0,0,1-.543.885,2.577,2.577,0,0,1-.825.6,2.444,2.444,0,0,1-1.034.219m1.949-2.731a1.643,1.643,0,0,0-.1-.567,1.35,1.35,0,0,0-.279-.463,1.3,1.3,0,0,0-.454-.313,1.579,1.579,0,0,0-.619-.114,1.7,1.7,0,0,0-.8.187,1.957,1.957,0,0,0-.612.494,2.242,2.242,0,0,0-.391.7,2.444,2.444,0,0,0-.137.8,1.654,1.654,0,0,0,.1.564,1.378,1.378,0,0,0,.276.465,1.258,1.258,0,0,0,.451.313,1.591,1.591,0,0,0,.625.114,1.737,1.737,0,0,0,.8-.184,1.891,1.891,0,0,0,.609-.491,2.286,2.286,0,0,0,.387-.7,2.449,2.449,0,0,0,.137-.811" transform="translate(-135.344 -152.193)" fill="#161615"/>
    <path id="Path_473" data-name="Path 473" d="M254.257,267.082a.919.919,0,0,0-.343-.3,1.055,1.055,0,0,0-.489-.111,1.28,1.28,0,0,0-.327.045.984.984,0,0,0-.311.143.806.806,0,0,0-.235.25.683.683,0,0,0-.092.362.562.562,0,0,0,.054.254.618.618,0,0,0,.149.191,1.112,1.112,0,0,0,.229.149,2.692,2.692,0,0,0,.292.124,3.657,3.657,0,0,1,.46.2,1.753,1.753,0,0,1,.375.26,1.113,1.113,0,0,1,.254.343,1.034,1.034,0,0,1,.092.447,1.391,1.391,0,0,1-.117.574,1.293,1.293,0,0,1-.337.454,1.6,1.6,0,0,1-.53.3,2.125,2.125,0,0,1-.7.108,2.119,2.119,0,0,1-.838-.174,1.575,1.575,0,0,1-.358-.216,1.167,1.167,0,0,1-.27-.308l.52-.349a1.015,1.015,0,0,0,.384.371,1.145,1.145,0,0,0,.587.149,1.289,1.289,0,0,0,.371-.054,1.013,1.013,0,0,0,.321-.159.81.81,0,0,0,.225-.26.745.745,0,0,0,.086-.365.609.609,0,0,0-.07-.3.738.738,0,0,0-.191-.222,1.377,1.377,0,0,0-.279-.168q-.159-.073-.336-.137a3.918,3.918,0,0,1-.381-.171,1.374,1.374,0,0,1-.324-.229.992.992,0,0,1-.222-.317,1.059,1.059,0,0,1-.083-.438,1.289,1.289,0,0,1,.124-.568,1.244,1.244,0,0,1,.346-.435,1.662,1.662,0,0,1,.527-.276,2.152,2.152,0,0,1,.66-.1,1.837,1.837,0,0,1,.733.146,1.183,1.183,0,0,1,.524.412Z" transform="translate(-143.651 -152.193)" fill="#161615"/>
    <path id="Path_474" data-name="Path 474" d="M28.565,67.229V74H25.349A3.7,3.7,0,0,0,21.67,77.71V99.879a3.7,3.7,0,0,0,3.679,3.71h3.216v6.771a9.739,9.739,0,0,0,9.74,9.74h84.253a9.739,9.739,0,0,0,9.739-9.74V67.23a9.739,9.739,0,0,0-9.739-9.74h-9.616c.124.8.216,1.577.279,2.412.061.618.061,1.237.061,1.855a16.967,16.967,0,0,1-.061,1.763h9.306a3.669,3.669,0,0,1,3.679,3.679v43.162a3.669,3.669,0,0,1-3.679,3.679H38.3a3.669,3.669,0,0,1-3.679-3.679V67.23A3.688,3.688,0,0,1,38.3,63.55H64.74c-.031-.587-.062-1.174-.062-1.763q0-.927.092-1.855a15.636,15.636,0,0,1,.371-2.411H38.336a9.717,9.717,0,0,0-9.771,9.707" transform="translate(-12.391 -32.874)" fill="#161615"/>
    <path id="Path_475" data-name="Path 475" d="M122.053,97.823l5.689,2.937-1.113,2.134-5.658-2.937a.783.783,0,0,1-.34-1.051l.371-.711a.786.786,0,0,1,1.051-.372" transform="translate(-68.931 -55.892)" fill="#161615"/>
    <path id="Path_476" data-name="Path 476" d="M131.512,91.323l3.618,1.855-1.082,2.134-3.618-1.855a.774.774,0,0,1-.34-1.051l.371-.711a.788.788,0,0,1,1.051-.372" transform="translate(-74.34 -52.176)" fill="#161615"/>
    <path id="Path_477" data-name="Path 477" d="M122.228,109.347l3.618,1.855-1.113,2.1-3.618-1.855a.774.774,0,0,1-.34-1.051l.371-.711a.786.786,0,0,1,1.082-.341" transform="translate(-69.013 -62.471)" fill="#161615"/>
    <path id="Path_478" data-name="Path 478" d="M110.685,28.835c-.124.8-.217,1.577-.279,2.411-.031.619-.062,1.237-.062,1.855,0,.587.032,1.175.062,1.763h5.039c-.03-.587-.061-1.174-.061-1.763q0-.927.092-1.855a15.636,15.636,0,0,1,.372-2.411,20.745,20.745,0,0,1,40.936,2.411,18.441,18.441,0,0,1,.093,1.855c0,.587-.031,1.175-.062,1.763-.031.432-.092.866-.155,1.3a20.77,20.77,0,0,1-20.5,17.685,21.664,21.664,0,0,1-3.495-.309,7.215,7.215,0,0,0,.061-1.422,6.633,6.633,0,0,0-.308-1.763,7.027,7.027,0,0,0-3.494-4.113l-1.175-.619.155-.308a.544.544,0,0,0-.217-.711l-1.422-.711a.517.517,0,0,0-.711.216l-6.8,13.14a.544.544,0,0,0,.216.711l1.422.711a.516.516,0,0,0,.711-.216l.155-.308,1.205.618a7.1,7.1,0,0,0,7.019-.309c.155-.092.309-.216.463-.309A25.731,25.731,0,0,0,161.762,36.2c.061-.432.092-.866.124-1.3.031-.587.061-1.174.061-1.763,0-.618,0-1.237-.061-1.855-.061-.835-.155-1.608-.279-2.412a25.831,25.831,0,0,0-50.922-.033" transform="translate(-63.097 -4.22)" fill="#161615"/>
    <path id="Path_479" data-name="Path 479" d="M199.958,98.454v24.4h23.467a2.414,2.414,0,0,0,2.411-2.411v-41.4a2.414,2.414,0,0,0-2.411-2.411h-7.7a28.513,28.513,0,0,1-15.769,21.827" transform="translate(-114.34 -43.817)" fill="#ffb614"/>
    <path id="Path_480" data-name="Path 480" d="M154.515,130.366a28.339,28.339,0,0,1-5.813-.618,9.4,9.4,0,0,1-6.153,1.113v21.674h21.829V128.542a27.514,27.514,0,0,1-9.863,1.824" transform="translate(-81.512 -73.503)" fill="#ffb614"/>
    <path id="Path_481" data-name="Path 481" d="M122.611,18.174,134.055,31.2l4.511,5.054-5.012-2.381-8.019-3.884-1.5,7.852L87.6,1.28l33.3,24.786Z" transform="translate(-50.091 -0.732)" fill="#ffb614"/>
    <path id="Path_482" data-name="Path 482" d="M123.814,38.51,86.469,1.03,87.361,0,119.81,24.152l1.775-8.18L133.922,30.02l6.762,7.575-8.069-3.833-7.222-3.5ZM93.975,6.626l28.981,29.087,1.428-7.458,10.772,5.2-2.258-2.53L122.345,18.91,120.7,26.516Z" transform="translate(-49.445 0.001)" fill="#fff"/>
  </g>
</svg>
