<?xml version="1.0" encoding="utf-8"?>
<!-- Generator: Adobe Illustrator 27.1.1, SVG Export Plug-In . SVG Version: 6.00 Build 0)  -->
<svg version="1.1" id="Group_179" xmlns="http://www.w3.org/2000/svg" xmlns:xlink="http://www.w3.org/1999/xlink" x="0px" y="0px"
	 viewBox="0 0 135 121.3" style="enable-background:new 0 0 135 121.3;" xml:space="preserve">
<style type="text/css">
	.st0{fill:#FFFFFF;}
	.st1{fill:#161615;}
</style>
<g>
	<g id="Group_178">
		<path id="Path_517" class="st0" d="M7.7,110.4l-3.1-5.7H3.4v5.7H0V96h5.5c0.7,0,1.4,0.1,2,0.2c0.6,0.1,1.2,0.4,1.8,0.7
			c0.5,0.3,1,0.8,1.3,1.3c0.3,0.6,0.5,1.4,0.5,2.1c0,0.9-0.3,1.8-0.8,2.5c-0.6,0.7-1.3,1.2-2.2,1.4l3.8,6.2L7.7,110.4z M7.6,100.4
			c0-0.3-0.1-0.6-0.2-0.8c-0.1-0.2-0.3-0.4-0.6-0.5c-0.2-0.1-0.5-0.2-0.8-0.2c-0.3,0-0.5-0.1-0.8-0.1H3.4v3.4H5c0.3,0,0.6,0,0.9-0.1
			c0.3,0,0.6-0.1,0.8-0.3C7.3,101.5,7.6,101,7.6,100.4"/>
		<path id="Path_518" class="st0" d="M17.6,110.4V96h9.7v2.9H21v2.7h6v2.8h-6v3h6.7v3H17.6z"/>
		<path id="Path_519" class="st0" d="M44.4,110.1c-1,0.4-2.1,0.7-3.2,0.6c-1.1,0-2.1-0.2-3.1-0.6c-1.9-0.7-3.3-2.1-4.1-4
			c-0.8-2-0.8-4.2,0-6.2c0.4-0.9,0.9-1.7,1.7-2.4c0.7-0.7,1.6-1.2,2.5-1.5c2-0.7,4.1-0.7,6.1,0c0.9,0.3,1.7,0.9,2.4,1.6l-2.4,2.4
			c-0.3-0.4-0.8-0.8-1.3-1c-0.5-0.2-1.1-0.3-1.6-0.3c-0.6,0-1.2,0.1-1.7,0.3c-0.5,0.2-0.9,0.5-1.3,0.9c-0.4,0.4-0.7,0.9-0.9,1.4
			c-0.2,0.6-0.3,1.2-0.3,1.8c0,0.6,0.1,1.2,0.3,1.8c0.2,0.5,0.5,1,0.8,1.4c0.4,0.4,0.8,0.7,1.3,0.9c0.5,0.2,1.1,0.3,1.7,0.3
			c0.6,0,1.3-0.1,1.8-0.4c0.5-0.3,0.9-0.6,1.2-1.1l2.4,2.3C46.1,109.1,45.3,109.7,44.4,110.1"/>
		<path id="Path_520" class="st0" d="M67.1,103.1c0,1.1-0.2,2.1-0.6,3.1c-0.4,0.9-0.9,1.7-1.6,2.4c-0.7,0.7-1.6,1.2-2.5,1.6
			c-1,0.4-2.1,0.6-3.1,0.6c-1.1,0-2.1-0.2-3.1-0.6c-0.9-0.3-1.8-0.9-2.5-1.6c-0.7-0.7-1.3-1.5-1.6-2.4c-0.4-1-0.6-2.1-0.6-3.1
			c0-1.1,0.2-2.1,0.6-3.1c0.4-0.9,0.9-1.7,1.6-2.4c0.7-0.7,1.6-1.2,2.5-1.5c1-0.4,2.1-0.5,3.1-0.5c1.1,0,2.1,0.2,3.1,0.5
			c0.9,0.3,1.8,0.8,2.5,1.5c0.7,0.7,1.3,1.5,1.6,2.4C66.9,101,67.1,102,67.1,103.1 M63.4,103.1c0-0.6-0.1-1.2-0.3-1.8
			c-0.2-0.5-0.5-1-0.8-1.4c-0.4-0.4-0.8-0.7-1.3-0.9c-0.5-0.2-1.1-0.3-1.7-0.3c-1.1,0-2.2,0.4-3,1.3c-0.4,0.4-0.7,0.9-0.8,1.4
			c-0.2,0.6-0.3,1.2-0.3,1.8c0,0.6,0.1,1.2,0.3,1.8c0.2,0.5,0.5,1,0.8,1.4c0.4,0.4,0.8,0.7,1.3,0.9c1.1,0.4,2.3,0.4,3.3,0
			c0.5-0.2,0.9-0.5,1.3-0.9c0.4-0.4,0.7-0.9,0.9-1.4C63.3,104.3,63.4,103.7,63.4,103.1"/>
		<path id="Path_521" class="st0" d="M84.7,106.2c0,0.7-0.1,1.4-0.5,2c-0.3,0.5-0.7,1-1.2,1.3c-0.5,0.3-1.1,0.6-1.8,0.7
			c-0.7,0.1-1.3,0.2-2,0.2h-5.7V96h5.7c0.6,0,1.1,0.1,1.7,0.2c0.6,0.1,1.1,0.3,1.6,0.6c1.1,0.6,1.7,1.7,1.6,2.9c0,0.7-0.2,1.4-0.7,2
			c-0.5,0.5-1,0.9-1.7,1.1v0c0.4,0.1,0.8,0.2,1.2,0.4c0.4,0.2,0.7,0.4,0.9,0.7c0.3,0.3,0.5,0.6,0.6,1
			C84.7,105.3,84.7,105.7,84.7,106.2 M80.8,100.1c0-0.4-0.2-0.8-0.6-1.1c-0.5-0.3-1.1-0.4-1.7-0.3h-1.7v3h1.9c0.5,0,1.1-0.1,1.5-0.4
			C80.6,101,80.8,100.6,80.8,100.1 M81.2,105.9c0-0.5-0.2-1-0.7-1.2c-0.6-0.3-1.2-0.4-1.8-0.3h-1.9v3.3h2c0.3,0,0.6,0,0.8-0.1
			c0.3,0,0.5-0.1,0.8-0.3c0.2-0.1,0.4-0.3,0.6-0.5C81.2,106.5,81.3,106.2,81.2,105.9"/>
		<path id="Path_522" class="st0" d="M100.9,110.4l-1.1-2.8h-5.6l-1.1,2.8h-3.8L95.4,96h3.4l6,14.4H100.9z M97,99.8l-1.8,5h3.6
			L97,99.8z"/>
		<path id="Path_523" class="st0" d="M115,98.9v11.5h-3.5V98.9h-4.1v-3h11.6v3H115z"/>
		<path id="Path_524" class="st0" d="M130.9,98.9v11.5h-3.5V98.9h-4.1v-3H135v3H130.9z"/>
		<path id="Path_525" class="st0" d="M21.1,120.7c0.4,0,0.7-0.1,1.1-0.2l0.2-1.3h-1l0.1-0.5h1.7l-0.4,2.2c-0.3,0.1-0.5,0.2-0.8,0.3
			c-0.3,0.1-0.6,0.1-0.9,0.1c-0.3,0-0.6,0-0.9-0.1c-0.2-0.1-0.5-0.2-0.7-0.4c-0.2-0.2-0.3-0.4-0.4-0.6c-0.1-0.3-0.2-0.5-0.1-0.8
			c0-0.4,0.1-0.8,0.2-1.1c0.1-0.3,0.3-0.6,0.6-0.9c0.2-0.3,0.5-0.5,0.9-0.6c0.3-0.2,0.7-0.2,1.1-0.2c0.3,0,0.6,0.1,0.9,0.2
			c0.3,0.1,0.5,0.3,0.7,0.5l-0.5,0.4c-0.1-0.2-0.2-0.3-0.4-0.4c-0.2-0.1-0.4-0.2-0.7-0.2c-0.3,0-0.6,0.1-0.8,0.2
			c-0.2,0.1-0.5,0.3-0.6,0.5c-0.2,0.2-0.3,0.5-0.4,0.7c-0.1,0.3-0.1,0.5-0.1,0.8c0,0.2,0,0.4,0.1,0.6c0.1,0.2,0.2,0.3,0.3,0.5
			c0.1,0.1,0.3,0.2,0.5,0.3C20.7,120.7,20.9,120.7,21.1,120.7"/>
		<path id="Path_526" class="st0" d="M25.7,120.6h2.4l-0.1,0.6h-3l0.8-4.6h2.8l-0.1,0.6h-2.2l-0.2,1.4h2.1l-0.1,0.5H26L25.7,120.6z"
			/>
		<path id="Path_527" class="st0" d="M33,117.4c-0.1-0.1-0.2-0.2-0.3-0.3c-0.2-0.1-0.3-0.1-0.5-0.1c-0.1,0-0.2,0-0.3,0
			c-0.1,0-0.2,0.1-0.3,0.1c-0.1,0.1-0.2,0.2-0.2,0.3c-0.1,0.1-0.1,0.2-0.1,0.4c0,0.1,0,0.2,0.1,0.3c0,0.1,0.1,0.1,0.2,0.2
			c0.1,0.1,0.1,0.1,0.2,0.2c0.1,0,0.2,0.1,0.3,0.1c0.2,0.1,0.3,0.1,0.5,0.2c0.1,0.1,0.3,0.2,0.4,0.3c0.1,0.1,0.2,0.2,0.3,0.4
			c0.1,0.1,0.1,0.3,0.1,0.5c0,0.2,0,0.4-0.1,0.6c-0.1,0.2-0.2,0.3-0.3,0.5c-0.2,0.1-0.3,0.2-0.5,0.3c-0.2,0.1-0.5,0.1-0.7,0.1
			c-0.3,0-0.6-0.1-0.9-0.2c-0.1-0.1-0.3-0.1-0.4-0.2c-0.1-0.1-0.2-0.2-0.3-0.3l0.5-0.4c0.1,0.2,0.2,0.3,0.4,0.4
			c0.2,0.1,0.4,0.2,0.6,0.2c0.1,0,0.3,0,0.4-0.1c0.1,0,0.2-0.1,0.3-0.2c0.1-0.1,0.2-0.2,0.2-0.3c0.1-0.1,0.1-0.2,0.1-0.4
			c0-0.1,0-0.2-0.1-0.3c0-0.1-0.1-0.2-0.2-0.2c-0.1-0.1-0.2-0.1-0.3-0.2c-0.1-0.1-0.2-0.1-0.3-0.1s-0.3-0.1-0.4-0.2
			c-0.1-0.1-0.2-0.1-0.3-0.2c-0.1-0.1-0.2-0.2-0.2-0.3c-0.1-0.1-0.1-0.3-0.1-0.4c0-0.2,0-0.4,0.1-0.6c0.1-0.2,0.2-0.3,0.4-0.4
			c0.2-0.1,0.3-0.2,0.5-0.3c0.2-0.1,0.4-0.1,0.7-0.1c0.3,0,0.5,0,0.7,0.1c0.2,0.1,0.4,0.2,0.5,0.4L33,117.4z"/>
		<path id="Path_528" class="st0" d="M36.5,121.2h-0.6l0.7-4h-1.5l0.1-0.6h3.5l-0.1,0.6h-1.4L36.5,121.2z"/>
		<path id="Path_529" class="st0" d="M40.4,121.2h-0.6l0.8-4.6h0.6L40.4,121.2z"/>
		<path id="Path_530" class="st0" d="M45.1,121.3c-0.3,0-0.6,0-0.9-0.1c-0.2-0.1-0.5-0.2-0.7-0.4c-0.2-0.2-0.3-0.4-0.4-0.6
			c-0.1-0.3-0.2-0.5-0.2-0.8c0-0.4,0.1-0.8,0.2-1.1c0.1-0.3,0.3-0.6,0.6-0.9c0.2-0.3,0.5-0.5,0.8-0.6c0.6-0.3,1.3-0.3,1.9-0.1
			c0.2,0.1,0.5,0.2,0.7,0.4c0.2,0.2,0.3,0.4,0.4,0.6c0.1,0.3,0.2,0.5,0.2,0.8c0,0.4-0.1,0.8-0.2,1.1c-0.1,0.3-0.3,0.6-0.6,0.9
			c-0.2,0.3-0.5,0.5-0.8,0.6C45.8,121.2,45.5,121.3,45.1,121.3 M47.1,118.5c0-0.2,0-0.4-0.1-0.6c-0.1-0.2-0.2-0.3-0.3-0.5
			c-0.1-0.1-0.3-0.2-0.5-0.3c-0.2-0.1-0.4-0.1-0.6-0.1c-0.3,0-0.6,0.1-0.8,0.2c-0.2,0.1-0.5,0.3-0.6,0.5c-0.2,0.2-0.3,0.5-0.4,0.7
			c-0.1,0.3-0.1,0.5-0.1,0.8c0,0.2,0,0.4,0.1,0.6c0.1,0.2,0.2,0.3,0.3,0.5c0.1,0.1,0.3,0.2,0.5,0.3c0.2,0.1,0.4,0.1,0.6,0.1
			c0.3,0,0.6-0.1,0.8-0.2c0.2-0.1,0.5-0.3,0.6-0.5c0.2-0.2,0.3-0.5,0.4-0.7C47,119,47.1,118.8,47.1,118.5 M45.8,116.2h-0.5l0.8-0.9
			h0.7L45.8,116.2z"/>
		<path id="Path_531" class="st0" d="M52.8,120.3L52.8,120.3l0.7-3.7h0.6l-0.8,4.6h-0.8l-1.7-3.8h0l-0.7,3.8h-0.6l0.8-4.6h0.8
			L52.8,120.3z"/>
		<path id="Path_532" class="st0" d="M59.5,116.6H61c0.3,0,0.5,0,0.8,0.1c0.2,0.1,0.5,0.2,0.7,0.3c0.2,0.2,0.4,0.4,0.5,0.6
			c0.1,0.3,0.2,0.6,0.2,0.9c0,0.4-0.1,0.8-0.2,1.1c-0.1,0.3-0.3,0.6-0.6,0.8c-0.3,0.2-0.6,0.4-0.9,0.5c-0.4,0.1-0.7,0.2-1.1,0.2
			h-1.6L59.5,116.6z M59.5,120.6h0.9c0.3,0,0.6-0.1,0.9-0.2c0.2-0.1,0.5-0.3,0.7-0.5c0.2-0.2,0.3-0.4,0.4-0.7
			c0.1-0.2,0.1-0.5,0.1-0.8c0-0.2,0-0.4-0.1-0.6c-0.1-0.2-0.2-0.3-0.3-0.5c-0.1-0.1-0.3-0.2-0.5-0.3c-0.2-0.1-0.5-0.1-0.7-0.1h-0.8
			L59.5,120.6z"/>
		<path id="Path_533" class="st0" d="M65.7,120.6H68l-0.1,0.6h-3l0.8-4.6h2.8l-0.1,0.6h-2.2l-0.2,1.4h2.1l-0.1,0.5h-2.1L65.7,120.6z
			"/>
		<path id="Path_534" class="st0" d="M73.6,121.2h-0.6l0.8-4.6H75c0.2,0,0.4,0,0.6,0.1c0.2,0,0.3,0.1,0.5,0.2
			c0.1,0.1,0.2,0.2,0.3,0.4c0.1,0.2,0.1,0.3,0.1,0.5c0,0.2,0,0.4-0.1,0.5c-0.1,0.1-0.2,0.3-0.3,0.4c-0.1,0.1-0.3,0.2-0.4,0.3
			c-0.2,0.1-0.3,0.1-0.5,0.1l1,2.1h-0.7l-0.9-2.1h-0.7L73.6,121.2z M74,118.6h0.7c0.2,0,0.3,0,0.5,0c0.1,0,0.3-0.1,0.4-0.1
			c0.1-0.1,0.2-0.1,0.3-0.2c0.1-0.1,0.1-0.3,0.1-0.4c0-0.2-0.1-0.4-0.3-0.5c-0.2-0.1-0.5-0.2-0.7-0.2h-0.7L74,118.6z"/>
		<path id="Path_535" class="st0" d="M78.9,120.6h2.4l-0.1,0.6h-3l0.8-4.6h2.8l-0.1,0.6h-2.2l-0.2,1.4h2.1l-0.1,0.5h-2.1L78.9,120.6
			z"/>
		<path id="Path_536" class="st0" d="M86.2,117.4c-0.1-0.1-0.2-0.2-0.3-0.3c-0.2-0.1-0.3-0.1-0.5-0.1c-0.1,0-0.2,0-0.3,0
			c-0.1,0-0.2,0.1-0.3,0.1c-0.1,0.1-0.2,0.2-0.2,0.3c-0.1,0.1-0.1,0.2-0.1,0.4c0,0.1,0,0.2,0.1,0.3c0,0.1,0.1,0.1,0.2,0.2
			c0.1,0.1,0.1,0.1,0.2,0.2c0.1,0,0.2,0.1,0.3,0.1c0.2,0.1,0.3,0.1,0.5,0.2c0.1,0.1,0.3,0.2,0.4,0.3c0.1,0.1,0.2,0.2,0.3,0.4
			c0.1,0.1,0.1,0.3,0.1,0.5c0,0.2,0,0.4-0.1,0.6c-0.1,0.2-0.2,0.3-0.3,0.5c-0.2,0.1-0.3,0.2-0.5,0.3c-0.2,0.1-0.5,0.1-0.7,0.1
			c-0.3,0-0.6-0.1-0.9-0.2c-0.1-0.1-0.3-0.1-0.4-0.2c-0.1-0.1-0.2-0.2-0.3-0.3l0.5-0.4c0.1,0.2,0.2,0.3,0.4,0.4
			c0.2,0.1,0.4,0.2,0.6,0.2c0.1,0,0.3,0,0.4-0.1c0.1,0,0.2-0.1,0.3-0.2c0.1-0.1,0.2-0.2,0.2-0.3c0.1-0.1,0.1-0.2,0.1-0.4
			c0-0.1,0-0.2-0.1-0.3c0-0.1-0.1-0.2-0.2-0.2c-0.1-0.1-0.2-0.1-0.3-0.2c-0.1-0.1-0.2-0.1-0.3-0.1c-0.1,0-0.3-0.1-0.4-0.2
			c-0.1-0.1-0.2-0.1-0.3-0.2c-0.1-0.1-0.2-0.2-0.2-0.3c-0.1-0.1-0.1-0.3-0.1-0.4c0-0.2,0-0.4,0.1-0.6c0.1-0.2,0.2-0.3,0.4-0.4
			c0.2-0.1,0.3-0.2,0.5-0.3c0.2-0.1,0.4-0.1,0.7-0.1c0.3,0,0.5,0,0.7,0.1c0.2,0.1,0.4,0.2,0.5,0.4L86.2,117.4z"/>
		<path id="Path_537" class="st0" d="M88.9,121.2h-0.6l0.8-4.6h0.6L88.9,121.2z"/>
		<path id="Path_538" class="st0" d="M92.1,116.6h1.5c0.3,0,0.5,0,0.8,0.1c0.2,0.1,0.5,0.2,0.7,0.3c0.2,0.2,0.4,0.4,0.5,0.6
			c0.1,0.3,0.2,0.6,0.2,0.9c0,0.4-0.1,0.8-0.2,1.1c-0.1,0.3-0.3,0.6-0.6,0.8c-0.3,0.2-0.6,0.4-0.9,0.5c-0.4,0.1-0.7,0.2-1.1,0.2
			h-1.6L92.1,116.6z M92,120.6H93c0.3,0,0.6-0.1,0.9-0.2c0.2-0.1,0.5-0.3,0.7-0.5c0.2-0.2,0.3-0.4,0.4-0.7c0.1-0.2,0.1-0.5,0.1-0.8
			c0-0.2,0-0.4-0.1-0.6c-0.1-0.2-0.2-0.3-0.3-0.5c-0.1-0.1-0.3-0.2-0.5-0.3c-0.2-0.1-0.5-0.1-0.7-0.1h-0.8L92,120.6z"/>
		<path id="Path_539" class="st0" d="M99.4,121.3c-0.2,0-0.5,0-0.7-0.1c-0.2-0.1-0.4-0.2-0.5-0.3c-0.1-0.1-0.2-0.3-0.3-0.4
			c-0.1-0.2-0.1-0.4-0.1-0.5c0-0.1,0-0.3,0-0.4l0.5-2.9h0.6l-0.5,2.8c0,0.1,0,0.2,0,0.3c0,0.1,0,0.2,0.1,0.4c0,0.1,0.1,0.2,0.2,0.3
			c0.1,0.1,0.2,0.2,0.3,0.2c0.1,0.1,0.3,0.1,0.5,0.1c0.2,0,0.4,0,0.6-0.1c0.1-0.1,0.3-0.2,0.4-0.3c0.1-0.1,0.2-0.3,0.2-0.4
			c0.1-0.2,0.1-0.3,0.1-0.5l0.5-2.8h0.6l-0.5,2.9c0,0.2-0.1,0.5-0.2,0.7c-0.1,0.2-0.2,0.4-0.4,0.6c-0.2,0.2-0.4,0.3-0.6,0.4
			C99.9,121.2,99.7,121.3,99.4,121.3"/>
		<path id="Path_540" class="st0" d="M105.7,121.3c-0.3,0-0.6,0-0.9-0.1c-0.2-0.1-0.5-0.2-0.7-0.4c-0.2-0.2-0.3-0.4-0.4-0.6
			c-0.1-0.3-0.2-0.5-0.2-0.8c0-0.4,0.1-0.8,0.2-1.1c0.1-0.3,0.3-0.6,0.6-0.9c0.2-0.3,0.5-0.5,0.8-0.6c0.6-0.3,1.3-0.3,1.9-0.1
			c0.2,0.1,0.5,0.2,0.7,0.4c0.2,0.2,0.3,0.4,0.4,0.6c0.1,0.3,0.2,0.5,0.2,0.8c0,0.4-0.1,0.8-0.2,1.1c-0.1,0.3-0.3,0.6-0.6,0.9
			c-0.2,0.3-0.5,0.5-0.8,0.6C106.4,121.2,106,121.3,105.7,121.3 M107.7,118.5c0-0.2,0-0.4-0.1-0.6c-0.1-0.2-0.2-0.3-0.3-0.5
			c-0.1-0.1-0.3-0.2-0.5-0.3c-0.2-0.1-0.4-0.1-0.6-0.1c-0.3,0-0.6,0.1-0.8,0.2c-0.2,0.1-0.5,0.3-0.6,0.5c-0.2,0.2-0.3,0.5-0.4,0.7
			c-0.1,0.3-0.1,0.5-0.1,0.8c0,0.2,0,0.4,0.1,0.6c0.1,0.2,0.2,0.3,0.3,0.5c0.1,0.1,0.3,0.2,0.5,0.3c0.2,0.1,0.4,0.1,0.6,0.1
			c0.3,0,0.6-0.1,0.8-0.2c0.2-0.1,0.5-0.3,0.6-0.5c0.2-0.2,0.3-0.5,0.4-0.7C107.6,119,107.7,118.8,107.7,118.5"/>
		<path id="Path_541" class="st0" d="M113,117.4c-0.1-0.1-0.2-0.2-0.4-0.3c-0.2-0.1-0.3-0.1-0.5-0.1c-0.1,0-0.2,0-0.3,0
			c-0.1,0-0.2,0.1-0.3,0.1c-0.1,0.1-0.2,0.2-0.2,0.3c-0.1,0.1-0.1,0.2-0.1,0.4c0,0.1,0,0.2,0.1,0.3c0,0.1,0.1,0.1,0.2,0.2
			c0.1,0.1,0.1,0.1,0.2,0.2c0.1,0,0.2,0.1,0.3,0.1c0.2,0.1,0.3,0.1,0.5,0.2c0.1,0.1,0.3,0.2,0.4,0.3c0.1,0.1,0.2,0.2,0.3,0.4
			c0.1,0.1,0.1,0.3,0.1,0.5c0,0.2,0,0.4-0.1,0.6c-0.1,0.2-0.2,0.3-0.3,0.5c-0.2,0.1-0.3,0.2-0.5,0.3c-0.2,0.1-0.5,0.1-0.7,0.1
			c-0.3,0-0.6-0.1-0.9-0.2c-0.1-0.1-0.3-0.1-0.4-0.2c-0.1-0.1-0.2-0.2-0.3-0.3l0.5-0.4c0.1,0.2,0.2,0.3,0.4,0.4
			c0.2,0.1,0.4,0.2,0.6,0.2c0.1,0,0.3,0,0.4-0.1c0.1,0,0.2-0.1,0.3-0.2c0.1-0.1,0.2-0.2,0.2-0.3c0.1-0.1,0.1-0.2,0.1-0.4
			c0-0.1,0-0.2-0.1-0.3c0-0.1-0.1-0.2-0.2-0.2c-0.1-0.1-0.2-0.1-0.3-0.2c-0.1-0.1-0.2-0.1-0.3-0.1s-0.3-0.1-0.4-0.2
			c-0.1-0.1-0.2-0.1-0.3-0.2c-0.1-0.1-0.2-0.2-0.2-0.3c-0.1-0.1-0.1-0.3-0.1-0.4c0-0.2,0-0.4,0.1-0.6c0.1-0.2,0.2-0.3,0.4-0.4
			c0.2-0.1,0.3-0.2,0.5-0.3c0.2-0.1,0.4-0.1,0.7-0.1c0.3,0,0.5,0,0.7,0.1c0.2,0.1,0.4,0.2,0.5,0.4L113,117.4z"/>
		<path id="Path_542" class="st0" d="M16.5,35.1V42h-3.3c-2.1,0-3.8,1.7-3.8,3.8c0,0,0,0,0,0v22.7c0,2.1,1.7,3.8,3.8,3.8
			c0,0,0,0,0,0h3.3v6.9c0,5.5,4.5,10,10,10c0,0,0,0,0,0h86.1c5.5,0,10-4.5,10-10c0,0,0,0,0,0V35.1c0-5.5-4.5-10-10-10c0,0,0,0,0,0
			h-9.8c0.1,0.8,0.2,1.6,0.3,2.5c0.1,0.6,0.1,1.3,0.1,1.9c0,0.6,0,1.2-0.1,1.8h9.5c2.1,0,3.8,1.7,3.8,3.7c0,0,0,0,0,0v44.1
			c0,2.1-1.7,3.8-3.7,3.8c0,0,0,0,0,0H26.5c-2.1,0-3.8-1.7-3.8-3.7c0,0,0,0,0,0V35.1c0-2.1,1.7-3.8,3.8-3.8h27
			c0-0.6-0.1-1.2-0.1-1.8c0-0.6,0-1.3,0.1-1.9c0.1-0.8,0.2-1.7,0.4-2.5H26.5C21,25.2,16.6,29.6,16.5,35.1
			C16.5,35.1,16.5,35.1,16.5,35.1"/>
		<path id="Path_543" class="st0" d="M54.3,42.8l5.8,3L59,48l-5.8-3c-0.4-0.2-0.5-0.7-0.3-1.1l0.4-0.7
			C53.4,42.8,53.9,42.7,54.3,42.8C54.3,42.8,54.3,42.8,54.3,42.8"/>
		<path id="Path_544" class="st0" d="M58.4,40l3.7,1.9L61,44.1l-3.7-1.9c-0.4-0.2-0.5-0.7-0.4-1.1c0,0,0,0,0,0l0.4-0.7
			C57.5,40,58,39.8,58.4,40C58.4,40,58.4,40,58.4,40"/>
		<path id="Path_545" class="st0" d="M54.4,47.9l3.7,1.9L56.9,52l-3.7-1.9c-0.4-0.2-0.5-0.7-0.4-1.1c0,0,0,0,0,0l0.4-0.7
			C53.5,47.9,53.9,47.7,54.4,47.9C54.4,47.9,54.4,47.9,54.4,47.9"/>
		<path id="Path_546" class="st0" d="M48.6,25.2c-0.1,0.8-0.2,1.6-0.3,2.5c0,0.6-0.1,1.3-0.1,1.9c0,0.6,0,1.2,0.1,1.8h5.2
			c0-0.6-0.1-1.2-0.1-1.8c0-0.6,0-1.3,0.1-1.9c0.1-0.8,0.2-1.7,0.4-2.5C56.4,13.7,67.6,6.4,79.1,8.9c9,1.9,15.8,9.5,16.6,18.7
			c0.1,0.6,0.1,1.3,0.1,1.9c0,0.6,0,1.2-0.1,1.8c0,0.4-0.1,0.9-0.2,1.3c-1.6,10.4-10.5,18-21,18.1c-1.2,0-2.4-0.1-3.6-0.3
			c0.1-0.5,0.1-1,0.1-1.5c0-0.6-0.1-1.2-0.3-1.8c-0.6-1.8-1.9-3.3-3.6-4.2l-1.2-0.6l0.2-0.3c0.1-0.3,0-0.6-0.2-0.7l-1.5-0.7
			c-0.3-0.1-0.6-0.1-0.7,0.2c0,0,0,0,0,0l-7,13.4c-0.1,0.3,0,0.6,0.2,0.7l1.5,0.7c0.3,0.1,0.6,0,0.7-0.2c0,0,0,0,0,0l0.2-0.3
			l1.2,0.6c2.3,1.2,5,1,7.2-0.3c0.2-0.1,0.3-0.2,0.5-0.3c14.1,3.5,28.4-5,31.9-19.1c0.3-1.1,0.5-2.2,0.6-3.3
			c0.1-0.4,0.1-0.9,0.1-1.3c0-0.6,0.1-1.2,0.1-1.8c0-0.6,0-1.3-0.1-1.9c-0.1-0.9-0.2-1.6-0.3-2.5c-2.5-14.4-16.1-24-30.5-21.6
			C59.2,5.5,50.5,14.1,48.6,25.2"/>
		<path id="Path_547" class="st0" d="M87.5,55.8v24.9h24c1.4,0,2.5-1.1,2.5-2.5V36c0-1.4-1.1-2.5-2.5-2.5h-7.9
			C102.3,43.2,96.3,51.6,87.5,55.8"/>
		<path id="Path_548" class="st0" d="M74.6,58.1c-2,0-4-0.2-5.9-0.6c-1.9,1.1-4.1,1.5-6.3,1.1v22.1h22.3V56.2
			C81.5,57.5,78,58.1,74.6,58.1"/>
		<path id="Path_549" class="st0" d="M74.1,17.8l11.7,13.3l4.6,5.2l-5.1-2.4l-8.2-4l-1.5,8L38.3,0.6l34,25.3L74.1,17.8z"/>
		<path id="Path_550" class="st1" d="M76,39.4L37.8,1.1L38.7,0l33.2,24.7l1.8-8.4l12.6,14.4l6.9,7.7L85,34.5l-7.4-3.6L76,39.4z
			 M45.5,6.8l29.6,29.7l1.5-7.6l11,5.3l-2.3-2.6L74.5,19.3l-1.7,7.8L45.5,6.8z"/>
	</g>
</g>
</svg>
