<svg xmlns="http://www.w3.org/2000/svg" width="37.256" height="26.491" viewBox="0 0 37.256 26.491">
  <g id="Group_106" data-name="Group 106" transform="translate(-2723.117 -8644.244)">
    <path id="Path_376" data-name="Path 376" d="M36.256,311.335a9.805,9.805,0,0,1-.63,1.632,4,4,0,0,1-3.606,2.046q-13.9.011-27.793,0A4.229,4.229,0,0,1,0,310.785q0-8.515,0-17.03a4.228,4.228,0,0,1,4.226-4.229q13.861,0,27.722,0a4.214,4.214,0,0,1,4.242,3.519.955.955,0,0,0,.064.163Zm-18.128,1.983q6.867,0,13.735,0a2.567,2.567,0,0,0,2.693-2.691q.005-8.355,0-16.709a2.564,2.564,0,0,0-2.692-2.691q-13.736,0-27.471,0A2.565,2.565,0,0,0,1.7,293.915q-.005,8.354,0,16.708a3.184,3.184,0,0,0,.111.837,2.538,2.538,0,0,0,2.578,1.856q6.868,0,13.735,0" transform="translate(2723.618 8355.22)" fill="#ffb614" stroke="#fdb62b" stroke-width="1"/>
    <path id="Path_377" data-name="Path 377" d="M24.273,304.636l4.852,3.628q2.8,2.1,5.609,4.193a.854.854,0,0,1-.69,1.549,1.7,1.7,0,0,1-.453-.267q-5.177-3.858-10.35-7.72c-.132-.1-.266-.193-.415-.3-.448.334-.892.662-1.334.992a2.025,2.025,0,0,1-2.8-.025c-.411-.316-.821-.633-1.258-.969q-.96.721-1.916,1.44-4.376,3.3-8.75,6.608a.908.908,0,0,1-1.3.018.861.861,0,0,1,.192-1.342c.967-.734,1.939-1.463,2.909-2.194q3.588-2.7,7.175-5.409c.082-.062.16-.129.262-.212L13.01,302.33Q9.3,299.493,5.6,296.649a1.35,1.35,0,0,1-.431-.573.8.8,0,0,1,.352-.922.88.88,0,0,1,1.024.073c.745.559,1.482,1.129,2.222,1.695q5.48,4.191,10.953,8.388a.552.552,0,0,0,.8-.013q6.653-4.986,13.326-9.943a1.384,1.384,0,0,1,.77-.258.721.721,0,0,1,.7.6.865.865,0,0,1-.37.959q-1.192.887-2.38,1.778l-8.076,6.033c-.065.049-.126.1-.2.169" transform="translate(2721.514 8352.962)" fill="#ffb614" stroke="#fdb62b" stroke-width="1"/>
  </g>
</svg>
